<?xml version="1.0" encoding="utf-8"?>
<svg xmlns="http://www.w3.org/2000/svg" xmlns:xlink="http://www.w3.org/1999/xlink" width="600" height="400" viewBox="0 0 2400 1600">
<defs>
  <clipPath id="clip970">
    <rect x="0" y="0" width="2400" height="1600"/>
  </clipPath>
</defs>
<path clip-path="url(#clip970)" d="M0 1600 L2400 1600 L2400 0 L0 0  Z" fill="#ffffff" fill-rule="evenodd" fill-opacity="1"/>
<defs>
  <clipPath id="clip971">
    <rect x="480" y="0" width="1681" height="1600"/>
  </clipPath>
</defs>
<path clip-path="url(#clip970)" d="M156.598 1486.45 L2352.76 1486.45 L2352.76 47.2441 L156.598 47.2441  Z" fill="#ffffff" fill-rule="evenodd" fill-opacity="1"/>
<defs>
  <clipPath id="clip972">
    <rect x="156" y="47" width="2197" height="1440"/>
  </clipPath>
</defs>
<polyline clip-path="url(#clip972)" style="stroke:#000000; stroke-linecap:round; stroke-linejoin:round; stroke-width:2; stroke-opacity:0.1; fill:none" points="218.754,1486.45 218.754,47.2441 "/>
<polyline clip-path="url(#clip972)" style="stroke:#000000; stroke-linecap:round; stroke-linejoin:round; stroke-width:2; stroke-opacity:0.1; fill:none" points="810.71,1486.45 810.71,47.2441 "/>
<polyline clip-path="url(#clip972)" style="stroke:#000000; stroke-linecap:round; stroke-linejoin:round; stroke-width:2; stroke-opacity:0.1; fill:none" points="1402.67,1486.45 1402.67,47.2441 "/>
<polyline clip-path="url(#clip972)" style="stroke:#000000; stroke-linecap:round; stroke-linejoin:round; stroke-width:2; stroke-opacity:0.1; fill:none" points="1994.62,1486.45 1994.62,47.2441 "/>
<polyline clip-path="url(#clip972)" style="stroke:#000000; stroke-linecap:round; stroke-linejoin:round; stroke-width:2; stroke-opacity:0.1; fill:none" points="156.598,1298.06 2352.76,1298.06 "/>
<polyline clip-path="url(#clip972)" style="stroke:#000000; stroke-linecap:round; stroke-linejoin:round; stroke-width:2; stroke-opacity:0.1; fill:none" points="156.598,995.537 2352.76,995.537 "/>
<polyline clip-path="url(#clip972)" style="stroke:#000000; stroke-linecap:round; stroke-linejoin:round; stroke-width:2; stroke-opacity:0.1; fill:none" points="156.598,693.017 2352.76,693.017 "/>
<polyline clip-path="url(#clip972)" style="stroke:#000000; stroke-linecap:round; stroke-linejoin:round; stroke-width:2; stroke-opacity:0.1; fill:none" points="156.598,390.497 2352.76,390.497 "/>
<polyline clip-path="url(#clip972)" style="stroke:#000000; stroke-linecap:round; stroke-linejoin:round; stroke-width:2; stroke-opacity:0.1; fill:none" points="156.598,87.9763 2352.76,87.9763 "/>
<polyline clip-path="url(#clip970)" style="stroke:#000000; stroke-linecap:round; stroke-linejoin:round; stroke-width:4; stroke-opacity:1; fill:none" points="156.598,1486.45 2352.76,1486.45 "/>
<polyline clip-path="url(#clip970)" style="stroke:#000000; stroke-linecap:round; stroke-linejoin:round; stroke-width:4; stroke-opacity:1; fill:none" points="218.754,1486.45 218.754,1467.55 "/>
<polyline clip-path="url(#clip970)" style="stroke:#000000; stroke-linecap:round; stroke-linejoin:round; stroke-width:4; stroke-opacity:1; fill:none" points="810.71,1486.45 810.71,1467.55 "/>
<polyline clip-path="url(#clip970)" style="stroke:#000000; stroke-linecap:round; stroke-linejoin:round; stroke-width:4; stroke-opacity:1; fill:none" points="1402.67,1486.45 1402.67,1467.55 "/>
<polyline clip-path="url(#clip970)" style="stroke:#000000; stroke-linecap:round; stroke-linejoin:round; stroke-width:4; stroke-opacity:1; fill:none" points="1994.62,1486.45 1994.62,1467.55 "/>
<path clip-path="url(#clip970)" d="M196.138 1517.37 Q192.527 1517.37 190.698 1520.93 Q188.893 1524.47 188.893 1531.6 Q188.893 1538.71 190.698 1542.27 Q192.527 1545.82 196.138 1545.82 Q199.772 1545.82 201.578 1542.27 Q203.407 1538.71 203.407 1531.6 Q203.407 1524.47 201.578 1520.93 Q199.772 1517.37 196.138 1517.37 M196.138 1513.66 Q201.948 1513.66 205.004 1518.27 Q208.082 1522.85 208.082 1531.6 Q208.082 1540.33 205.004 1544.94 Q201.948 1549.52 196.138 1549.52 Q190.328 1549.52 187.249 1544.94 Q184.194 1540.33 184.194 1531.6 Q184.194 1522.85 187.249 1518.27 Q190.328 1513.66 196.138 1513.66 Z" fill="#000000" fill-rule="nonzero" fill-opacity="1" /><path clip-path="url(#clip970)" d="M216.3 1542.97 L221.184 1542.97 L221.184 1548.85 L216.3 1548.85 L216.3 1542.97 Z" fill="#000000" fill-rule="nonzero" fill-opacity="1" /><path clip-path="url(#clip970)" d="M241.369 1517.37 Q237.758 1517.37 235.929 1520.93 Q234.124 1524.47 234.124 1531.6 Q234.124 1538.71 235.929 1542.27 Q237.758 1545.82 241.369 1545.82 Q245.003 1545.82 246.809 1542.27 Q248.638 1538.71 248.638 1531.6 Q248.638 1524.47 246.809 1520.93 Q245.003 1517.37 241.369 1517.37 M241.369 1513.66 Q247.179 1513.66 250.235 1518.27 Q253.314 1522.85 253.314 1531.6 Q253.314 1540.33 250.235 1544.94 Q247.179 1549.52 241.369 1549.52 Q235.559 1549.52 232.48 1544.94 Q229.425 1540.33 229.425 1531.6 Q229.425 1522.85 232.48 1518.27 Q235.559 1513.66 241.369 1513.66 Z" fill="#000000" fill-rule="nonzero" fill-opacity="1" /><path clip-path="url(#clip970)" d="M788.592 1517.37 Q784.981 1517.37 783.152 1520.93 Q781.347 1524.47 781.347 1531.6 Q781.347 1538.71 783.152 1542.27 Q784.981 1545.82 788.592 1545.82 Q792.226 1545.82 794.032 1542.27 Q795.86 1538.71 795.86 1531.6 Q795.86 1524.47 794.032 1520.93 Q792.226 1517.37 788.592 1517.37 M788.592 1513.66 Q794.402 1513.66 797.458 1518.27 Q800.536 1522.85 800.536 1531.6 Q800.536 1540.33 797.458 1544.94 Q794.402 1549.52 788.592 1549.52 Q782.782 1549.52 779.703 1544.94 Q776.648 1540.33 776.648 1531.6 Q776.648 1522.85 779.703 1518.27 Q782.782 1513.66 788.592 1513.66 Z" fill="#000000" fill-rule="nonzero" fill-opacity="1" /><path clip-path="url(#clip970)" d="M808.754 1542.97 L813.638 1542.97 L813.638 1548.85 L808.754 1548.85 L808.754 1542.97 Z" fill="#000000" fill-rule="nonzero" fill-opacity="1" /><path clip-path="url(#clip970)" d="M823.87 1514.29 L842.226 1514.29 L842.226 1518.22 L828.152 1518.22 L828.152 1526.7 Q829.17 1526.35 830.189 1526.19 Q831.207 1526 832.226 1526 Q838.013 1526 841.393 1529.17 Q844.772 1532.34 844.772 1537.76 Q844.772 1543.34 841.3 1546.44 Q837.828 1549.52 831.508 1549.52 Q829.332 1549.52 827.064 1549.15 Q824.819 1548.78 822.411 1548.04 L822.411 1543.34 Q824.495 1544.47 826.717 1545.03 Q828.939 1545.58 831.416 1545.58 Q835.42 1545.58 837.758 1543.48 Q840.096 1541.37 840.096 1537.76 Q840.096 1534.15 837.758 1532.04 Q835.42 1529.94 831.416 1529.94 Q829.541 1529.94 827.666 1530.35 Q825.814 1530.77 823.87 1531.65 L823.87 1514.29 Z" fill="#000000" fill-rule="nonzero" fill-opacity="1" /><path clip-path="url(#clip970)" d="M1369.82 1544.91 L1377.46 1544.91 L1377.46 1518.55 L1369.15 1520.21 L1369.15 1515.95 L1377.41 1514.29 L1382.09 1514.29 L1382.09 1544.91 L1389.73 1544.91 L1389.73 1548.85 L1369.82 1548.85 L1369.82 1544.91 Z" fill="#000000" fill-rule="nonzero" fill-opacity="1" /><path clip-path="url(#clip970)" d="M1399.17 1542.97 L1404.06 1542.97 L1404.06 1548.85 L1399.17 1548.85 L1399.17 1542.97 Z" fill="#000000" fill-rule="nonzero" fill-opacity="1" /><path clip-path="url(#clip970)" d="M1424.24 1517.37 Q1420.63 1517.37 1418.8 1520.93 Q1416.99 1524.47 1416.99 1531.6 Q1416.99 1538.71 1418.8 1542.27 Q1420.63 1545.82 1424.24 1545.82 Q1427.87 1545.82 1429.68 1542.27 Q1431.51 1538.71 1431.51 1531.6 Q1431.51 1524.47 1429.68 1520.93 Q1427.87 1517.37 1424.24 1517.37 M1424.24 1513.66 Q1430.05 1513.66 1433.11 1518.27 Q1436.18 1522.85 1436.18 1531.6 Q1436.18 1540.33 1433.11 1544.94 Q1430.05 1549.52 1424.24 1549.52 Q1418.43 1549.52 1415.35 1544.94 Q1412.3 1540.33 1412.3 1531.6 Q1412.3 1522.85 1415.35 1518.27 Q1418.43 1513.66 1424.24 1513.66 Z" fill="#000000" fill-rule="nonzero" fill-opacity="1" /><path clip-path="url(#clip970)" d="M1962.27 1544.91 L1969.91 1544.91 L1969.91 1518.55 L1961.6 1520.21 L1961.6 1515.95 L1969.87 1514.29 L1974.54 1514.29 L1974.54 1544.91 L1982.18 1544.91 L1982.18 1548.85 L1962.27 1548.85 L1962.27 1544.91 Z" fill="#000000" fill-rule="nonzero" fill-opacity="1" /><path clip-path="url(#clip970)" d="M1991.62 1542.97 L1996.51 1542.97 L1996.51 1548.85 L1991.62 1548.85 L1991.62 1542.97 Z" fill="#000000" fill-rule="nonzero" fill-opacity="1" /><path clip-path="url(#clip970)" d="M2006.74 1514.29 L2025.1 1514.29 L2025.1 1518.22 L2011.02 1518.22 L2011.02 1526.7 Q2012.04 1526.35 2013.06 1526.19 Q2014.08 1526 2015.1 1526 Q2020.88 1526 2024.26 1529.17 Q2027.64 1532.34 2027.64 1537.76 Q2027.64 1543.34 2024.17 1546.44 Q2020.7 1549.52 2014.38 1549.52 Q2012.2 1549.52 2009.93 1549.15 Q2007.69 1548.78 2005.28 1548.04 L2005.28 1543.34 Q2007.37 1544.47 2009.59 1545.03 Q2011.81 1545.58 2014.29 1545.58 Q2018.29 1545.58 2020.63 1543.48 Q2022.97 1541.37 2022.97 1537.76 Q2022.97 1534.15 2020.63 1532.04 Q2018.29 1529.94 2014.29 1529.94 Q2012.41 1529.94 2010.54 1530.35 Q2008.68 1530.77 2006.74 1531.65 L2006.74 1514.29 Z" fill="#000000" fill-rule="nonzero" fill-opacity="1" /><polyline clip-path="url(#clip970)" style="stroke:#000000; stroke-linecap:round; stroke-linejoin:round; stroke-width:4; stroke-opacity:1; fill:none" points="156.598,1486.45 156.598,47.2441 "/>
<polyline clip-path="url(#clip970)" style="stroke:#000000; stroke-linecap:round; stroke-linejoin:round; stroke-width:4; stroke-opacity:1; fill:none" points="156.598,1298.06 175.496,1298.06 "/>
<polyline clip-path="url(#clip970)" style="stroke:#000000; stroke-linecap:round; stroke-linejoin:round; stroke-width:4; stroke-opacity:1; fill:none" points="156.598,995.537 175.496,995.537 "/>
<polyline clip-path="url(#clip970)" style="stroke:#000000; stroke-linecap:round; stroke-linejoin:round; stroke-width:4; stroke-opacity:1; fill:none" points="156.598,693.017 175.496,693.017 "/>
<polyline clip-path="url(#clip970)" style="stroke:#000000; stroke-linecap:round; stroke-linejoin:round; stroke-width:4; stroke-opacity:1; fill:none" points="156.598,390.497 175.496,390.497 "/>
<polyline clip-path="url(#clip970)" style="stroke:#000000; stroke-linecap:round; stroke-linejoin:round; stroke-width:4; stroke-opacity:1; fill:none" points="156.598,87.9763 175.496,87.9763 "/>
<path clip-path="url(#clip970)" d="M65.0198 1283.86 Q61.4087 1283.86 59.58 1287.42 Q57.7745 1290.96 57.7745 1298.09 Q57.7745 1305.2 59.58 1308.76 Q61.4087 1312.31 65.0198 1312.31 Q68.6541 1312.31 70.4596 1308.76 Q72.2883 1305.2 72.2883 1298.09 Q72.2883 1290.96 70.4596 1287.42 Q68.6541 1283.86 65.0198 1283.86 M65.0198 1280.15 Q70.83 1280.15 73.8855 1284.76 Q76.9642 1289.34 76.9642 1298.09 Q76.9642 1306.82 73.8855 1311.43 Q70.83 1316.01 65.0198 1316.01 Q59.2097 1316.01 56.131 1311.43 Q53.0754 1306.82 53.0754 1298.09 Q53.0754 1289.34 56.131 1284.76 Q59.2097 1280.15 65.0198 1280.15 Z" fill="#000000" fill-rule="nonzero" fill-opacity="1" /><path clip-path="url(#clip970)" d="M85.1818 1309.46 L90.066 1309.46 L90.066 1315.34 L85.1818 1315.34 L85.1818 1309.46 Z" fill="#000000" fill-rule="nonzero" fill-opacity="1" /><path clip-path="url(#clip970)" d="M104.279 1311.4 L120.598 1311.4 L120.598 1315.34 L98.6539 1315.34 L98.6539 1311.4 Q101.316 1308.65 105.899 1304.02 Q110.506 1299.37 111.686 1298.02 Q113.932 1295.5 114.811 1293.76 Q115.714 1292 115.714 1290.31 Q115.714 1287.56 113.77 1285.82 Q111.848 1284.09 108.746 1284.09 Q106.547 1284.09 104.094 1284.85 Q101.663 1285.62 98.8854 1287.17 L98.8854 1282.44 Q101.709 1281.31 104.163 1280.73 Q106.617 1280.15 108.654 1280.15 Q114.024 1280.15 117.219 1282.84 Q120.413 1285.52 120.413 1290.01 Q120.413 1292.14 119.603 1294.06 Q118.816 1295.96 116.709 1298.56 Q116.131 1299.23 113.029 1302.44 Q109.927 1305.64 104.279 1311.4 Z" fill="#000000" fill-rule="nonzero" fill-opacity="1" /><path clip-path="url(#clip970)" d="M62.9365 981.336 Q59.3254 981.336 57.4967 984.901 Q55.6912 988.442 55.6912 995.572 Q55.6912 1002.68 57.4967 1006.24 Q59.3254 1009.78 62.9365 1009.78 Q66.5707 1009.78 68.3763 1006.24 Q70.205 1002.68 70.205 995.572 Q70.205 988.442 68.3763 984.901 Q66.5707 981.336 62.9365 981.336 M62.9365 977.632 Q68.7467 977.632 71.8022 982.239 Q74.8809 986.822 74.8809 995.572 Q74.8809 1004.3 71.8022 1008.91 Q68.7467 1013.49 62.9365 1013.49 Q57.1264 1013.49 54.0477 1008.91 Q50.9921 1004.3 50.9921 995.572 Q50.9921 986.822 54.0477 982.239 Q57.1264 977.632 62.9365 977.632 Z" fill="#000000" fill-rule="nonzero" fill-opacity="1" /><path clip-path="url(#clip970)" d="M83.0984 1006.94 L87.9827 1006.94 L87.9827 1012.82 L83.0984 1012.82 L83.0984 1006.94 Z" fill="#000000" fill-rule="nonzero" fill-opacity="1" /><path clip-path="url(#clip970)" d="M111.015 982.331 L99.2095 1000.78 L111.015 1000.78 L111.015 982.331 M109.788 978.257 L115.668 978.257 L115.668 1000.78 L120.598 1000.78 L120.598 1004.67 L115.668 1004.67 L115.668 1012.82 L111.015 1012.82 L111.015 1004.67 L95.4132 1004.67 L95.4132 1000.16 L109.788 978.257 Z" fill="#000000" fill-rule="nonzero" fill-opacity="1" /><path clip-path="url(#clip970)" d="M63.2606 678.816 Q59.6495 678.816 57.8208 682.38 Q56.0152 685.922 56.0152 693.052 Q56.0152 700.158 57.8208 703.723 Q59.6495 707.265 63.2606 707.265 Q66.8948 707.265 68.7004 703.723 Q70.5291 700.158 70.5291 693.052 Q70.5291 685.922 68.7004 682.38 Q66.8948 678.816 63.2606 678.816 M63.2606 675.112 Q69.0707 675.112 72.1263 679.718 Q75.205 684.302 75.205 693.052 Q75.205 701.778 72.1263 706.385 Q69.0707 710.968 63.2606 710.968 Q57.4504 710.968 54.3717 706.385 Q51.3162 701.778 51.3162 693.052 Q51.3162 684.302 54.3717 679.718 Q57.4504 675.112 63.2606 675.112 Z" fill="#000000" fill-rule="nonzero" fill-opacity="1" /><path clip-path="url(#clip970)" d="M83.4225 704.417 L88.3067 704.417 L88.3067 710.297 L83.4225 710.297 L83.4225 704.417 Z" fill="#000000" fill-rule="nonzero" fill-opacity="1" /><path clip-path="url(#clip970)" d="M109.071 691.154 Q105.922 691.154 104.071 693.306 Q102.242 695.459 102.242 699.209 Q102.242 702.936 104.071 705.112 Q105.922 707.265 109.071 707.265 Q112.219 707.265 114.047 705.112 Q115.899 702.936 115.899 699.209 Q115.899 695.459 114.047 693.306 Q112.219 691.154 109.071 691.154 M118.353 676.501 L118.353 680.76 Q116.594 679.927 114.788 679.487 Q113.006 679.047 111.246 679.047 Q106.617 679.047 104.163 682.172 Q101.733 685.297 101.385 691.616 Q102.751 689.603 104.811 688.538 Q106.871 687.45 109.348 687.45 Q114.557 687.45 117.566 690.621 Q120.598 693.769 120.598 699.209 Q120.598 704.533 117.45 707.751 Q114.302 710.968 109.071 710.968 Q103.075 710.968 99.9039 706.385 Q96.7326 701.778 96.7326 693.052 Q96.7326 684.857 100.621 679.996 Q104.51 675.112 111.061 675.112 Q112.82 675.112 114.603 675.459 Q116.408 675.806 118.353 676.501 Z" fill="#000000" fill-rule="nonzero" fill-opacity="1" /><path clip-path="url(#clip970)" d="M63.5152 376.295 Q59.9041 376.295 58.0754 379.86 Q56.2699 383.402 56.2699 390.531 Q56.2699 397.638 58.0754 401.203 Q59.9041 404.744 63.5152 404.744 Q67.1494 404.744 68.955 401.203 Q70.7837 397.638 70.7837 390.531 Q70.7837 383.402 68.955 379.86 Q67.1494 376.295 63.5152 376.295 M63.5152 372.592 Q69.3254 372.592 72.3809 377.198 Q75.4596 381.781 75.4596 390.531 Q75.4596 399.258 72.3809 403.865 Q69.3254 408.448 63.5152 408.448 Q57.7051 408.448 54.6264 403.865 Q51.5708 399.258 51.5708 390.531 Q51.5708 381.781 54.6264 377.198 Q57.7051 372.592 63.5152 372.592 Z" fill="#000000" fill-rule="nonzero" fill-opacity="1" /><path clip-path="url(#clip970)" d="M83.6771 401.897 L88.5614 401.897 L88.5614 407.777 L83.6771 407.777 L83.6771 401.897 Z" fill="#000000" fill-rule="nonzero" fill-opacity="1" /><path clip-path="url(#clip970)" d="M108.746 391.365 Q105.413 391.365 103.492 393.147 Q101.594 394.929 101.594 398.054 Q101.594 401.179 103.492 402.962 Q105.413 404.744 108.746 404.744 Q112.08 404.744 114.001 402.962 Q115.922 401.156 115.922 398.054 Q115.922 394.929 114.001 393.147 Q112.103 391.365 108.746 391.365 M104.071 389.374 Q101.061 388.633 99.3715 386.573 Q97.7048 384.513 97.7048 381.55 Q97.7048 377.406 100.645 374.999 Q103.608 372.592 108.746 372.592 Q113.908 372.592 116.848 374.999 Q119.788 377.406 119.788 381.55 Q119.788 384.513 118.098 386.573 Q116.432 388.633 113.445 389.374 Q116.825 390.161 118.7 392.453 Q120.598 394.744 120.598 398.054 Q120.598 403.078 117.52 405.763 Q114.464 408.448 108.746 408.448 Q103.029 408.448 99.9502 405.763 Q96.8947 403.078 96.8947 398.054 Q96.8947 394.744 98.7928 392.453 Q100.691 390.161 104.071 389.374 M102.358 381.99 Q102.358 384.675 104.024 386.179 Q105.714 387.684 108.746 387.684 Q111.756 387.684 113.445 386.179 Q115.158 384.675 115.158 381.99 Q115.158 379.305 113.445 377.8 Q111.756 376.295 108.746 376.295 Q105.714 376.295 104.024 377.8 Q102.358 379.305 102.358 381.99 Z" fill="#000000" fill-rule="nonzero" fill-opacity="1" /><path clip-path="url(#clip970)" d="M54.2328 101.321 L61.8717 101.321 L61.8717 74.9555 L53.5616 76.6222 L53.5616 72.3629 L61.8254 70.6963 L66.5013 70.6963 L66.5013 101.321 L74.1402 101.321 L74.1402 105.256 L54.2328 105.256 L54.2328 101.321 Z" fill="#000000" fill-rule="nonzero" fill-opacity="1" /><path clip-path="url(#clip970)" d="M83.5845 99.3767 L88.4688 99.3767 L88.4688 105.256 L83.5845 105.256 L83.5845 99.3767 Z" fill="#000000" fill-rule="nonzero" fill-opacity="1" /><path clip-path="url(#clip970)" d="M108.654 73.775 Q105.043 73.775 103.214 77.3398 Q101.409 80.8814 101.409 88.011 Q101.409 95.1174 103.214 98.6822 Q105.043 102.224 108.654 102.224 Q112.288 102.224 114.094 98.6822 Q115.922 95.1174 115.922 88.011 Q115.922 80.8814 114.094 77.3398 Q112.288 73.775 108.654 73.775 M108.654 70.0713 Q114.464 70.0713 117.52 74.6777 Q120.598 79.261 120.598 88.011 Q120.598 96.7378 117.52 101.344 Q114.464 105.928 108.654 105.928 Q102.844 105.928 99.765 101.344 Q96.7095 96.7378 96.7095 88.011 Q96.7095 79.261 99.765 74.6777 Q102.844 70.0713 108.654 70.0713 Z" fill="#000000" fill-rule="nonzero" fill-opacity="1" /><polyline clip-path="url(#clip972)" style="stroke:#009af9; stroke-linecap:round; stroke-linejoin:round; stroke-width:4; stroke-opacity:1; fill:none" points="218.754,87.9763 301.628,117.216 384.501,196.747 467.375,326.244 550.249,488.235 633.123,666.269 715.997,848.426 798.871,1015.83 881.745,1160.59 964.619,1280.25 1047.49,1341.21 1130.37,1365.62 1213.24,1373.65 1296.11,1379.61 1378.99,1401.19 1461.86,1404.72 1544.74,1366.75 1627.61,1297.72 1710.48,1217.35 1793.36,1154.89 1876.23,1127.6 1959.11,1127.25 2041.98,1173.07 2124.85,1243.86 2207.73,1306.29 2290.6,1360.65 "/>
<path clip-path="url(#clip972)" d="M218.754 103.976 L207.442 99.2883 L202.754 87.9763 L207.442 76.6643 L218.754 71.9763 L230.066 76.6643 L234.754 87.9763 L230.066 99.2883 Z" fill="#009af9" fill-rule="evenodd" fill-opacity="1" stroke="#000000" stroke-opacity="1" stroke-width="3.2"/>
<path clip-path="url(#clip972)" d="M301.628 133.216 L290.316 128.528 L285.628 117.216 L290.316 105.904 L301.628 101.216 L312.94 105.904 L317.628 117.216 L312.94 128.528 Z" fill="#009af9" fill-rule="evenodd" fill-opacity="1" stroke="#000000" stroke-opacity="1" stroke-width="3.2"/>
<path clip-path="url(#clip972)" d="M384.501 212.747 L373.189 208.059 L368.501 196.747 L373.189 185.435 L384.501 180.747 L395.813 185.435 L400.501 196.747 L395.813 208.059 Z" fill="#009af9" fill-rule="evenodd" fill-opacity="1" stroke="#000000" stroke-opacity="1" stroke-width="3.2"/>
<path clip-path="url(#clip972)" d="M467.375 342.244 L456.063 337.556 L451.375 326.244 L456.063 314.932 L467.375 310.244 L478.687 314.932 L483.375 326.244 L478.687 337.556 Z" fill="#009af9" fill-rule="evenodd" fill-opacity="1" stroke="#000000" stroke-opacity="1" stroke-width="3.2"/>
<path clip-path="url(#clip972)" d="M550.249 504.235 L538.937 499.547 L534.249 488.235 L538.937 476.923 L550.249 472.235 L561.561 476.923 L566.249 488.235 L561.561 499.547 Z" fill="#009af9" fill-rule="evenodd" fill-opacity="1" stroke="#000000" stroke-opacity="1" stroke-width="3.2"/>
<path clip-path="url(#clip972)" d="M633.123 682.269 L621.811 677.581 L617.123 666.269 L621.811 654.957 L633.123 650.269 L644.435 654.957 L649.123 666.269 L644.435 677.581 Z" fill="#009af9" fill-rule="evenodd" fill-opacity="1" stroke="#000000" stroke-opacity="1" stroke-width="3.2"/>
<path clip-path="url(#clip972)" d="M715.997 864.426 L704.685 859.738 L699.997 848.426 L704.685 837.114 L715.997 832.426 L727.309 837.114 L731.997 848.426 L727.309 859.738 Z" fill="#009af9" fill-rule="evenodd" fill-opacity="1" stroke="#000000" stroke-opacity="1" stroke-width="3.2"/>
<path clip-path="url(#clip972)" d="M798.871 1031.83 L787.559 1027.14 L782.871 1015.83 L787.559 1004.52 L798.871 999.831 L810.183 1004.52 L814.871 1015.83 L810.183 1027.14 Z" fill="#009af9" fill-rule="evenodd" fill-opacity="1" stroke="#000000" stroke-opacity="1" stroke-width="3.2"/>
<path clip-path="url(#clip972)" d="M881.745 1176.59 L870.433 1171.91 L865.745 1160.59 L870.433 1149.28 L881.745 1144.59 L893.057 1149.28 L897.745 1160.59 L893.057 1171.91 Z" fill="#009af9" fill-rule="evenodd" fill-opacity="1" stroke="#000000" stroke-opacity="1" stroke-width="3.2"/>
<path clip-path="url(#clip972)" d="M964.619 1296.25 L953.307 1291.57 L948.619 1280.25 L953.307 1268.94 L964.619 1264.25 L975.931 1268.94 L980.619 1280.25 L975.931 1291.57 Z" fill="#009af9" fill-rule="evenodd" fill-opacity="1" stroke="#000000" stroke-opacity="1" stroke-width="3.2"/>
<path clip-path="url(#clip972)" d="M1047.49 1357.21 L1036.18 1352.52 L1031.49 1341.21 L1036.18 1329.9 L1047.49 1325.21 L1058.8 1329.9 L1063.49 1341.21 L1058.8 1352.52 Z" fill="#009af9" fill-rule="evenodd" fill-opacity="1" stroke="#000000" stroke-opacity="1" stroke-width="3.2"/>
<path clip-path="url(#clip972)" d="M1130.37 1381.62 L1119.05 1376.93 L1114.37 1365.62 L1119.05 1354.31 L1130.37 1349.62 L1141.68 1354.31 L1146.37 1365.62 L1141.68 1376.93 Z" fill="#009af9" fill-rule="evenodd" fill-opacity="1" stroke="#000000" stroke-opacity="1" stroke-width="3.2"/>
<path clip-path="url(#clip972)" d="M1213.24 1389.65 L1201.93 1384.97 L1197.24 1373.65 L1201.93 1362.34 L1213.24 1357.65 L1224.55 1362.34 L1229.24 1373.65 L1224.55 1384.97 Z" fill="#009af9" fill-rule="evenodd" fill-opacity="1" stroke="#000000" stroke-opacity="1" stroke-width="3.2"/>
<path clip-path="url(#clip972)" d="M1296.11 1395.61 L1284.8 1390.93 L1280.11 1379.61 L1284.8 1368.3 L1296.11 1363.61 L1307.43 1368.3 L1312.11 1379.61 L1307.43 1390.93 Z" fill="#009af9" fill-rule="evenodd" fill-opacity="1" stroke="#000000" stroke-opacity="1" stroke-width="3.2"/>
<path clip-path="url(#clip972)" d="M1378.99 1417.19 L1367.68 1412.5 L1362.99 1401.19 L1367.68 1389.88 L1378.99 1385.19 L1390.3 1389.88 L1394.99 1401.19 L1390.3 1412.5 Z" fill="#009af9" fill-rule="evenodd" fill-opacity="1" stroke="#000000" stroke-opacity="1" stroke-width="3.2"/>
<path clip-path="url(#clip972)" d="M1461.86 1420.72 L1450.55 1416.03 L1445.86 1404.72 L1450.55 1393.41 L1461.86 1388.72 L1473.17 1393.41 L1477.86 1404.72 L1473.17 1416.03 Z" fill="#009af9" fill-rule="evenodd" fill-opacity="1" stroke="#000000" stroke-opacity="1" stroke-width="3.2"/>
<path clip-path="url(#clip972)" d="M1544.74 1382.75 L1533.42 1378.06 L1528.74 1366.75 L1533.42 1355.44 L1544.74 1350.75 L1556.05 1355.44 L1560.74 1366.75 L1556.05 1378.06 Z" fill="#009af9" fill-rule="evenodd" fill-opacity="1" stroke="#000000" stroke-opacity="1" stroke-width="3.2"/>
<path clip-path="url(#clip972)" d="M1627.61 1313.72 L1616.3 1309.03 L1611.61 1297.72 L1616.3 1286.41 L1627.61 1281.72 L1638.92 1286.41 L1643.61 1297.72 L1638.92 1309.03 Z" fill="#009af9" fill-rule="evenodd" fill-opacity="1" stroke="#000000" stroke-opacity="1" stroke-width="3.2"/>
<path clip-path="url(#clip972)" d="M1710.48 1233.35 L1699.17 1228.67 L1694.48 1217.35 L1699.17 1206.04 L1710.48 1201.35 L1721.8 1206.04 L1726.48 1217.35 L1721.8 1228.67 Z" fill="#009af9" fill-rule="evenodd" fill-opacity="1" stroke="#000000" stroke-opacity="1" stroke-width="3.2"/>
<path clip-path="url(#clip972)" d="M1793.36 1170.89 L1782.05 1166.2 L1777.36 1154.89 L1782.05 1143.57 L1793.36 1138.89 L1804.67 1143.57 L1809.36 1154.89 L1804.67 1166.2 Z" fill="#009af9" fill-rule="evenodd" fill-opacity="1" stroke="#000000" stroke-opacity="1" stroke-width="3.2"/>
<path clip-path="url(#clip972)" d="M1876.23 1143.6 L1864.92 1138.91 L1860.23 1127.6 L1864.92 1116.29 L1876.23 1111.6 L1887.54 1116.29 L1892.23 1127.6 L1887.54 1138.91 Z" fill="#009af9" fill-rule="evenodd" fill-opacity="1" stroke="#000000" stroke-opacity="1" stroke-width="3.2"/>
<path clip-path="url(#clip972)" d="M1959.11 1143.25 L1947.79 1138.57 L1943.11 1127.25 L1947.79 1115.94 L1959.11 1111.25 L1970.42 1115.94 L1975.11 1127.25 L1970.42 1138.57 Z" fill="#009af9" fill-rule="evenodd" fill-opacity="1" stroke="#000000" stroke-opacity="1" stroke-width="3.2"/>
<path clip-path="url(#clip972)" d="M2041.98 1189.07 L2030.67 1184.38 L2025.98 1173.07 L2030.67 1161.76 L2041.98 1157.07 L2053.29 1161.76 L2057.98 1173.07 L2053.29 1184.38 Z" fill="#009af9" fill-rule="evenodd" fill-opacity="1" stroke="#000000" stroke-opacity="1" stroke-width="3.2"/>
<path clip-path="url(#clip972)" d="M2124.85 1259.86 L2113.54 1255.17 L2108.85 1243.86 L2113.54 1232.55 L2124.85 1227.86 L2136.16 1232.55 L2140.85 1243.86 L2136.16 1255.17 Z" fill="#009af9" fill-rule="evenodd" fill-opacity="1" stroke="#000000" stroke-opacity="1" stroke-width="3.2"/>
<path clip-path="url(#clip972)" d="M2207.73 1322.29 L2196.41 1317.61 L2191.73 1306.29 L2196.41 1294.98 L2207.73 1290.29 L2219.04 1294.98 L2223.73 1306.29 L2219.04 1317.61 Z" fill="#009af9" fill-rule="evenodd" fill-opacity="1" stroke="#000000" stroke-opacity="1" stroke-width="3.2"/>
<path clip-path="url(#clip972)" d="M2290.6 1376.65 L2279.29 1371.96 L2274.6 1360.65 L2279.29 1349.34 L2290.6 1344.65 L2301.91 1349.34 L2306.6 1360.65 L2301.91 1371.96 Z" fill="#009af9" fill-rule="evenodd" fill-opacity="1" stroke="#000000" stroke-opacity="1" stroke-width="3.2"/>
<polyline clip-path="url(#clip972)" style="stroke:#e26f46; stroke-linecap:round; stroke-linejoin:round; stroke-width:4; stroke-opacity:1; fill:none" points="218.754,87.9763 301.628,117.216 384.501,196.747 467.375,325.419 550.249,485.543 633.123,661.899 715.997,841.561 798.871,1008.75 881.745,1146.94 964.619,1267.38 1047.49,1325.32 1130.37,1365.47 1213.24,1390.73 1296.11,1424.5 1378.99,1445.72 1461.86,1425.19 1544.74,1383.25 1627.61,1329.95 1710.48,1275.48 1793.36,1229.25 1876.23,1211.45 1959.11,1231.71 2041.98,1285.2 2124.85,1347.68 2207.73,1385.44 2290.6,1418.83 "/>
<path clip-path="url(#clip972)" d="M218.754 103.976 L207.442 99.2883 L202.754 87.9763 L207.442 76.6643 L218.754 71.9763 L230.066 76.6643 L234.754 87.9763 L230.066 99.2883 Z" fill="#e26f46" fill-rule="evenodd" fill-opacity="1" stroke="#000000" stroke-opacity="1" stroke-width="3.2"/>
<path clip-path="url(#clip972)" d="M301.628 133.216 L290.316 128.528 L285.628 117.216 L290.316 105.904 L301.628 101.216 L312.94 105.904 L317.628 117.216 L312.94 128.528 Z" fill="#e26f46" fill-rule="evenodd" fill-opacity="1" stroke="#000000" stroke-opacity="1" stroke-width="3.2"/>
<path clip-path="url(#clip972)" d="M384.501 212.747 L373.189 208.059 L368.501 196.747 L373.189 185.435 L384.501 180.747 L395.813 185.435 L400.501 196.747 L395.813 208.059 Z" fill="#e26f46" fill-rule="evenodd" fill-opacity="1" stroke="#000000" stroke-opacity="1" stroke-width="3.2"/>
<path clip-path="url(#clip972)" d="M467.375 341.419 L456.063 336.731 L451.375 325.419 L456.063 314.107 L467.375 309.419 L478.687 314.107 L483.375 325.419 L478.687 336.731 Z" fill="#e26f46" fill-rule="evenodd" fill-opacity="1" stroke="#000000" stroke-opacity="1" stroke-width="3.2"/>
<path clip-path="url(#clip972)" d="M550.249 501.543 L538.937 496.855 L534.249 485.543 L538.937 474.231 L550.249 469.543 L561.561 474.231 L566.249 485.543 L561.561 496.855 Z" fill="#e26f46" fill-rule="evenodd" fill-opacity="1" stroke="#000000" stroke-opacity="1" stroke-width="3.2"/>
<path clip-path="url(#clip972)" d="M633.123 677.899 L621.811 673.211 L617.123 661.899 L621.811 650.587 L633.123 645.899 L644.435 650.587 L649.123 661.899 L644.435 673.211 Z" fill="#e26f46" fill-rule="evenodd" fill-opacity="1" stroke="#000000" stroke-opacity="1" stroke-width="3.2"/>
<path clip-path="url(#clip972)" d="M715.997 857.561 L704.685 852.873 L699.997 841.561 L704.685 830.249 L715.997 825.561 L727.309 830.249 L731.997 841.561 L727.309 852.873 Z" fill="#e26f46" fill-rule="evenodd" fill-opacity="1" stroke="#000000" stroke-opacity="1" stroke-width="3.2"/>
<path clip-path="url(#clip972)" d="M798.871 1024.75 L787.559 1020.07 L782.871 1008.75 L787.559 997.443 L798.871 992.755 L810.183 997.443 L814.871 1008.75 L810.183 1020.07 Z" fill="#e26f46" fill-rule="evenodd" fill-opacity="1" stroke="#000000" stroke-opacity="1" stroke-width="3.2"/>
<path clip-path="url(#clip972)" d="M881.745 1162.94 L870.433 1158.25 L865.745 1146.94 L870.433 1135.63 L881.745 1130.94 L893.057 1135.63 L897.745 1146.94 L893.057 1158.25 Z" fill="#e26f46" fill-rule="evenodd" fill-opacity="1" stroke="#000000" stroke-opacity="1" stroke-width="3.2"/>
<path clip-path="url(#clip972)" d="M964.619 1283.38 L953.307 1278.69 L948.619 1267.38 L953.307 1256.07 L964.619 1251.38 L975.931 1256.07 L980.619 1267.38 L975.931 1278.69 Z" fill="#e26f46" fill-rule="evenodd" fill-opacity="1" stroke="#000000" stroke-opacity="1" stroke-width="3.2"/>
<path clip-path="url(#clip972)" d="M1047.49 1341.32 L1036.18 1336.63 L1031.49 1325.32 L1036.18 1314.01 L1047.49 1309.32 L1058.8 1314.01 L1063.49 1325.32 L1058.8 1336.63 Z" fill="#e26f46" fill-rule="evenodd" fill-opacity="1" stroke="#000000" stroke-opacity="1" stroke-width="3.2"/>
<path clip-path="url(#clip972)" d="M1130.37 1381.47 L1119.05 1376.78 L1114.37 1365.47 L1119.05 1354.15 L1130.37 1349.47 L1141.68 1354.15 L1146.37 1365.47 L1141.68 1376.78 Z" fill="#e26f46" fill-rule="evenodd" fill-opacity="1" stroke="#000000" stroke-opacity="1" stroke-width="3.2"/>
<path clip-path="url(#clip972)" d="M1213.24 1406.73 L1201.93 1402.04 L1197.24 1390.73 L1201.93 1379.42 L1213.24 1374.73 L1224.55 1379.42 L1229.24 1390.73 L1224.55 1402.04 Z" fill="#e26f46" fill-rule="evenodd" fill-opacity="1" stroke="#000000" stroke-opacity="1" stroke-width="3.2"/>
<path clip-path="url(#clip972)" d="M1296.11 1440.5 L1284.8 1435.81 L1280.11 1424.5 L1284.8 1413.19 L1296.11 1408.5 L1307.43 1413.19 L1312.11 1424.5 L1307.43 1435.81 Z" fill="#e26f46" fill-rule="evenodd" fill-opacity="1" stroke="#000000" stroke-opacity="1" stroke-width="3.2"/>
<path clip-path="url(#clip972)" d="M1378.99 1461.72 L1367.68 1457.03 L1362.99 1445.72 L1367.68 1434.4 L1378.99 1429.72 L1390.3 1434.4 L1394.99 1445.72 L1390.3 1457.03 Z" fill="#e26f46" fill-rule="evenodd" fill-opacity="1" stroke="#000000" stroke-opacity="1" stroke-width="3.2"/>
<path clip-path="url(#clip972)" d="M1461.86 1441.19 L1450.55 1436.5 L1445.86 1425.19 L1450.55 1413.88 L1461.86 1409.19 L1473.17 1413.88 L1477.86 1425.19 L1473.17 1436.5 Z" fill="#e26f46" fill-rule="evenodd" fill-opacity="1" stroke="#000000" stroke-opacity="1" stroke-width="3.2"/>
<path clip-path="url(#clip972)" d="M1544.74 1399.25 L1533.42 1394.56 L1528.74 1383.25 L1533.42 1371.93 L1544.74 1367.25 L1556.05 1371.93 L1560.74 1383.25 L1556.05 1394.56 Z" fill="#e26f46" fill-rule="evenodd" fill-opacity="1" stroke="#000000" stroke-opacity="1" stroke-width="3.2"/>
<path clip-path="url(#clip972)" d="M1627.61 1345.95 L1616.3 1341.26 L1611.61 1329.95 L1616.3 1318.63 L1627.61 1313.95 L1638.92 1318.63 L1643.61 1329.95 L1638.92 1341.26 Z" fill="#e26f46" fill-rule="evenodd" fill-opacity="1" stroke="#000000" stroke-opacity="1" stroke-width="3.2"/>
<path clip-path="url(#clip972)" d="M1710.48 1291.48 L1699.17 1286.79 L1694.48 1275.48 L1699.17 1264.16 L1710.48 1259.48 L1721.8 1264.16 L1726.48 1275.48 L1721.8 1286.79 Z" fill="#e26f46" fill-rule="evenodd" fill-opacity="1" stroke="#000000" stroke-opacity="1" stroke-width="3.2"/>
<path clip-path="url(#clip972)" d="M1793.36 1245.25 L1782.05 1240.56 L1777.36 1229.25 L1782.05 1217.94 L1793.36 1213.25 L1804.67 1217.94 L1809.36 1229.25 L1804.67 1240.56 Z" fill="#e26f46" fill-rule="evenodd" fill-opacity="1" stroke="#000000" stroke-opacity="1" stroke-width="3.2"/>
<path clip-path="url(#clip972)" d="M1876.23 1227.45 L1864.92 1222.76 L1860.23 1211.45 L1864.92 1200.14 L1876.23 1195.45 L1887.54 1200.14 L1892.23 1211.45 L1887.54 1222.76 Z" fill="#e26f46" fill-rule="evenodd" fill-opacity="1" stroke="#000000" stroke-opacity="1" stroke-width="3.2"/>
<path clip-path="url(#clip972)" d="M1959.11 1247.71 L1947.79 1243.02 L1943.11 1231.71 L1947.79 1220.4 L1959.11 1215.71 L1970.42 1220.4 L1975.11 1231.71 L1970.42 1243.02 Z" fill="#e26f46" fill-rule="evenodd" fill-opacity="1" stroke="#000000" stroke-opacity="1" stroke-width="3.2"/>
<path clip-path="url(#clip972)" d="M2041.98 1301.2 L2030.67 1296.51 L2025.98 1285.2 L2030.67 1273.89 L2041.98 1269.2 L2053.29 1273.89 L2057.98 1285.2 L2053.29 1296.51 Z" fill="#e26f46" fill-rule="evenodd" fill-opacity="1" stroke="#000000" stroke-opacity="1" stroke-width="3.2"/>
<path clip-path="url(#clip972)" d="M2124.85 1363.68 L2113.54 1358.99 L2108.85 1347.68 L2113.54 1336.37 L2124.85 1331.68 L2136.16 1336.37 L2140.85 1347.68 L2136.16 1358.99 Z" fill="#e26f46" fill-rule="evenodd" fill-opacity="1" stroke="#000000" stroke-opacity="1" stroke-width="3.2"/>
<path clip-path="url(#clip972)" d="M2207.73 1401.44 L2196.41 1396.75 L2191.73 1385.44 L2196.41 1374.13 L2207.73 1369.44 L2219.04 1374.13 L2223.73 1385.44 L2219.04 1396.75 Z" fill="#e26f46" fill-rule="evenodd" fill-opacity="1" stroke="#000000" stroke-opacity="1" stroke-width="3.2"/>
<path clip-path="url(#clip972)" d="M2290.6 1434.83 L2279.29 1430.14 L2274.6 1418.83 L2279.29 1407.51 L2290.6 1402.83 L2301.91 1407.51 L2306.6 1418.83 L2301.91 1430.14 Z" fill="#e26f46" fill-rule="evenodd" fill-opacity="1" stroke="#000000" stroke-opacity="1" stroke-width="3.2"/>
<path clip-path="url(#clip970)" d="M1604.29 250.738 L2279.55 250.738 L2279.55 95.2176 L1604.29 95.2176  Z" fill="#ffffff" fill-rule="evenodd" fill-opacity="1"/>
<polyline clip-path="url(#clip970)" style="stroke:#000000; stroke-linecap:round; stroke-linejoin:round; stroke-width:4; stroke-opacity:1; fill:none" points="1604.29,250.738 2279.55,250.738 2279.55,95.2176 1604.29,95.2176 1604.29,250.738 "/>
<polyline clip-path="url(#clip970)" style="stroke:#009af9; stroke-linecap:round; stroke-linejoin:round; stroke-width:4; stroke-opacity:1; fill:none" points="1628.69,147.058 1775.1,147.058 "/>
<path clip-path="url(#clip970)" d="M1701.9 169.652 L1685.92 163.032 L1679.3 147.058 L1685.92 131.083 L1701.9 124.463 L1717.87 131.083 L1724.49 147.058 L1717.87 163.032 Z" fill="#009af9" fill-rule="evenodd" fill-opacity="1" stroke="#000000" stroke-opacity="1" stroke-width="4.55111"/>
<path clip-path="url(#clip970)" d="M1799.5 129.778 L1828.74 129.778 L1828.74 133.713 L1816.47 133.713 L1816.47 164.338 L1811.77 164.338 L1811.77 133.713 L1799.5 133.713 L1799.5 129.778 Z" fill="#000000" fill-rule="nonzero" fill-opacity="1" /><path clip-path="url(#clip970)" d="M1841.12 142.393 Q1840.41 141.977 1839.55 141.791 Q1838.72 141.583 1837.7 141.583 Q1834.09 141.583 1832.14 143.944 Q1830.22 146.282 1830.22 150.68 L1830.22 164.338 L1825.94 164.338 L1825.94 138.412 L1830.22 138.412 L1830.22 142.44 Q1831.56 140.078 1833.72 138.944 Q1835.87 137.787 1838.95 137.787 Q1839.39 137.787 1839.92 137.856 Q1840.45 137.903 1841.1 138.018 L1841.12 142.393 Z" fill="#000000" fill-rule="nonzero" fill-opacity="1" /><path clip-path="url(#clip970)" d="M1854.6 141.398 Q1851.17 141.398 1849.18 144.083 Q1847.19 146.745 1847.19 151.398 Q1847.19 156.051 1849.16 158.736 Q1851.15 161.398 1854.6 161.398 Q1858 161.398 1859.99 158.713 Q1861.98 156.027 1861.98 151.398 Q1861.98 146.791 1859.99 144.106 Q1858 141.398 1854.6 141.398 M1854.6 137.787 Q1860.15 137.787 1863.32 141.398 Q1866.49 145.009 1866.49 151.398 Q1866.49 157.764 1863.32 161.398 Q1860.15 165.009 1854.6 165.009 Q1849.02 165.009 1845.85 161.398 Q1842.7 157.764 1842.7 151.398 Q1842.7 145.009 1845.85 141.398 Q1849.02 137.787 1854.6 137.787 Z" fill="#000000" fill-rule="nonzero" fill-opacity="1" /><path clip-path="url(#clip970)" d="M1877.77 131.051 L1877.77 138.412 L1886.54 138.412 L1886.54 141.722 L1877.77 141.722 L1877.77 155.796 Q1877.77 158.967 1878.62 159.87 Q1879.5 160.773 1882.16 160.773 L1886.54 160.773 L1886.54 164.338 L1882.16 164.338 Q1877.23 164.338 1875.36 162.509 Q1873.48 160.657 1873.48 155.796 L1873.48 141.722 L1870.36 141.722 L1870.36 138.412 L1873.48 138.412 L1873.48 131.051 L1877.77 131.051 Z" fill="#000000" fill-rule="nonzero" fill-opacity="1" /><path clip-path="url(#clip970)" d="M1896.35 131.051 L1896.35 138.412 L1905.13 138.412 L1905.13 141.722 L1896.35 141.722 L1896.35 155.796 Q1896.35 158.967 1897.21 159.87 Q1898.09 160.773 1900.75 160.773 L1905.13 160.773 L1905.13 164.338 L1900.75 164.338 Q1895.82 164.338 1893.95 162.509 Q1892.07 160.657 1892.07 155.796 L1892.07 141.722 L1888.95 141.722 L1888.95 138.412 L1892.07 138.412 L1892.07 131.051 L1896.35 131.051 Z" fill="#000000" fill-rule="nonzero" fill-opacity="1" /><path clip-path="url(#clip970)" d="M1932.91 150.31 L1932.91 152.393 L1913.32 152.393 Q1913.6 156.791 1915.96 159.106 Q1918.35 161.398 1922.58 161.398 Q1925.03 161.398 1927.33 160.796 Q1929.64 160.194 1931.91 158.99 L1931.91 163.018 Q1929.62 163.99 1927.21 164.5 Q1924.8 165.009 1922.33 165.009 Q1916.12 165.009 1912.49 161.398 Q1908.88 157.787 1908.88 151.629 Q1908.88 145.264 1912.3 141.537 Q1915.75 137.787 1921.59 137.787 Q1926.82 137.787 1929.85 141.166 Q1932.91 144.523 1932.91 150.31 M1928.65 149.06 Q1928.6 145.565 1926.68 143.481 Q1924.78 141.398 1921.63 141.398 Q1918.07 141.398 1915.91 143.412 Q1913.78 145.426 1913.46 149.083 L1928.65 149.06 Z" fill="#000000" fill-rule="nonzero" fill-opacity="1" /><path clip-path="url(#clip970)" d="M1954.92 142.393 Q1954.2 141.977 1953.34 141.791 Q1952.51 141.583 1951.49 141.583 Q1947.88 141.583 1945.94 143.944 Q1944.02 146.282 1944.02 150.68 L1944.02 164.338 L1939.73 164.338 L1939.73 138.412 L1944.02 138.412 L1944.02 142.44 Q1945.36 140.078 1947.51 138.944 Q1949.66 137.787 1952.74 137.787 Q1953.18 137.787 1953.72 137.856 Q1954.25 137.903 1954.9 138.018 L1954.92 142.393 Z" fill="#000000" fill-rule="nonzero" fill-opacity="1" /><path clip-path="url(#clip970)" d="M1954.2 149.453 L1966.68 149.453 L1966.68 153.25 L1954.2 153.25 L1954.2 149.453 Z" fill="#000000" fill-rule="nonzero" fill-opacity="1" /><path clip-path="url(#clip970)" d="M1973.46 138.412 L1977.72 138.412 L1977.72 164.338 L1973.46 164.338 L1973.46 138.412 M1973.46 128.319 L1977.72 128.319 L1977.72 133.713 L1973.46 133.713 L1973.46 128.319 Z" fill="#000000" fill-rule="nonzero" fill-opacity="1" /><path clip-path="url(#clip970)" d="M2008.18 148.689 L2008.18 164.338 L2003.92 164.338 L2003.92 148.828 Q2003.92 145.148 2002.49 143.319 Q2001.05 141.49 1998.18 141.49 Q1994.73 141.49 1992.74 143.69 Q1990.75 145.889 1990.75 149.685 L1990.75 164.338 L1986.47 164.338 L1986.47 138.412 L1990.75 138.412 L1990.75 142.44 Q1992.28 140.102 1994.34 138.944 Q1996.42 137.787 1999.13 137.787 Q2003.6 137.787 2005.89 140.565 Q2008.18 143.319 2008.18 148.689 Z" fill="#000000" fill-rule="nonzero" fill-opacity="1" /><path clip-path="url(#clip970)" d="M2035.34 139.407 L2035.34 143.389 Q2033.53 142.393 2031.7 141.907 Q2029.9 141.398 2028.04 141.398 Q2023.9 141.398 2021.61 144.037 Q2019.32 146.652 2019.32 151.398 Q2019.32 156.143 2021.61 158.782 Q2023.9 161.398 2028.04 161.398 Q2029.9 161.398 2031.7 160.912 Q2033.53 160.402 2035.34 159.407 L2035.34 163.342 Q2033.55 164.176 2031.63 164.592 Q2029.73 165.009 2027.58 165.009 Q2021.72 165.009 2018.28 161.328 Q2014.83 157.648 2014.83 151.398 Q2014.83 145.055 2018.3 141.421 Q2021.79 137.787 2027.86 137.787 Q2029.83 137.787 2031.7 138.203 Q2033.58 138.597 2035.34 139.407 Z" fill="#000000" fill-rule="nonzero" fill-opacity="1" /><path clip-path="url(#clip970)" d="M2052.79 141.398 Q2049.36 141.398 2047.37 144.083 Q2045.38 146.745 2045.38 151.398 Q2045.38 156.051 2047.35 158.736 Q2049.34 161.398 2052.79 161.398 Q2056.19 161.398 2058.18 158.713 Q2060.17 156.027 2060.17 151.398 Q2060.17 146.791 2058.18 144.106 Q2056.19 141.398 2052.79 141.398 M2052.79 137.787 Q2058.34 137.787 2061.52 141.398 Q2064.69 145.009 2064.69 151.398 Q2064.69 157.764 2061.52 161.398 Q2058.34 165.009 2052.79 165.009 Q2047.21 165.009 2044.04 161.398 Q2040.89 157.764 2040.89 151.398 Q2040.89 145.009 2044.04 141.398 Q2047.21 137.787 2052.79 137.787 Z" fill="#000000" fill-rule="nonzero" fill-opacity="1" /><path clip-path="url(#clip970)" d="M2093.3 148.689 L2093.3 164.338 L2089.04 164.338 L2089.04 148.828 Q2089.04 145.148 2087.6 143.319 Q2086.17 141.49 2083.3 141.49 Q2079.85 141.49 2077.86 143.69 Q2075.87 145.889 2075.87 149.685 L2075.87 164.338 L2071.59 164.338 L2071.59 138.412 L2075.87 138.412 L2075.87 142.44 Q2077.4 140.102 2079.46 138.944 Q2081.54 137.787 2084.25 137.787 Q2088.71 137.787 2091.01 140.565 Q2093.3 143.319 2093.3 148.689 Z" fill="#000000" fill-rule="nonzero" fill-opacity="1" /><path clip-path="url(#clip970)" d="M2118.32 139.176 L2118.32 143.203 Q2116.52 142.277 2114.57 141.815 Q2112.63 141.352 2110.54 141.352 Q2107.37 141.352 2105.77 142.324 Q2104.2 143.296 2104.2 145.24 Q2104.2 146.722 2105.33 147.578 Q2106.47 148.412 2109.9 149.176 L2111.35 149.5 Q2115.89 150.472 2117.79 152.254 Q2119.71 154.014 2119.71 157.185 Q2119.71 160.796 2116.84 162.902 Q2113.99 165.009 2108.99 165.009 Q2106.91 165.009 2104.64 164.592 Q2102.4 164.199 2099.9 163.388 L2099.9 158.99 Q2102.26 160.217 2104.55 160.842 Q2106.84 161.444 2109.08 161.444 Q2112.09 161.444 2113.71 160.426 Q2115.33 159.384 2115.33 157.509 Q2115.33 155.773 2114.15 154.847 Q2113 153.921 2109.04 153.064 L2107.56 152.717 Q2103.6 151.884 2101.84 150.171 Q2100.08 148.435 2100.08 145.426 Q2100.08 141.768 2102.67 139.778 Q2105.27 137.787 2110.03 137.787 Q2112.4 137.787 2114.48 138.134 Q2116.56 138.481 2118.32 139.176 Z" fill="#000000" fill-rule="nonzero" fill-opacity="1" /><path clip-path="url(#clip970)" d="M2126.49 138.412 L2130.75 138.412 L2130.75 164.338 L2126.49 164.338 L2126.49 138.412 M2126.49 128.319 L2130.75 128.319 L2130.75 133.713 L2126.49 133.713 L2126.49 128.319 Z" fill="#000000" fill-rule="nonzero" fill-opacity="1" /><path clip-path="url(#clip970)" d="M2156.19 139.176 L2156.19 143.203 Q2154.39 142.277 2152.44 141.815 Q2150.5 141.352 2148.41 141.352 Q2145.24 141.352 2143.64 142.324 Q2142.07 143.296 2142.07 145.24 Q2142.07 146.722 2143.21 147.578 Q2144.34 148.412 2147.77 149.176 L2149.22 149.5 Q2153.76 150.472 2155.66 152.254 Q2157.58 154.014 2157.58 157.185 Q2157.58 160.796 2154.71 162.902 Q2151.86 165.009 2146.86 165.009 Q2144.78 165.009 2142.51 164.592 Q2140.27 164.199 2137.77 163.388 L2137.77 158.99 Q2140.13 160.217 2142.42 160.842 Q2144.71 161.444 2146.96 161.444 Q2149.96 161.444 2151.58 160.426 Q2153.2 159.384 2153.2 157.509 Q2153.2 155.773 2152.02 154.847 Q2150.87 153.921 2146.91 153.064 L2145.43 152.717 Q2141.47 151.884 2139.71 150.171 Q2137.95 148.435 2137.95 145.426 Q2137.95 141.768 2140.54 139.778 Q2143.14 137.787 2147.9 137.787 Q2150.27 137.787 2152.35 138.134 Q2154.43 138.481 2156.19 139.176 Z" fill="#000000" fill-rule="nonzero" fill-opacity="1" /><path clip-path="url(#clip970)" d="M2168.58 131.051 L2168.58 138.412 L2177.35 138.412 L2177.35 141.722 L2168.58 141.722 L2168.58 155.796 Q2168.58 158.967 2169.43 159.87 Q2170.31 160.773 2172.97 160.773 L2177.35 160.773 L2177.35 164.338 L2172.97 164.338 Q2168.04 164.338 2166.17 162.509 Q2164.29 160.657 2164.29 155.796 L2164.29 141.722 L2161.17 141.722 L2161.17 138.412 L2164.29 138.412 L2164.29 131.051 L2168.58 131.051 Z" fill="#000000" fill-rule="nonzero" fill-opacity="1" /><path clip-path="url(#clip970)" d="M2205.13 150.31 L2205.13 152.393 L2185.54 152.393 Q2185.82 156.791 2188.18 159.106 Q2190.57 161.398 2194.8 161.398 Q2197.26 161.398 2199.55 160.796 Q2201.86 160.194 2204.13 158.99 L2204.13 163.018 Q2201.84 163.99 2199.43 164.5 Q2197.02 165.009 2194.55 165.009 Q2188.34 165.009 2184.71 161.398 Q2181.1 157.787 2181.1 151.629 Q2181.1 145.264 2184.52 141.537 Q2187.97 137.787 2193.81 137.787 Q2199.04 137.787 2202.07 141.166 Q2205.13 144.523 2205.13 150.31 M2200.87 149.06 Q2200.82 145.565 2198.9 143.481 Q2197 141.398 2193.85 141.398 Q2190.29 141.398 2188.14 143.412 Q2186.01 145.426 2185.68 149.083 L2200.87 149.06 Z" fill="#000000" fill-rule="nonzero" fill-opacity="1" /><path clip-path="url(#clip970)" d="M2233.67 148.689 L2233.67 164.338 L2229.41 164.338 L2229.41 148.828 Q2229.41 145.148 2227.97 143.319 Q2226.54 141.49 2223.67 141.49 Q2220.22 141.49 2218.23 143.69 Q2216.24 145.889 2216.24 149.685 L2216.24 164.338 L2211.95 164.338 L2211.95 138.412 L2216.24 138.412 L2216.24 142.44 Q2217.76 140.102 2219.83 138.944 Q2221.91 137.787 2224.62 137.787 Q2229.08 137.787 2231.38 140.565 Q2233.67 143.319 2233.67 148.689 Z" fill="#000000" fill-rule="nonzero" fill-opacity="1" /><path clip-path="url(#clip970)" d="M2246.38 131.051 L2246.38 138.412 L2255.15 138.412 L2255.15 141.722 L2246.38 141.722 L2246.38 155.796 Q2246.38 158.967 2247.23 159.87 Q2248.11 160.773 2250.77 160.773 L2255.15 160.773 L2255.15 164.338 L2250.77 164.338 Q2245.84 164.338 2243.97 162.509 Q2242.09 160.657 2242.09 155.796 L2242.09 141.722 L2238.97 141.722 L2238.97 138.412 L2242.09 138.412 L2242.09 131.051 L2246.38 131.051 Z" fill="#000000" fill-rule="nonzero" fill-opacity="1" /><polyline clip-path="url(#clip970)" style="stroke:#e26f46; stroke-linecap:round; stroke-linejoin:round; stroke-width:4; stroke-opacity:1; fill:none" points="1628.69,198.898 1775.1,198.898 "/>
<path clip-path="url(#clip970)" d="M1701.9 221.492 L1685.92 214.872 L1679.3 198.898 L1685.92 182.923 L1701.9 176.303 L1717.87 182.923 L1724.49 198.898 L1717.87 214.872 Z" fill="#e26f46" fill-rule="evenodd" fill-opacity="1" stroke="#000000" stroke-opacity="1" stroke-width="4.55111"/>
<path clip-path="url(#clip970)" d="M1799.5 181.618 L1828.74 181.618 L1828.74 185.553 L1816.47 185.553 L1816.47 216.178 L1811.77 216.178 L1811.77 185.553 L1799.5 185.553 L1799.5 181.618 Z" fill="#000000" fill-rule="nonzero" fill-opacity="1" /><path clip-path="url(#clip970)" d="M1841.12 194.233 Q1840.41 193.817 1839.55 193.631 Q1838.72 193.423 1837.7 193.423 Q1834.09 193.423 1832.14 195.784 Q1830.22 198.122 1830.22 202.52 L1830.22 216.178 L1825.94 216.178 L1825.94 190.252 L1830.22 190.252 L1830.22 194.28 Q1831.56 191.918 1833.72 190.784 Q1835.87 189.627 1838.95 189.627 Q1839.39 189.627 1839.92 189.696 Q1840.45 189.743 1841.1 189.858 L1841.12 194.233 Z" fill="#000000" fill-rule="nonzero" fill-opacity="1" /><path clip-path="url(#clip970)" d="M1854.6 193.238 Q1851.17 193.238 1849.18 195.923 Q1847.19 198.585 1847.19 203.238 Q1847.19 207.891 1849.16 210.576 Q1851.15 213.238 1854.6 213.238 Q1858 213.238 1859.99 210.553 Q1861.98 207.867 1861.98 203.238 Q1861.98 198.631 1859.99 195.946 Q1858 193.238 1854.6 193.238 M1854.6 189.627 Q1860.15 189.627 1863.32 193.238 Q1866.49 196.849 1866.49 203.238 Q1866.49 209.604 1863.32 213.238 Q1860.15 216.849 1854.6 216.849 Q1849.02 216.849 1845.85 213.238 Q1842.7 209.604 1842.7 203.238 Q1842.7 196.849 1845.85 193.238 Q1849.02 189.627 1854.6 189.627 Z" fill="#000000" fill-rule="nonzero" fill-opacity="1" /><path clip-path="url(#clip970)" d="M1877.77 182.891 L1877.77 190.252 L1886.54 190.252 L1886.54 193.562 L1877.77 193.562 L1877.77 207.636 Q1877.77 210.807 1878.62 211.71 Q1879.5 212.613 1882.16 212.613 L1886.54 212.613 L1886.54 216.178 L1882.16 216.178 Q1877.23 216.178 1875.36 214.349 Q1873.48 212.497 1873.48 207.636 L1873.48 193.562 L1870.36 193.562 L1870.36 190.252 L1873.48 190.252 L1873.48 182.891 L1877.77 182.891 Z" fill="#000000" fill-rule="nonzero" fill-opacity="1" /><path clip-path="url(#clip970)" d="M1896.35 182.891 L1896.35 190.252 L1905.13 190.252 L1905.13 193.562 L1896.35 193.562 L1896.35 207.636 Q1896.35 210.807 1897.21 211.71 Q1898.09 212.613 1900.75 212.613 L1905.13 212.613 L1905.13 216.178 L1900.75 216.178 Q1895.82 216.178 1893.95 214.349 Q1892.07 212.497 1892.07 207.636 L1892.07 193.562 L1888.95 193.562 L1888.95 190.252 L1892.07 190.252 L1892.07 182.891 L1896.35 182.891 Z" fill="#000000" fill-rule="nonzero" fill-opacity="1" /><path clip-path="url(#clip970)" d="M1932.91 202.15 L1932.91 204.233 L1913.32 204.233 Q1913.6 208.631 1915.96 210.946 Q1918.35 213.238 1922.58 213.238 Q1925.03 213.238 1927.33 212.636 Q1929.64 212.034 1931.91 210.83 L1931.91 214.858 Q1929.62 215.83 1927.21 216.34 Q1924.8 216.849 1922.33 216.849 Q1916.12 216.849 1912.49 213.238 Q1908.88 209.627 1908.88 203.469 Q1908.88 197.104 1912.3 193.377 Q1915.75 189.627 1921.59 189.627 Q1926.82 189.627 1929.85 193.006 Q1932.91 196.363 1932.91 202.15 M1928.65 200.9 Q1928.6 197.405 1926.68 195.321 Q1924.78 193.238 1921.63 193.238 Q1918.07 193.238 1915.91 195.252 Q1913.78 197.266 1913.46 200.923 L1928.65 200.9 Z" fill="#000000" fill-rule="nonzero" fill-opacity="1" /><path clip-path="url(#clip970)" d="M1954.92 194.233 Q1954.2 193.817 1953.34 193.631 Q1952.51 193.423 1951.49 193.423 Q1947.88 193.423 1945.94 195.784 Q1944.02 198.122 1944.02 202.52 L1944.02 216.178 L1939.73 216.178 L1939.73 190.252 L1944.02 190.252 L1944.02 194.28 Q1945.36 191.918 1947.51 190.784 Q1949.66 189.627 1952.74 189.627 Q1953.18 189.627 1953.72 189.696 Q1954.25 189.743 1954.9 189.858 L1954.92 194.233 Z" fill="#000000" fill-rule="nonzero" fill-opacity="1" /><path clip-path="url(#clip970)" d="M1954.2 201.293 L1966.68 201.293 L1966.68 205.09 L1954.2 205.09 L1954.2 201.293 Z" fill="#000000" fill-rule="nonzero" fill-opacity="1" /><path clip-path="url(#clip970)" d="M1992.12 191.247 L1992.12 195.229 Q1990.31 194.233 1988.48 193.747 Q1986.68 193.238 1984.83 193.238 Q1980.68 193.238 1978.39 195.877 Q1976.1 198.492 1976.1 203.238 Q1976.1 207.983 1978.39 210.622 Q1980.68 213.238 1984.83 213.238 Q1986.68 213.238 1988.48 212.752 Q1990.31 212.242 1992.12 211.247 L1992.12 215.182 Q1990.34 216.016 1988.41 216.432 Q1986.52 216.849 1984.36 216.849 Q1978.51 216.849 1975.06 213.168 Q1971.61 209.488 1971.61 203.238 Q1971.61 196.895 1975.08 193.261 Q1978.58 189.627 1984.64 189.627 Q1986.61 189.627 1988.48 190.043 Q1990.36 190.437 1992.12 191.247 Z" fill="#000000" fill-rule="nonzero" fill-opacity="1" /><path clip-path="url(#clip970)" d="M2009.57 193.238 Q2006.15 193.238 2004.15 195.923 Q2002.16 198.585 2002.16 203.238 Q2002.16 207.891 2004.13 210.576 Q2006.12 213.238 2009.57 213.238 Q2012.97 213.238 2014.96 210.553 Q2016.96 207.867 2016.96 203.238 Q2016.96 198.631 2014.96 195.946 Q2012.97 193.238 2009.57 193.238 M2009.57 189.627 Q2015.13 189.627 2018.3 193.238 Q2021.47 196.849 2021.47 203.238 Q2021.47 209.604 2018.3 213.238 Q2015.13 216.849 2009.57 216.849 Q2003.99 216.849 2000.82 213.238 Q1997.67 209.604 1997.67 203.238 Q1997.67 196.849 2000.82 193.238 Q2003.99 189.627 2009.57 189.627 Z" fill="#000000" fill-rule="nonzero" fill-opacity="1" /><path clip-path="url(#clip970)" d="M2050.08 200.529 L2050.08 216.178 L2045.82 216.178 L2045.82 200.668 Q2045.82 196.988 2044.39 195.159 Q2042.95 193.33 2040.08 193.33 Q2036.63 193.33 2034.64 195.53 Q2032.65 197.729 2032.65 201.525 L2032.65 216.178 L2028.37 216.178 L2028.37 190.252 L2032.65 190.252 L2032.65 194.28 Q2034.18 191.942 2036.24 190.784 Q2038.32 189.627 2041.03 189.627 Q2045.5 189.627 2047.79 192.405 Q2050.08 195.159 2050.08 200.529 Z" fill="#000000" fill-rule="nonzero" fill-opacity="1" /><path clip-path="url(#clip970)" d="M2075.1 191.016 L2075.1 195.043 Q2073.3 194.117 2071.35 193.655 Q2069.41 193.192 2067.33 193.192 Q2064.15 193.192 2062.56 194.164 Q2060.98 195.136 2060.98 197.08 Q2060.98 198.562 2062.12 199.418 Q2063.25 200.252 2066.68 201.016 L2068.14 201.34 Q2072.67 202.312 2074.57 204.094 Q2076.49 205.854 2076.49 209.025 Q2076.49 212.636 2073.62 214.742 Q2070.77 216.849 2065.77 216.849 Q2063.69 216.849 2061.42 216.432 Q2059.18 216.039 2056.68 215.228 L2056.68 210.83 Q2059.04 212.057 2061.33 212.682 Q2063.62 213.284 2065.87 213.284 Q2068.88 213.284 2070.5 212.266 Q2072.12 211.224 2072.12 209.349 Q2072.12 207.613 2070.94 206.687 Q2069.78 205.761 2065.82 204.904 L2064.34 204.557 Q2060.38 203.724 2058.62 202.011 Q2056.86 200.275 2056.86 197.266 Q2056.86 193.608 2059.46 191.618 Q2062.05 189.627 2066.82 189.627 Q2069.18 189.627 2071.26 189.974 Q2073.34 190.321 2075.1 191.016 Z" fill="#000000" fill-rule="nonzero" fill-opacity="1" /><path clip-path="url(#clip970)" d="M2083.27 190.252 L2087.53 190.252 L2087.53 216.178 L2083.27 216.178 L2083.27 190.252 M2083.27 180.159 L2087.53 180.159 L2087.53 185.553 L2083.27 185.553 L2083.27 180.159 Z" fill="#000000" fill-rule="nonzero" fill-opacity="1" /><path clip-path="url(#clip970)" d="M2112.97 191.016 L2112.97 195.043 Q2111.17 194.117 2109.22 193.655 Q2107.28 193.192 2105.2 193.192 Q2102.02 193.192 2100.43 194.164 Q2098.85 195.136 2098.85 197.08 Q2098.85 198.562 2099.99 199.418 Q2101.12 200.252 2104.55 201.016 L2106.01 201.34 Q2110.54 202.312 2112.44 204.094 Q2114.36 205.854 2114.36 209.025 Q2114.36 212.636 2111.49 214.742 Q2108.65 216.849 2103.65 216.849 Q2101.56 216.849 2099.29 216.432 Q2097.05 216.039 2094.55 215.228 L2094.55 210.83 Q2096.91 212.057 2099.2 212.682 Q2101.49 213.284 2103.74 213.284 Q2106.75 213.284 2108.37 212.266 Q2109.99 211.224 2109.99 209.349 Q2109.99 207.613 2108.81 206.687 Q2107.65 205.761 2103.69 204.904 L2102.21 204.557 Q2098.25 203.724 2096.49 202.011 Q2094.73 200.275 2094.73 197.266 Q2094.73 193.608 2097.33 191.618 Q2099.92 189.627 2104.69 189.627 Q2107.05 189.627 2109.13 189.974 Q2111.21 190.321 2112.97 191.016 Z" fill="#000000" fill-rule="nonzero" fill-opacity="1" /><path clip-path="url(#clip970)" d="M2125.36 182.891 L2125.36 190.252 L2134.13 190.252 L2134.13 193.562 L2125.36 193.562 L2125.36 207.636 Q2125.36 210.807 2126.21 211.71 Q2127.09 212.613 2129.76 212.613 L2134.13 212.613 L2134.13 216.178 L2129.76 216.178 Q2124.83 216.178 2122.95 214.349 Q2121.08 212.497 2121.08 207.636 L2121.08 193.562 L2117.95 193.562 L2117.95 190.252 L2121.08 190.252 L2121.08 182.891 L2125.36 182.891 Z" fill="#000000" fill-rule="nonzero" fill-opacity="1" /><path clip-path="url(#clip970)" d="M2161.91 202.15 L2161.91 204.233 L2142.33 204.233 Q2142.6 208.631 2144.96 210.946 Q2147.35 213.238 2151.58 213.238 Q2154.04 213.238 2156.33 212.636 Q2158.64 212.034 2160.91 210.83 L2160.91 214.858 Q2158.62 215.83 2156.21 216.34 Q2153.81 216.849 2151.33 216.849 Q2145.13 216.849 2141.49 213.238 Q2137.88 209.627 2137.88 203.469 Q2137.88 197.104 2141.31 193.377 Q2144.76 189.627 2150.59 189.627 Q2155.82 189.627 2158.85 193.006 Q2161.91 196.363 2161.91 202.15 M2157.65 200.9 Q2157.6 197.405 2155.68 195.321 Q2153.78 193.238 2150.64 193.238 Q2147.07 193.238 2144.92 195.252 Q2142.79 197.266 2142.46 200.923 L2157.65 200.9 Z" fill="#000000" fill-rule="nonzero" fill-opacity="1" /><path clip-path="url(#clip970)" d="M2190.45 200.529 L2190.45 216.178 L2186.19 216.178 L2186.19 200.668 Q2186.19 196.988 2184.76 195.159 Q2183.32 193.33 2180.45 193.33 Q2177 193.33 2175.01 195.53 Q2173.02 197.729 2173.02 201.525 L2173.02 216.178 L2168.74 216.178 L2168.74 190.252 L2173.02 190.252 L2173.02 194.28 Q2174.55 191.942 2176.61 190.784 Q2178.69 189.627 2181.4 189.627 Q2185.87 189.627 2188.16 192.405 Q2190.45 195.159 2190.45 200.529 Z" fill="#000000" fill-rule="nonzero" fill-opacity="1" /><path clip-path="url(#clip970)" d="M2203.16 182.891 L2203.16 190.252 L2211.93 190.252 L2211.93 193.562 L2203.16 193.562 L2203.16 207.636 Q2203.16 210.807 2204.01 211.71 Q2204.89 212.613 2207.56 212.613 L2211.93 212.613 L2211.93 216.178 L2207.56 216.178 Q2202.63 216.178 2200.75 214.349 Q2198.88 212.497 2198.88 207.636 L2198.88 193.562 L2195.75 193.562 L2195.75 190.252 L2198.88 190.252 L2198.88 182.891 L2203.16 182.891 Z" fill="#000000" fill-rule="nonzero" fill-opacity="1" /></svg>
