<?xml version="1.0" encoding="utf-8"?>
<svg xmlns="http://www.w3.org/2000/svg" xmlns:xlink="http://www.w3.org/1999/xlink" width="1200" height="500" viewBox="0 0 4800 2000">
<defs>
  <clipPath id="clip450">
    <rect x="0" y="0" width="4800" height="2000"/>
  </clipPath>
</defs>
<path clip-path="url(#clip450)" d="M0 2000 L4800 2000 L4800 0 L0 0  Z" fill="#ffffff" fill-rule="evenodd" fill-opacity="1"/>
<defs>
  <clipPath id="clip451">
    <rect x="960" y="0" width="3361" height="2000"/>
  </clipPath>
</defs>
<path clip-path="url(#clip450)" d="M269.802 1786.97 L1466.57 1786.97 L1466.57 210.236 L269.802 210.236  Z" fill="#ffffff" fill-rule="evenodd" fill-opacity="1"/>
<defs>
  <clipPath id="clip452">
    <rect x="269" y="210" width="1198" height="1578"/>
  </clipPath>
</defs>
<polyline clip-path="url(#clip452)" style="stroke:#000000; stroke-linecap:round; stroke-linejoin:round; stroke-width:2; stroke-opacity:0.1; fill:none" points="303.673,1786.97 303.673,210.236 "/>
<polyline clip-path="url(#clip452)" style="stroke:#000000; stroke-linecap:round; stroke-linejoin:round; stroke-width:2; stroke-opacity:0.1; fill:none" points="680.016,1786.97 680.016,210.236 "/>
<polyline clip-path="url(#clip452)" style="stroke:#000000; stroke-linecap:round; stroke-linejoin:round; stroke-width:2; stroke-opacity:0.1; fill:none" points="1056.36,1786.97 1056.36,210.236 "/>
<polyline clip-path="url(#clip452)" style="stroke:#000000; stroke-linecap:round; stroke-linejoin:round; stroke-width:2; stroke-opacity:0.1; fill:none" points="1432.7,1786.97 1432.7,210.236 "/>
<polyline clip-path="url(#clip452)" style="stroke:#000000; stroke-linecap:round; stroke-linejoin:round; stroke-width:2; stroke-opacity:0.1; fill:none" points="269.802,1484.28 1466.57,1484.28 "/>
<polyline clip-path="url(#clip452)" style="stroke:#000000; stroke-linecap:round; stroke-linejoin:round; stroke-width:2; stroke-opacity:0.1; fill:none" points="269.802,1176.93 1466.57,1176.93 "/>
<polyline clip-path="url(#clip452)" style="stroke:#000000; stroke-linecap:round; stroke-linejoin:round; stroke-width:2; stroke-opacity:0.1; fill:none" points="269.802,869.572 1466.57,869.572 "/>
<polyline clip-path="url(#clip452)" style="stroke:#000000; stroke-linecap:round; stroke-linejoin:round; stroke-width:2; stroke-opacity:0.1; fill:none" points="269.802,562.216 1466.57,562.216 "/>
<polyline clip-path="url(#clip452)" style="stroke:#000000; stroke-linecap:round; stroke-linejoin:round; stroke-width:2; stroke-opacity:0.1; fill:none" points="269.802,254.861 1466.57,254.861 "/>
<polyline clip-path="url(#clip450)" style="stroke:#000000; stroke-linecap:round; stroke-linejoin:round; stroke-width:4; stroke-opacity:1; fill:none" points="269.802,1786.97 1466.57,1786.97 "/>
<polyline clip-path="url(#clip450)" style="stroke:#000000; stroke-linecap:round; stroke-linejoin:round; stroke-width:4; stroke-opacity:1; fill:none" points="303.673,1786.97 303.673,1768.07 "/>
<polyline clip-path="url(#clip450)" style="stroke:#000000; stroke-linecap:round; stroke-linejoin:round; stroke-width:4; stroke-opacity:1; fill:none" points="680.016,1786.97 680.016,1768.07 "/>
<polyline clip-path="url(#clip450)" style="stroke:#000000; stroke-linecap:round; stroke-linejoin:round; stroke-width:4; stroke-opacity:1; fill:none" points="1056.36,1786.97 1056.36,1768.07 "/>
<polyline clip-path="url(#clip450)" style="stroke:#000000; stroke-linecap:round; stroke-linejoin:round; stroke-width:4; stroke-opacity:1; fill:none" points="1432.7,1786.97 1432.7,1768.07 "/>
<path clip-path="url(#clip450)" d="M281.058 1837.09 Q277.447 1837.09 275.618 1840.65 Q273.812 1844.19 273.812 1851.32 Q273.812 1858.43 275.618 1861.99 Q277.447 1865.54 281.058 1865.54 Q284.692 1865.54 286.497 1861.99 Q288.326 1858.43 288.326 1851.32 Q288.326 1844.19 286.497 1840.65 Q284.692 1837.09 281.058 1837.09 M281.058 1833.38 Q286.868 1833.38 289.923 1837.99 Q293.002 1842.57 293.002 1851.32 Q293.002 1860.05 289.923 1864.66 Q286.868 1869.24 281.058 1869.24 Q275.247 1869.24 272.169 1864.66 Q269.113 1860.05 269.113 1851.32 Q269.113 1842.57 272.169 1837.99 Q275.247 1833.38 281.058 1833.38 Z" fill="#000000" fill-rule="nonzero" fill-opacity="1" /><path clip-path="url(#clip450)" d="M301.22 1862.69 L306.104 1862.69 L306.104 1868.57 L301.22 1868.57 L301.22 1862.69 Z" fill="#000000" fill-rule="nonzero" fill-opacity="1" /><path clip-path="url(#clip450)" d="M326.289 1837.09 Q322.678 1837.09 320.849 1840.65 Q319.044 1844.19 319.044 1851.32 Q319.044 1858.43 320.849 1861.99 Q322.678 1865.54 326.289 1865.54 Q329.923 1865.54 331.729 1861.99 Q333.557 1858.43 333.557 1851.32 Q333.557 1844.19 331.729 1840.65 Q329.923 1837.09 326.289 1837.09 M326.289 1833.38 Q332.099 1833.38 335.155 1837.99 Q338.233 1842.57 338.233 1851.32 Q338.233 1860.05 335.155 1864.66 Q332.099 1869.24 326.289 1869.24 Q320.479 1869.24 317.4 1864.66 Q314.344 1860.05 314.344 1851.32 Q314.344 1842.57 317.4 1837.99 Q320.479 1833.38 326.289 1833.38 Z" fill="#000000" fill-rule="nonzero" fill-opacity="1" /><path clip-path="url(#clip450)" d="M657.898 1837.09 Q654.287 1837.09 652.459 1840.65 Q650.653 1844.19 650.653 1851.32 Q650.653 1858.43 652.459 1861.99 Q654.287 1865.54 657.898 1865.54 Q661.533 1865.54 663.338 1861.99 Q665.167 1858.43 665.167 1851.32 Q665.167 1844.19 663.338 1840.65 Q661.533 1837.09 657.898 1837.09 M657.898 1833.38 Q663.709 1833.38 666.764 1837.99 Q669.843 1842.57 669.843 1851.32 Q669.843 1860.05 666.764 1864.66 Q663.709 1869.24 657.898 1869.24 Q652.088 1869.24 649.01 1864.66 Q645.954 1860.05 645.954 1851.32 Q645.954 1842.57 649.01 1837.99 Q652.088 1833.38 657.898 1833.38 Z" fill="#000000" fill-rule="nonzero" fill-opacity="1" /><path clip-path="url(#clip450)" d="M678.06 1862.69 L682.945 1862.69 L682.945 1868.57 L678.06 1868.57 L678.06 1862.69 Z" fill="#000000" fill-rule="nonzero" fill-opacity="1" /><path clip-path="url(#clip450)" d="M693.176 1834.01 L711.532 1834.01 L711.532 1837.94 L697.458 1837.94 L697.458 1846.42 Q698.477 1846.07 699.495 1845.91 Q700.514 1845.72 701.532 1845.72 Q707.319 1845.72 710.699 1848.89 Q714.079 1852.06 714.079 1857.48 Q714.079 1863.06 710.606 1866.16 Q707.134 1869.24 700.815 1869.24 Q698.639 1869.24 696.37 1868.87 Q694.125 1868.5 691.718 1867.76 L691.718 1863.06 Q693.801 1864.19 696.023 1864.75 Q698.245 1865.3 700.722 1865.3 Q704.727 1865.3 707.065 1863.2 Q709.403 1861.09 709.403 1857.48 Q709.403 1853.87 707.065 1851.76 Q704.727 1849.66 700.722 1849.66 Q698.847 1849.66 696.972 1850.07 Q695.12 1850.49 693.176 1851.37 L693.176 1834.01 Z" fill="#000000" fill-rule="nonzero" fill-opacity="1" /><path clip-path="url(#clip450)" d="M1023.51 1864.63 L1031.15 1864.63 L1031.15 1838.27 L1022.84 1839.93 L1022.84 1835.67 L1031.1 1834.01 L1035.78 1834.01 L1035.78 1864.63 L1043.42 1864.63 L1043.42 1868.57 L1023.51 1868.57 L1023.51 1864.63 Z" fill="#000000" fill-rule="nonzero" fill-opacity="1" /><path clip-path="url(#clip450)" d="M1052.86 1862.69 L1057.75 1862.69 L1057.75 1868.57 L1052.86 1868.57 L1052.86 1862.69 Z" fill="#000000" fill-rule="nonzero" fill-opacity="1" /><path clip-path="url(#clip450)" d="M1077.93 1837.09 Q1074.32 1837.09 1072.49 1840.65 Q1070.69 1844.19 1070.69 1851.32 Q1070.69 1858.43 1072.49 1861.99 Q1074.32 1865.54 1077.93 1865.54 Q1081.57 1865.54 1083.37 1861.99 Q1085.2 1858.43 1085.2 1851.32 Q1085.2 1844.19 1083.37 1840.65 Q1081.57 1837.09 1077.93 1837.09 M1077.93 1833.38 Q1083.74 1833.38 1086.8 1837.99 Q1089.88 1842.57 1089.88 1851.32 Q1089.88 1860.05 1086.8 1864.66 Q1083.74 1869.24 1077.93 1869.24 Q1072.12 1869.24 1069.04 1864.66 Q1065.99 1860.05 1065.99 1851.32 Q1065.99 1842.57 1069.04 1837.99 Q1072.12 1833.38 1077.93 1833.38 Z" fill="#000000" fill-rule="nonzero" fill-opacity="1" /><path clip-path="url(#clip450)" d="M1400.35 1864.63 L1407.99 1864.63 L1407.99 1838.27 L1399.68 1839.93 L1399.68 1835.67 L1407.95 1834.01 L1412.62 1834.01 L1412.62 1864.63 L1420.26 1864.63 L1420.26 1868.57 L1400.35 1868.57 L1400.35 1864.63 Z" fill="#000000" fill-rule="nonzero" fill-opacity="1" /><path clip-path="url(#clip450)" d="M1429.7 1862.69 L1434.59 1862.69 L1434.59 1868.57 L1429.7 1868.57 L1429.7 1862.69 Z" fill="#000000" fill-rule="nonzero" fill-opacity="1" /><path clip-path="url(#clip450)" d="M1444.82 1834.01 L1463.18 1834.01 L1463.18 1837.94 L1449.1 1837.94 L1449.1 1846.42 Q1450.12 1846.07 1451.14 1845.91 Q1452.16 1845.72 1453.18 1845.72 Q1458.96 1845.72 1462.34 1848.89 Q1465.72 1852.06 1465.72 1857.48 Q1465.72 1863.06 1462.25 1866.16 Q1458.78 1869.24 1452.46 1869.24 Q1450.28 1869.24 1448.01 1868.87 Q1445.77 1868.5 1443.36 1867.76 L1443.36 1863.06 Q1445.45 1864.19 1447.67 1864.75 Q1449.89 1865.3 1452.37 1865.3 Q1456.37 1865.3 1458.71 1863.2 Q1461.05 1861.09 1461.05 1857.48 Q1461.05 1853.87 1458.71 1851.76 Q1456.37 1849.66 1452.37 1849.66 Q1450.49 1849.66 1448.62 1850.07 Q1446.76 1850.49 1444.82 1851.37 L1444.82 1834.01 Z" fill="#000000" fill-rule="nonzero" fill-opacity="1" /><path clip-path="url(#clip450)" d="M858.671 1965.64 L858.671 1981.39 L852.783 1981.39 L852.783 1932.41 Q852.783 1917.89 866.342 1917.89 Q880.155 1917.89 880.155 1930.15 Q880.155 1938.87 874.681 1942.05 Q883.593 1944.92 883.593 1953.41 Q883.593 1968.5 868.252 1968.5 Q861.504 1968.5 858.671 1965.64 M858.671 1958 Q862.204 1963.5 868.474 1963.5 Q877.641 1963.5 877.641 1953.51 Q877.641 1944.53 862.872 1945.23 L862.872 1939.82 Q874.426 1939.82 874.426 1929.64 Q874.426 1922.67 866.978 1922.67 Q858.671 1922.67 858.671 1932.6 L858.671 1958 Z" fill="#000000" fill-rule="nonzero" fill-opacity="1" /><polyline clip-path="url(#clip450)" style="stroke:#000000; stroke-linecap:round; stroke-linejoin:round; stroke-width:4; stroke-opacity:1; fill:none" points="269.802,1786.97 269.802,210.236 "/>
<polyline clip-path="url(#clip450)" style="stroke:#000000; stroke-linecap:round; stroke-linejoin:round; stroke-width:4; stroke-opacity:1; fill:none" points="269.802,1484.28 288.7,1484.28 "/>
<polyline clip-path="url(#clip450)" style="stroke:#000000; stroke-linecap:round; stroke-linejoin:round; stroke-width:4; stroke-opacity:1; fill:none" points="269.802,1176.93 288.7,1176.93 "/>
<polyline clip-path="url(#clip450)" style="stroke:#000000; stroke-linecap:round; stroke-linejoin:round; stroke-width:4; stroke-opacity:1; fill:none" points="269.802,869.572 288.7,869.572 "/>
<polyline clip-path="url(#clip450)" style="stroke:#000000; stroke-linecap:round; stroke-linejoin:round; stroke-width:4; stroke-opacity:1; fill:none" points="269.802,562.216 288.7,562.216 "/>
<polyline clip-path="url(#clip450)" style="stroke:#000000; stroke-linecap:round; stroke-linejoin:round; stroke-width:4; stroke-opacity:1; fill:none" points="269.802,254.861 288.7,254.861 "/>
<path clip-path="url(#clip450)" d="M185.858 1470.08 Q182.247 1470.08 180.418 1473.65 Q178.613 1477.19 178.613 1484.32 Q178.613 1491.42 180.418 1494.99 Q182.247 1498.53 185.858 1498.53 Q189.492 1498.53 191.298 1494.99 Q193.126 1491.42 193.126 1484.32 Q193.126 1477.19 191.298 1473.65 Q189.492 1470.08 185.858 1470.08 M185.858 1466.38 Q191.668 1466.38 194.724 1470.98 Q197.802 1475.57 197.802 1484.32 Q197.802 1493.04 194.724 1497.65 Q191.668 1502.23 185.858 1502.23 Q180.048 1502.23 176.969 1497.65 Q173.914 1493.04 173.914 1484.32 Q173.914 1475.57 176.969 1470.98 Q180.048 1466.38 185.858 1466.38 Z" fill="#000000" fill-rule="nonzero" fill-opacity="1" /><path clip-path="url(#clip450)" d="M190.673 1175.57 Q194.029 1176.29 195.904 1178.56 Q197.802 1180.83 197.802 1184.16 Q197.802 1189.28 194.284 1192.08 Q190.765 1194.88 184.284 1194.88 Q182.108 1194.88 179.793 1194.44 Q177.502 1194.02 175.048 1193.17 L175.048 1188.65 Q176.992 1189.79 179.307 1190.36 Q181.622 1190.94 184.145 1190.94 Q188.543 1190.94 190.835 1189.21 Q193.15 1187.47 193.15 1184.16 Q193.15 1181.11 190.997 1179.39 Q188.867 1177.66 185.048 1177.66 L181.02 1177.66 L181.02 1173.81 L185.233 1173.81 Q188.682 1173.81 190.511 1172.45 Q192.339 1171.06 192.339 1168.47 Q192.339 1165.8 190.441 1164.39 Q188.566 1162.96 185.048 1162.96 Q183.127 1162.96 180.927 1163.37 Q178.728 1163.79 176.09 1164.67 L176.09 1160.5 Q178.752 1159.76 181.066 1159.39 Q183.404 1159.02 185.464 1159.02 Q190.789 1159.02 193.89 1161.45 Q196.992 1163.86 196.992 1167.98 Q196.992 1170.85 195.349 1172.84 Q193.705 1174.81 190.673 1175.57 Z" fill="#000000" fill-rule="nonzero" fill-opacity="1" /><path clip-path="url(#clip450)" d="M186.275 867.708 Q183.127 867.708 181.275 869.861 Q179.446 872.014 179.446 875.764 Q179.446 879.491 181.275 881.667 Q183.127 883.819 186.275 883.819 Q189.423 883.819 191.251 881.667 Q193.103 879.491 193.103 875.764 Q193.103 872.014 191.251 869.861 Q189.423 867.708 186.275 867.708 M195.557 853.056 L195.557 857.315 Q193.798 856.482 191.992 856.042 Q190.21 855.602 188.451 855.602 Q183.821 855.602 181.367 858.727 Q178.937 861.852 178.59 868.171 Q179.955 866.157 182.015 865.093 Q184.076 864.005 186.552 864.005 Q191.761 864.005 194.77 867.176 Q197.802 870.324 197.802 875.764 Q197.802 881.088 194.654 884.305 Q191.506 887.523 186.275 887.523 Q180.279 887.523 177.108 882.94 Q173.937 878.333 173.937 869.606 Q173.937 861.412 177.826 856.551 Q181.715 851.667 188.265 851.667 Q190.025 851.667 191.807 852.014 Q193.613 852.361 195.557 853.056 Z" fill="#000000" fill-rule="nonzero" fill-opacity="1" /><path clip-path="url(#clip450)" d="M176.182 578.779 L176.182 574.519 Q177.941 575.353 179.747 575.793 Q181.552 576.232 183.289 576.232 Q187.918 576.232 190.349 573.131 Q192.802 570.006 193.15 563.663 Q191.807 565.654 189.747 566.719 Q187.687 567.783 185.187 567.783 Q180.002 567.783 176.969 564.658 Q173.96 561.51 173.96 556.07 Q173.96 550.746 177.108 547.529 Q180.256 544.311 185.488 544.311 Q191.483 544.311 194.631 548.918 Q197.802 553.501 197.802 562.251 Q197.802 570.422 193.914 575.306 Q190.048 580.168 183.497 580.168 Q181.738 580.168 179.932 579.82 Q178.127 579.473 176.182 578.779 M185.488 564.126 Q188.636 564.126 190.464 561.973 Q192.316 559.82 192.316 556.07 Q192.316 552.344 190.464 550.191 Q188.636 548.015 185.488 548.015 Q182.34 548.015 180.488 550.191 Q178.659 552.344 178.659 556.07 Q178.659 559.82 180.488 561.973 Q182.34 564.126 185.488 564.126 Z" fill="#000000" fill-rule="nonzero" fill-opacity="1" /><path clip-path="url(#clip450)" d="M148.104 268.206 L155.742 268.206 L155.742 241.84 L147.432 243.507 L147.432 239.247 L155.696 237.581 L160.372 237.581 L160.372 268.206 L168.011 268.206 L168.011 272.141 L148.104 272.141 L148.104 268.206 Z" fill="#000000" fill-rule="nonzero" fill-opacity="1" /><path clip-path="url(#clip450)" d="M181.483 268.206 L197.802 268.206 L197.802 272.141 L175.858 272.141 L175.858 268.206 Q178.52 265.451 183.103 260.821 Q187.71 256.169 188.89 254.826 Q191.136 252.303 192.015 250.567 Q192.918 248.807 192.918 247.118 Q192.918 244.363 190.974 242.627 Q189.052 240.891 185.951 240.891 Q183.752 240.891 181.298 241.655 Q178.867 242.419 176.09 243.97 L176.09 239.247 Q178.914 238.113 181.367 237.534 Q183.821 236.956 185.858 236.956 Q191.228 236.956 194.423 239.641 Q197.617 242.326 197.617 246.817 Q197.617 248.946 196.807 250.868 Q196.02 252.766 193.914 255.358 Q193.335 256.03 190.233 259.247 Q187.131 262.442 181.483 268.206 Z" fill="#000000" fill-rule="nonzero" fill-opacity="1" /><path clip-path="url(#clip450)" d="M40.7424 1042.72 L11.7147 1033.74 L11.7147 1028.33 L40.7424 1037.31 L69.77 1028.33 L69.77 1033.74 L40.7424 1042.72 Z" fill="#000000" fill-rule="nonzero" fill-opacity="1" /><path clip-path="url(#clip450)" d="M13.6563 1016.71 L13.6563 1010.28 L33.1353 1010.28 L33.1353 986.921 L13.6563 986.921 L13.6563 980.492 L61.1763 980.492 L61.1763 986.921 L38.5462 986.921 L38.5462 1010.28 L61.1763 1010.28 L61.1763 1016.71 L13.6563 1016.71 Z" fill="#000000" fill-rule="nonzero" fill-opacity="1" /><path clip-path="url(#clip450)" d="M40.7424 954.488 L69.77 963.463 L69.77 968.874 L40.7424 959.898 L11.7147 968.874 L11.7147 963.463 L40.7424 954.488 Z" fill="#000000" fill-rule="nonzero" fill-opacity="1" /><polyline clip-path="url(#clip452)" style="stroke:#4169e1; stroke-linecap:round; stroke-linejoin:round; stroke-width:8; stroke-opacity:1; fill:none" points="303.673,254.861 318.727,406.665 333.781,546.066 348.834,672.777 363.888,786.969 378.942,889.149 393.996,979.986 409.049,1060.3 424.103,1131 439.157,1193.04 454.21,1247.36 469.264,1294.86 484.318,1336.37 499.372,1372.64 514.425,1404.33 529.479,1432.04 544.533,1456.31 559.587,1477.62 574.64,1496.38 589.694,1512.96 604.748,1527.68 619.801,1540.8 634.855,1552.53 649.909,1563.08 664.963,1572.59 680.016,1581.21 695.07,1589.05 710.124,1596.24 725.177,1602.85 740.231,1608.96 755.285,1614.66 770.339,1619.98 785.392,1624.98 800.446,1629.7 815.5,1634.18 830.554,1638.43 845.607,1642.5 860.661,1646.39 875.715,1650.14 890.768,1653.75 905.822,1657.24 920.876,1660.63 935.93,1663.92 950.983,1667.12 966.037,1670.24 981.091,1673.28 996.144,1676.25 1011.2,1679.16 1026.25,1682 1041.31,1684.79 1056.36,1687.52 1071.41,1690.2 1086.47,1692.83 1101.52,1695.42 1116.57,1697.96 1131.63,1700.45 1146.68,1702.91 1161.74,1705.32 1176.79,1707.69 1191.84,1710.01 1206.9,1712.3 1221.95,1714.55 1237,1716.75 1252.06,1718.92 1267.11,1721.06 1282.17,1723.15 1297.22,1725.21 1312.27,1727.24 1327.33,1729.24 1342.38,1731.2 1357.43,1733.13 1372.49,1735.04 1387.54,1736.91 1402.59,1738.75 1417.65,1740.56 1432.7,1742.34 "/>
<path clip-path="url(#clip450)" d="M1895.18 1786.97 L3091.95 1786.97 L3091.95 210.236 L1895.18 210.236  Z" fill="#ffffff" fill-rule="evenodd" fill-opacity="1"/>
<defs>
  <clipPath id="clip453">
    <rect x="1895" y="210" width="1198" height="1578"/>
  </clipPath>
</defs>
<polyline clip-path="url(#clip453)" style="stroke:#000000; stroke-linecap:round; stroke-linejoin:round; stroke-width:2; stroke-opacity:0.1; fill:none" points="1929.05,1786.97 1929.05,210.236 "/>
<polyline clip-path="url(#clip453)" style="stroke:#000000; stroke-linecap:round; stroke-linejoin:round; stroke-width:2; stroke-opacity:0.1; fill:none" points="2305.39,1786.97 2305.39,210.236 "/>
<polyline clip-path="url(#clip453)" style="stroke:#000000; stroke-linecap:round; stroke-linejoin:round; stroke-width:2; stroke-opacity:0.1; fill:none" points="2681.73,1786.97 2681.73,210.236 "/>
<polyline clip-path="url(#clip453)" style="stroke:#000000; stroke-linecap:round; stroke-linejoin:round; stroke-width:2; stroke-opacity:0.1; fill:none" points="3058.08,1786.97 3058.08,210.236 "/>
<polyline clip-path="url(#clip453)" style="stroke:#000000; stroke-linecap:round; stroke-linejoin:round; stroke-width:2; stroke-opacity:0.1; fill:none" points="1895.18,1602.54 3091.95,1602.54 "/>
<polyline clip-path="url(#clip453)" style="stroke:#000000; stroke-linecap:round; stroke-linejoin:round; stroke-width:2; stroke-opacity:0.1; fill:none" points="1895.18,1265.62 3091.95,1265.62 "/>
<polyline clip-path="url(#clip453)" style="stroke:#000000; stroke-linecap:round; stroke-linejoin:round; stroke-width:2; stroke-opacity:0.1; fill:none" points="1895.18,928.698 3091.95,928.698 "/>
<polyline clip-path="url(#clip453)" style="stroke:#000000; stroke-linecap:round; stroke-linejoin:round; stroke-width:2; stroke-opacity:0.1; fill:none" points="1895.18,591.779 3091.95,591.779 "/>
<polyline clip-path="url(#clip453)" style="stroke:#000000; stroke-linecap:round; stroke-linejoin:round; stroke-width:2; stroke-opacity:0.1; fill:none" points="1895.18,254.861 3091.95,254.861 "/>
<polyline clip-path="url(#clip450)" style="stroke:#000000; stroke-linecap:round; stroke-linejoin:round; stroke-width:4; stroke-opacity:1; fill:none" points="1895.18,1786.97 3091.95,1786.97 "/>
<polyline clip-path="url(#clip450)" style="stroke:#000000; stroke-linecap:round; stroke-linejoin:round; stroke-width:4; stroke-opacity:1; fill:none" points="1929.05,1786.97 1929.05,1768.07 "/>
<polyline clip-path="url(#clip450)" style="stroke:#000000; stroke-linecap:round; stroke-linejoin:round; stroke-width:4; stroke-opacity:1; fill:none" points="2305.39,1786.97 2305.39,1768.07 "/>
<polyline clip-path="url(#clip450)" style="stroke:#000000; stroke-linecap:round; stroke-linejoin:round; stroke-width:4; stroke-opacity:1; fill:none" points="2681.73,1786.97 2681.73,1768.07 "/>
<polyline clip-path="url(#clip450)" style="stroke:#000000; stroke-linecap:round; stroke-linejoin:round; stroke-width:4; stroke-opacity:1; fill:none" points="3058.08,1786.97 3058.08,1768.07 "/>
<path clip-path="url(#clip450)" d="M1906.43 1837.09 Q1902.82 1837.09 1900.99 1840.65 Q1899.19 1844.19 1899.19 1851.32 Q1899.19 1858.43 1900.99 1861.99 Q1902.82 1865.54 1906.43 1865.54 Q1910.07 1865.54 1911.87 1861.99 Q1913.7 1858.43 1913.7 1851.32 Q1913.7 1844.19 1911.87 1840.65 Q1910.07 1837.09 1906.43 1837.09 M1906.43 1833.38 Q1912.24 1833.38 1915.3 1837.99 Q1918.38 1842.57 1918.38 1851.32 Q1918.38 1860.05 1915.3 1864.66 Q1912.24 1869.24 1906.43 1869.24 Q1900.62 1869.24 1897.54 1864.66 Q1894.49 1860.05 1894.49 1851.32 Q1894.49 1842.57 1897.54 1837.99 Q1900.62 1833.38 1906.43 1833.38 Z" fill="#000000" fill-rule="nonzero" fill-opacity="1" /><path clip-path="url(#clip450)" d="M1926.59 1862.69 L1931.48 1862.69 L1931.48 1868.57 L1926.59 1868.57 L1926.59 1862.69 Z" fill="#000000" fill-rule="nonzero" fill-opacity="1" /><path clip-path="url(#clip450)" d="M1951.66 1837.09 Q1948.05 1837.09 1946.22 1840.65 Q1944.42 1844.19 1944.42 1851.32 Q1944.42 1858.43 1946.22 1861.99 Q1948.05 1865.54 1951.66 1865.54 Q1955.3 1865.54 1957.1 1861.99 Q1958.93 1858.43 1958.93 1851.32 Q1958.93 1844.19 1957.1 1840.65 Q1955.3 1837.09 1951.66 1837.09 M1951.66 1833.38 Q1957.47 1833.38 1960.53 1837.99 Q1963.61 1842.57 1963.61 1851.32 Q1963.61 1860.05 1960.53 1864.66 Q1957.47 1869.24 1951.66 1869.24 Q1945.85 1869.24 1942.77 1864.66 Q1939.72 1860.05 1939.72 1851.32 Q1939.72 1842.57 1942.77 1837.99 Q1945.85 1833.38 1951.66 1833.38 Z" fill="#000000" fill-rule="nonzero" fill-opacity="1" /><path clip-path="url(#clip450)" d="M2283.27 1837.09 Q2279.66 1837.09 2277.83 1840.65 Q2276.03 1844.19 2276.03 1851.32 Q2276.03 1858.43 2277.83 1861.99 Q2279.66 1865.54 2283.27 1865.54 Q2286.91 1865.54 2288.71 1861.99 Q2290.54 1858.43 2290.54 1851.32 Q2290.54 1844.19 2288.71 1840.65 Q2286.91 1837.09 2283.27 1837.09 M2283.27 1833.38 Q2289.08 1833.38 2292.14 1837.99 Q2295.22 1842.57 2295.22 1851.32 Q2295.22 1860.05 2292.14 1864.66 Q2289.08 1869.24 2283.27 1869.24 Q2277.46 1869.24 2274.38 1864.66 Q2271.33 1860.05 2271.33 1851.32 Q2271.33 1842.57 2274.38 1837.99 Q2277.46 1833.38 2283.27 1833.38 Z" fill="#000000" fill-rule="nonzero" fill-opacity="1" /><path clip-path="url(#clip450)" d="M2303.43 1862.69 L2308.32 1862.69 L2308.32 1868.57 L2303.43 1868.57 L2303.43 1862.69 Z" fill="#000000" fill-rule="nonzero" fill-opacity="1" /><path clip-path="url(#clip450)" d="M2318.55 1834.01 L2336.91 1834.01 L2336.91 1837.94 L2322.83 1837.94 L2322.83 1846.42 Q2323.85 1846.07 2324.87 1845.91 Q2325.89 1845.72 2326.91 1845.72 Q2332.69 1845.72 2336.07 1848.89 Q2339.45 1852.06 2339.45 1857.48 Q2339.45 1863.06 2335.98 1866.16 Q2332.51 1869.24 2326.19 1869.24 Q2324.01 1869.24 2321.74 1868.87 Q2319.5 1868.5 2317.09 1867.76 L2317.09 1863.06 Q2319.18 1864.19 2321.4 1864.75 Q2323.62 1865.3 2326.1 1865.3 Q2330.1 1865.3 2332.44 1863.2 Q2334.78 1861.09 2334.78 1857.48 Q2334.78 1853.87 2332.44 1851.76 Q2330.1 1849.66 2326.1 1849.66 Q2324.22 1849.66 2322.35 1850.07 Q2320.49 1850.49 2318.55 1851.37 L2318.55 1834.01 Z" fill="#000000" fill-rule="nonzero" fill-opacity="1" /><path clip-path="url(#clip450)" d="M2648.89 1864.63 L2656.53 1864.63 L2656.53 1838.27 L2648.22 1839.93 L2648.22 1835.67 L2656.48 1834.01 L2661.15 1834.01 L2661.15 1864.63 L2668.79 1864.63 L2668.79 1868.57 L2648.89 1868.57 L2648.89 1864.63 Z" fill="#000000" fill-rule="nonzero" fill-opacity="1" /><path clip-path="url(#clip450)" d="M2678.24 1862.69 L2683.12 1862.69 L2683.12 1868.57 L2678.24 1868.57 L2678.24 1862.69 Z" fill="#000000" fill-rule="nonzero" fill-opacity="1" /><path clip-path="url(#clip450)" d="M2703.31 1837.09 Q2699.7 1837.09 2697.87 1840.65 Q2696.06 1844.19 2696.06 1851.32 Q2696.06 1858.43 2697.87 1861.99 Q2699.7 1865.54 2703.31 1865.54 Q2706.94 1865.54 2708.75 1861.99 Q2710.58 1858.43 2710.58 1851.32 Q2710.58 1844.19 2708.75 1840.65 Q2706.94 1837.09 2703.31 1837.09 M2703.31 1833.38 Q2709.12 1833.38 2712.17 1837.99 Q2715.25 1842.57 2715.25 1851.32 Q2715.25 1860.05 2712.17 1864.66 Q2709.12 1869.24 2703.31 1869.24 Q2697.5 1869.24 2694.42 1864.66 Q2691.36 1860.05 2691.36 1851.32 Q2691.36 1842.57 2694.42 1837.99 Q2697.5 1833.38 2703.31 1833.38 Z" fill="#000000" fill-rule="nonzero" fill-opacity="1" /><path clip-path="url(#clip450)" d="M3025.73 1864.63 L3033.37 1864.63 L3033.37 1838.27 L3025.06 1839.93 L3025.06 1835.67 L3033.32 1834.01 L3038 1834.01 L3038 1864.63 L3045.63 1864.63 L3045.63 1868.57 L3025.73 1868.57 L3025.73 1864.63 Z" fill="#000000" fill-rule="nonzero" fill-opacity="1" /><path clip-path="url(#clip450)" d="M3055.08 1862.69 L3059.96 1862.69 L3059.96 1868.57 L3055.08 1868.57 L3055.08 1862.69 Z" fill="#000000" fill-rule="nonzero" fill-opacity="1" /><path clip-path="url(#clip450)" d="M3070.19 1834.01 L3088.55 1834.01 L3088.55 1837.94 L3074.48 1837.94 L3074.48 1846.42 Q3075.5 1846.07 3076.51 1845.91 Q3077.53 1845.72 3078.55 1845.72 Q3084.34 1845.72 3087.72 1848.89 Q3091.1 1852.06 3091.1 1857.48 Q3091.1 1863.06 3087.62 1866.16 Q3084.15 1869.24 3077.83 1869.24 Q3075.66 1869.24 3073.39 1868.87 Q3071.14 1868.5 3068.74 1867.76 L3068.74 1863.06 Q3070.82 1864.19 3073.04 1864.75 Q3075.26 1865.3 3077.74 1865.3 Q3081.75 1865.3 3084.08 1863.2 Q3086.42 1861.09 3086.42 1857.48 Q3086.42 1853.87 3084.08 1851.76 Q3081.75 1849.66 3077.74 1849.66 Q3075.87 1849.66 3073.99 1850.07 Q3072.14 1850.49 3070.19 1851.37 L3070.19 1834.01 Z" fill="#000000" fill-rule="nonzero" fill-opacity="1" /><path clip-path="url(#clip450)" d="M2484.05 1965.64 L2484.05 1981.39 L2478.16 1981.39 L2478.16 1932.41 Q2478.16 1917.89 2491.72 1917.89 Q2505.53 1917.89 2505.53 1930.15 Q2505.53 1938.87 2500.05 1942.05 Q2508.97 1944.92 2508.97 1953.41 Q2508.97 1968.5 2493.63 1968.5 Q2486.88 1968.5 2484.05 1965.64 M2484.05 1958 Q2487.58 1963.5 2493.85 1963.5 Q2503.02 1963.5 2503.02 1953.51 Q2503.02 1944.53 2488.25 1945.23 L2488.25 1939.82 Q2499.8 1939.82 2499.8 1929.64 Q2499.8 1922.67 2492.35 1922.67 Q2484.05 1922.67 2484.05 1932.6 L2484.05 1958 Z" fill="#000000" fill-rule="nonzero" fill-opacity="1" /><polyline clip-path="url(#clip450)" style="stroke:#000000; stroke-linecap:round; stroke-linejoin:round; stroke-width:4; stroke-opacity:1; fill:none" points="1895.18,1786.97 1895.18,210.236 "/>
<polyline clip-path="url(#clip450)" style="stroke:#000000; stroke-linecap:round; stroke-linejoin:round; stroke-width:4; stroke-opacity:1; fill:none" points="1895.18,1602.54 1914.07,1602.54 "/>
<polyline clip-path="url(#clip450)" style="stroke:#000000; stroke-linecap:round; stroke-linejoin:round; stroke-width:4; stroke-opacity:1; fill:none" points="1895.18,1265.62 1914.07,1265.62 "/>
<polyline clip-path="url(#clip450)" style="stroke:#000000; stroke-linecap:round; stroke-linejoin:round; stroke-width:4; stroke-opacity:1; fill:none" points="1895.18,928.698 1914.07,928.698 "/>
<polyline clip-path="url(#clip450)" style="stroke:#000000; stroke-linecap:round; stroke-linejoin:round; stroke-width:4; stroke-opacity:1; fill:none" points="1895.18,591.779 1914.07,591.779 "/>
<polyline clip-path="url(#clip450)" style="stroke:#000000; stroke-linecap:round; stroke-linejoin:round; stroke-width:4; stroke-opacity:1; fill:none" points="1895.18,254.861 1914.07,254.861 "/>
<path clip-path="url(#clip450)" d="M1729.87 1615.88 L1746.19 1615.88 L1746.19 1619.82 L1724.24 1619.82 L1724.24 1615.88 Q1726.9 1613.13 1731.49 1608.5 Q1736.09 1603.84 1737.27 1602.5 Q1739.52 1599.98 1740.4 1598.24 Q1741.3 1596.48 1741.3 1594.79 Q1741.3 1592.04 1739.36 1590.3 Q1737.44 1588.57 1734.33 1588.57 Q1732.14 1588.57 1729.68 1589.33 Q1727.25 1590.09 1724.47 1591.64 L1724.47 1586.92 Q1727.3 1585.79 1729.75 1585.21 Q1732.2 1584.63 1734.24 1584.63 Q1739.61 1584.63 1742.81 1587.32 Q1746 1590 1746 1594.49 Q1746 1596.62 1745.19 1598.54 Q1744.4 1600.44 1742.3 1603.03 Q1741.72 1603.7 1738.62 1606.92 Q1735.51 1610.12 1729.87 1615.88 Z" fill="#000000" fill-rule="nonzero" fill-opacity="1" /><path clip-path="url(#clip450)" d="M1756 1613.94 L1760.89 1613.94 L1760.89 1619.82 L1756 1619.82 L1756 1613.94 Z" fill="#000000" fill-rule="nonzero" fill-opacity="1" /><path clip-path="url(#clip450)" d="M1781.07 1588.33 Q1777.46 1588.33 1775.63 1591.9 Q1773.82 1595.44 1773.82 1602.57 Q1773.82 1609.68 1775.63 1613.24 Q1777.46 1616.78 1781.07 1616.78 Q1784.7 1616.78 1786.51 1613.24 Q1788.34 1609.68 1788.34 1602.57 Q1788.34 1595.44 1786.51 1591.9 Q1784.7 1588.33 1781.07 1588.33 M1781.07 1584.63 Q1786.88 1584.63 1789.94 1589.24 Q1793.01 1593.82 1793.01 1602.57 Q1793.01 1611.3 1789.94 1615.9 Q1786.88 1620.49 1781.07 1620.49 Q1775.26 1620.49 1772.18 1615.9 Q1769.13 1611.3 1769.13 1602.57 Q1769.13 1593.82 1772.18 1589.24 Q1775.26 1584.63 1781.07 1584.63 Z" fill="#000000" fill-rule="nonzero" fill-opacity="1" /><path clip-path="url(#clip450)" d="M1811.23 1588.33 Q1807.62 1588.33 1805.79 1591.9 Q1803.99 1595.44 1803.99 1602.57 Q1803.99 1609.68 1805.79 1613.24 Q1807.62 1616.78 1811.23 1616.78 Q1814.87 1616.78 1816.67 1613.24 Q1818.5 1609.68 1818.5 1602.57 Q1818.5 1595.44 1816.67 1591.9 Q1814.87 1588.33 1811.23 1588.33 M1811.23 1584.63 Q1817.04 1584.63 1820.1 1589.24 Q1823.18 1593.82 1823.18 1602.57 Q1823.18 1611.3 1820.1 1615.9 Q1817.04 1620.49 1811.23 1620.49 Q1805.42 1620.49 1802.34 1615.9 Q1799.29 1611.3 1799.29 1602.57 Q1799.29 1593.82 1802.34 1589.24 Q1805.42 1584.63 1811.23 1584.63 Z" fill="#000000" fill-rule="nonzero" fill-opacity="1" /><path clip-path="url(#clip450)" d="M1730.86 1278.96 L1747.18 1278.96 L1747.18 1282.9 L1725.24 1282.9 L1725.24 1278.96 Q1727.9 1276.21 1732.48 1271.58 Q1737.09 1266.92 1738.27 1265.58 Q1740.51 1263.06 1741.39 1261.32 Q1742.3 1259.56 1742.3 1257.87 Q1742.3 1255.12 1740.35 1253.38 Q1738.43 1251.65 1735.33 1251.65 Q1733.13 1251.65 1730.68 1252.41 Q1728.25 1253.17 1725.47 1254.73 L1725.47 1250 Q1728.29 1248.87 1730.75 1248.29 Q1733.2 1247.71 1735.24 1247.71 Q1740.61 1247.71 1743.8 1250.4 Q1747 1253.08 1747 1257.57 Q1747 1259.7 1746.19 1261.62 Q1745.4 1263.52 1743.29 1266.11 Q1742.71 1266.79 1739.61 1270 Q1736.51 1273.2 1730.86 1278.96 Z" fill="#000000" fill-rule="nonzero" fill-opacity="1" /><path clip-path="url(#clip450)" d="M1757 1277.02 L1761.88 1277.02 L1761.88 1282.9 L1757 1282.9 L1757 1277.02 Z" fill="#000000" fill-rule="nonzero" fill-opacity="1" /><path clip-path="url(#clip450)" d="M1776.09 1278.96 L1792.41 1278.96 L1792.41 1282.9 L1770.47 1282.9 L1770.47 1278.96 Q1773.13 1276.21 1777.71 1271.58 Q1782.32 1266.92 1783.5 1265.58 Q1785.75 1263.06 1786.63 1261.32 Q1787.53 1259.56 1787.53 1257.87 Q1787.53 1255.12 1785.58 1253.38 Q1783.66 1251.65 1780.56 1251.65 Q1778.36 1251.65 1775.91 1252.41 Q1773.48 1253.17 1770.7 1254.73 L1770.7 1250 Q1773.52 1248.87 1775.98 1248.29 Q1778.43 1247.71 1780.47 1247.71 Q1785.84 1247.71 1789.03 1250.4 Q1792.23 1253.08 1792.23 1257.57 Q1792.23 1259.7 1791.42 1261.62 Q1790.63 1263.52 1788.52 1266.11 Q1787.95 1266.79 1784.84 1270 Q1781.74 1273.2 1776.09 1278.96 Z" fill="#000000" fill-rule="nonzero" fill-opacity="1" /><path clip-path="url(#clip450)" d="M1802.27 1248.34 L1820.63 1248.34 L1820.63 1252.27 L1806.56 1252.27 L1806.56 1260.74 Q1807.57 1260.4 1808.59 1260.23 Q1809.61 1260.05 1810.63 1260.05 Q1816.42 1260.05 1819.8 1263.22 Q1823.18 1266.39 1823.18 1271.81 Q1823.18 1277.39 1819.7 1280.49 Q1816.23 1283.57 1809.91 1283.57 Q1807.74 1283.57 1805.47 1283.2 Q1803.22 1282.83 1800.82 1282.09 L1800.82 1277.39 Q1802.9 1278.52 1805.12 1279.08 Q1807.34 1279.63 1809.82 1279.63 Q1813.82 1279.63 1816.16 1277.53 Q1818.5 1275.42 1818.5 1271.81 Q1818.5 1268.2 1816.16 1266.09 Q1813.82 1263.98 1809.82 1263.98 Q1807.95 1263.98 1806.07 1264.4 Q1804.22 1264.82 1802.27 1265.7 L1802.27 1248.34 Z" fill="#000000" fill-rule="nonzero" fill-opacity="1" /><path clip-path="url(#clip450)" d="M1729.87 942.043 L1746.19 942.043 L1746.19 945.978 L1724.24 945.978 L1724.24 942.043 Q1726.9 939.288 1731.49 934.659 Q1736.09 930.006 1737.27 928.663 Q1739.52 926.14 1740.4 924.404 Q1741.3 922.645 1741.3 920.955 Q1741.3 918.2 1739.36 916.464 Q1737.44 914.728 1734.33 914.728 Q1732.14 914.728 1729.68 915.492 Q1727.25 916.256 1724.47 917.807 L1724.47 913.085 Q1727.3 911.95 1729.75 911.372 Q1732.2 910.793 1734.24 910.793 Q1739.61 910.793 1742.81 913.478 Q1746 916.163 1746 920.654 Q1746 922.784 1745.19 924.705 Q1744.4 926.603 1742.3 929.196 Q1741.72 929.867 1738.62 933.085 Q1735.51 936.279 1729.87 942.043 Z" fill="#000000" fill-rule="nonzero" fill-opacity="1" /><path clip-path="url(#clip450)" d="M1756 940.098 L1760.89 940.098 L1760.89 945.978 L1756 945.978 L1756 940.098 Z" fill="#000000" fill-rule="nonzero" fill-opacity="1" /><path clip-path="url(#clip450)" d="M1771.12 911.418 L1789.47 911.418 L1789.47 915.353 L1775.4 915.353 L1775.4 923.825 Q1776.42 923.478 1777.44 923.316 Q1778.45 923.131 1779.47 923.131 Q1785.26 923.131 1788.64 926.302 Q1792.02 929.473 1792.02 934.89 Q1792.02 940.469 1788.55 943.571 Q1785.07 946.649 1778.76 946.649 Q1776.58 946.649 1774.31 946.279 Q1772.07 945.909 1769.66 945.168 L1769.66 940.469 Q1771.74 941.603 1773.96 942.159 Q1776.19 942.714 1778.66 942.714 Q1782.67 942.714 1785.01 940.608 Q1787.34 938.501 1787.34 934.89 Q1787.34 931.279 1785.01 929.172 Q1782.67 927.066 1778.66 927.066 Q1776.79 927.066 1774.91 927.483 Q1773.06 927.899 1771.12 928.779 L1771.12 911.418 Z" fill="#000000" fill-rule="nonzero" fill-opacity="1" /><path clip-path="url(#clip450)" d="M1811.23 914.497 Q1807.62 914.497 1805.79 918.061 Q1803.99 921.603 1803.99 928.733 Q1803.99 935.839 1805.79 939.404 Q1807.62 942.946 1811.23 942.946 Q1814.87 942.946 1816.67 939.404 Q1818.5 935.839 1818.5 928.733 Q1818.5 921.603 1816.67 918.061 Q1814.87 914.497 1811.23 914.497 M1811.23 910.793 Q1817.04 910.793 1820.1 915.399 Q1823.18 919.983 1823.18 928.733 Q1823.18 937.459 1820.1 942.066 Q1817.04 946.649 1811.23 946.649 Q1805.42 946.649 1802.34 942.066 Q1799.29 937.459 1799.29 928.733 Q1799.29 919.983 1802.34 915.399 Q1805.42 910.793 1811.23 910.793 Z" fill="#000000" fill-rule="nonzero" fill-opacity="1" /><path clip-path="url(#clip450)" d="M1730.86 605.124 L1747.18 605.124 L1747.18 609.059 L1725.24 609.059 L1725.24 605.124 Q1727.9 602.37 1732.48 597.74 Q1737.09 593.087 1738.27 591.745 Q1740.51 589.221 1741.39 587.485 Q1742.3 585.726 1742.3 584.036 Q1742.3 581.282 1740.35 579.546 Q1738.43 577.809 1735.33 577.809 Q1733.13 577.809 1730.68 578.573 Q1728.25 579.337 1725.47 580.888 L1725.47 576.166 Q1728.29 575.032 1730.75 574.453 Q1733.2 573.874 1735.24 573.874 Q1740.61 573.874 1743.8 576.56 Q1747 579.245 1747 583.735 Q1747 585.865 1746.19 587.786 Q1745.4 589.684 1743.29 592.277 Q1742.71 592.948 1739.61 596.166 Q1736.51 599.36 1730.86 605.124 Z" fill="#000000" fill-rule="nonzero" fill-opacity="1" /><path clip-path="url(#clip450)" d="M1757 603.18 L1761.88 603.18 L1761.88 609.059 L1757 609.059 L1757 603.18 Z" fill="#000000" fill-rule="nonzero" fill-opacity="1" /><path clip-path="url(#clip450)" d="M1770.89 574.499 L1793.11 574.499 L1793.11 576.49 L1780.56 609.059 L1775.68 609.059 L1787.48 578.434 L1770.89 578.434 L1770.89 574.499 Z" fill="#000000" fill-rule="nonzero" fill-opacity="1" /><path clip-path="url(#clip450)" d="M1802.27 574.499 L1820.63 574.499 L1820.63 578.434 L1806.56 578.434 L1806.56 586.907 Q1807.57 586.559 1808.59 586.397 Q1809.61 586.212 1810.63 586.212 Q1816.42 586.212 1819.8 589.384 Q1823.18 592.555 1823.18 597.971 Q1823.18 603.55 1819.7 606.652 Q1816.23 609.731 1809.91 609.731 Q1807.74 609.731 1805.47 609.36 Q1803.22 608.99 1800.82 608.249 L1800.82 603.55 Q1802.9 604.684 1805.12 605.24 Q1807.34 605.795 1809.82 605.795 Q1813.82 605.795 1816.16 603.689 Q1818.5 601.583 1818.5 597.971 Q1818.5 594.36 1816.16 592.254 Q1813.82 590.147 1809.82 590.147 Q1807.95 590.147 1806.07 590.564 Q1804.22 590.981 1802.27 591.86 L1802.27 574.499 Z" fill="#000000" fill-rule="nonzero" fill-opacity="1" /><path clip-path="url(#clip450)" d="M1740.01 253.507 Q1743.36 254.224 1745.24 256.493 Q1747.14 258.761 1747.14 262.094 Q1747.14 267.21 1743.62 270.011 Q1740.1 272.812 1733.62 272.812 Q1731.44 272.812 1729.13 272.372 Q1726.83 271.956 1724.38 271.099 L1724.38 266.585 Q1726.33 267.719 1728.64 268.298 Q1730.95 268.877 1733.48 268.877 Q1737.88 268.877 1740.17 267.141 Q1742.48 265.405 1742.48 262.094 Q1742.48 259.039 1740.33 257.326 Q1738.2 255.59 1734.38 255.59 L1730.35 255.59 L1730.35 251.747 L1734.57 251.747 Q1738.01 251.747 1739.84 250.382 Q1741.67 248.993 1741.67 246.4 Q1741.67 243.738 1739.77 242.326 Q1737.9 240.891 1734.38 240.891 Q1732.46 240.891 1730.26 241.308 Q1728.06 241.724 1725.42 242.604 L1725.42 238.437 Q1728.08 237.696 1730.4 237.326 Q1732.74 236.956 1734.8 236.956 Q1740.12 236.956 1743.22 239.386 Q1746.33 241.794 1746.33 245.914 Q1746.33 248.784 1744.68 250.775 Q1743.04 252.743 1740.01 253.507 Z" fill="#000000" fill-rule="nonzero" fill-opacity="1" /><path clip-path="url(#clip450)" d="M1756 266.261 L1760.89 266.261 L1760.89 272.141 L1756 272.141 L1756 266.261 Z" fill="#000000" fill-rule="nonzero" fill-opacity="1" /><path clip-path="url(#clip450)" d="M1781.07 240.659 Q1777.46 240.659 1775.63 244.224 Q1773.82 247.766 1773.82 254.895 Q1773.82 262.002 1775.63 265.567 Q1777.46 269.108 1781.07 269.108 Q1784.7 269.108 1786.51 265.567 Q1788.34 262.002 1788.34 254.895 Q1788.34 247.766 1786.51 244.224 Q1784.7 240.659 1781.07 240.659 M1781.07 236.956 Q1786.88 236.956 1789.94 241.562 Q1793.01 246.145 1793.01 254.895 Q1793.01 263.622 1789.94 268.229 Q1786.88 272.812 1781.07 272.812 Q1775.26 272.812 1772.18 268.229 Q1769.13 263.622 1769.13 254.895 Q1769.13 246.145 1772.18 241.562 Q1775.26 236.956 1781.07 236.956 Z" fill="#000000" fill-rule="nonzero" fill-opacity="1" /><path clip-path="url(#clip450)" d="M1811.23 240.659 Q1807.62 240.659 1805.79 244.224 Q1803.99 247.766 1803.99 254.895 Q1803.99 262.002 1805.79 265.567 Q1807.62 269.108 1811.23 269.108 Q1814.87 269.108 1816.67 265.567 Q1818.5 262.002 1818.5 254.895 Q1818.5 247.766 1816.67 244.224 Q1814.87 240.659 1811.23 240.659 M1811.23 236.956 Q1817.04 236.956 1820.1 241.562 Q1823.18 246.145 1823.18 254.895 Q1823.18 263.622 1820.1 268.229 Q1817.04 272.812 1811.23 272.812 Q1805.42 272.812 1802.34 268.229 Q1799.29 263.622 1799.29 254.895 Q1799.29 246.145 1802.34 241.562 Q1805.42 236.956 1811.23 236.956 Z" fill="#000000" fill-rule="nonzero" fill-opacity="1" /><path clip-path="url(#clip450)" d="M1617.55 1038.87 L1588.52 1029.89 L1588.52 1024.48 L1617.55 1033.45 L1646.58 1024.48 L1646.58 1029.89 L1617.55 1038.87 Z" fill="#000000" fill-rule="nonzero" fill-opacity="1" /><path clip-path="url(#clip450)" d="M1616.47 983.483 L1637.99 983.483 L1637.99 989.34 L1616.66 989.34 Q1611.6 989.34 1609.09 991.313 Q1606.57 993.287 1606.57 997.233 Q1606.57 1001.98 1609.59 1004.71 Q1612.62 1007.45 1617.84 1007.45 L1637.99 1007.45 L1637.99 1013.34 L1602.34 1013.34 L1602.34 1007.45 L1607.88 1007.45 Q1604.66 1005.35 1603.07 1002.52 Q1601.48 999.652 1601.48 995.928 Q1601.48 989.785 1605.3 986.634 Q1609.09 983.483 1616.47 983.483 Z" fill="#000000" fill-rule="nonzero" fill-opacity="1" /><path clip-path="url(#clip450)" d="M1617.55 958.339 L1646.58 967.315 L1646.58 972.725 L1617.55 963.75 L1588.52 972.725 L1588.52 967.315 L1617.55 958.339 Z" fill="#000000" fill-rule="nonzero" fill-opacity="1" /><polyline clip-path="url(#clip453)" style="stroke:#4682b4; stroke-linecap:round; stroke-linejoin:round; stroke-width:8; stroke-opacity:1; fill:none" points="1929.05,254.861 1944.1,410.068 1959.15,551.89 1974.21,680.166 1989.26,795.203 2004.32,897.62 2019.37,988.193 2034.42,1067.84 2049.48,1137.55 2064.53,1198.34 2079.58,1251.19 2094.64,1297.06 2109.69,1336.8 2124.75,1371.22 2139.8,1400.99 2154.85,1426.76 2169.91,1449.08 2184.96,1468.43 2200.01,1485.26 2215.07,1499.94 2230.12,1512.78 2245.18,1524.06 2260.23,1534.02 2275.28,1542.85 2290.34,1550.72 2305.39,1557.78 2320.44,1564.15 2335.5,1569.96 2350.55,1575.28 2365.61,1580.21 2380.66,1584.81 2395.71,1589.15 2410.77,1593.27 2425.82,1597.21 2440.87,1601.02 2455.93,1604.7 2470.98,1608.3 2486.04,1611.83 2501.09,1615.31 2516.14,1618.75 2531.2,1622.16 2546.25,1625.55 2561.3,1628.93 2576.36,1632.31 2591.41,1635.69 2606.46,1639.08 2621.52,1642.47 2636.57,1645.88 2651.63,1649.29 2666.68,1652.72 2681.73,1656.17 2696.79,1659.62 2711.84,1663.09 2726.89,1666.56 2741.95,1670.04 2757,1673.53 2772.06,1677.02 2787.11,1680.51 2802.16,1684 2817.22,1687.49 2832.27,1690.98 2847.32,1694.47 2862.38,1697.95 2877.43,1701.43 2892.49,1704.9 2907.54,1708.36 2922.59,1711.82 2937.65,1715.27 2952.7,1718.7 2967.75,1722.13 2982.81,1725.54 2997.86,1728.93 3012.92,1732.31 3027.97,1735.68 3043.02,1739.02 3058.08,1742.34 "/>
<polyline clip-path="url(#clip453)" style="stroke:#ff7f50; stroke-linecap:round; stroke-linejoin:round; stroke-width:8; stroke-opacity:1; fill:none" points="1929.05,254.861 1944.1,410.068 1959.15,551.878 1974.21,680.143 1989.26,795.173 2004.32,897.587 2019.37,988.159 2034.42,1067.81 2049.48,1137.51 2064.53,1198.29 2079.58,1251.14 2094.64,1296.99 2109.69,1336.72 2124.75,1371.11 2139.8,1400.87 2154.85,1426.61 2169.91,1448.9 2184.96,1468.22 2200.01,1485.02 2215.07,1499.66 2230.12,1512.47 2245.18,1523.72 2260.23,1533.64 2275.28,1542.44 2290.34,1550.27 2305.39,1557.29 2320.44,1563.62 2335.5,1569.38 2350.55,1574.66 2365.61,1579.54 2380.66,1584.09 2395.71,1588.38 2410.77,1592.44 2425.82,1596.33 2440.87,1600.08 2455.93,1603.71 2470.98,1607.25 2486.04,1610.72 2501.09,1614.13 2516.14,1617.52 2531.2,1620.87 2546.25,1624.21 2561.3,1627.54 2576.36,1630.87 2591.41,1634.2 2606.46,1637.54 2621.52,1640.89 2636.57,1644.26 2651.63,1647.64 2666.68,1651.04 2681.73,1654.45 2696.79,1657.87 2711.84,1661.31 2726.89,1664.75 2741.95,1668.21 2757,1671.68 2772.06,1675.15 2787.11,1678.62 2802.16,1682.1 2817.22,1685.58 2832.27,1689.07 2847.32,1692.55 2862.38,1696.04 2877.43,1699.53 2892.49,1703.01 2907.54,1706.49 2922.59,1709.97 2937.65,1713.45 2952.7,1716.92 2967.75,1720.38 2982.81,1723.83 2997.86,1727.27 3012.92,1730.7 3027.97,1734.11 3043.02,1737.51 3058.08,1740.89 "/>
<path clip-path="url(#clip450)" d="M2825.39 418.314 L3052.06 418.314 L3052.06 262.794 L2825.39 262.794  Z" fill="#ffffff" fill-rule="evenodd" fill-opacity="1"/>
<polyline clip-path="url(#clip450)" style="stroke:#000000; stroke-linecap:round; stroke-linejoin:round; stroke-width:4; stroke-opacity:1; fill:none" points="2825.39,418.314 3052.06,418.314 3052.06,262.794 2825.39,262.794 2825.39,418.314 "/>
<polyline clip-path="url(#clip450)" style="stroke:#4682b4; stroke-linecap:round; stroke-linejoin:round; stroke-width:8; stroke-opacity:1; fill:none" points="2838.69,314.634 2918.47,314.634 "/>
<path clip-path="url(#clip450)" d="M2953.48 316.266 L2953.48 331.914 L2949.22 331.914 L2949.22 316.405 Q2949.22 312.724 2947.79 310.896 Q2946.35 309.067 2943.48 309.067 Q2940.03 309.067 2938.04 311.266 Q2936.05 313.465 2936.05 317.261 L2936.05 331.914 L2931.77 331.914 L2931.77 305.988 L2936.05 305.988 L2936.05 310.016 Q2937.58 307.678 2939.64 306.521 Q2941.72 305.363 2944.43 305.363 Q2948.9 305.363 2951.19 308.141 Q2953.48 310.896 2953.48 316.266 Z" fill="#000000" fill-rule="nonzero" fill-opacity="1" /><path clip-path="url(#clip450)" d="M2981.67 339.784 L2981.67 343.094 L2957.05 343.094 L2957.05 339.784 L2981.67 339.784 Z" fill="#000000" fill-rule="nonzero" fill-opacity="1" /><path clip-path="url(#clip450)" d="M2985.24 321.683 L2985.24 305.988 L2989.5 305.988 L2989.5 321.52 Q2989.5 325.201 2990.93 327.053 Q2992.37 328.882 2995.24 328.882 Q2998.69 328.882 3000.68 326.682 Q3002.69 324.483 3002.69 320.687 L3002.69 305.988 L3006.95 305.988 L3006.95 331.914 L3002.69 331.914 L3002.69 327.932 Q3001.14 330.294 2999.08 331.451 Q2997.04 332.585 2994.34 332.585 Q2989.87 332.585 2987.55 329.807 Q2985.24 327.03 2985.24 321.683 M2995.96 305.363 L2995.96 305.363 Z" fill="#000000" fill-rule="nonzero" fill-opacity="1" /><path clip-path="url(#clip450)" d="M3019.85 328.025 L3019.85 341.775 L3015.56 341.775 L3015.56 305.988 L3019.85 305.988 L3019.85 309.923 Q3021.19 307.609 3023.23 306.497 Q3025.29 305.363 3028.13 305.363 Q3032.85 305.363 3035.79 309.113 Q3038.76 312.863 3038.76 318.974 Q3038.76 325.085 3035.79 328.835 Q3032.85 332.585 3028.13 332.585 Q3025.29 332.585 3023.23 331.474 Q3021.19 330.34 3019.85 328.025 M3034.34 318.974 Q3034.34 314.275 3032.39 311.613 Q3030.47 308.928 3027.09 308.928 Q3023.71 308.928 3021.77 311.613 Q3019.85 314.275 3019.85 318.974 Q3019.85 323.673 3021.77 326.358 Q3023.71 329.02 3027.09 329.02 Q3030.47 329.02 3032.39 326.358 Q3034.34 323.673 3034.34 318.974 Z" fill="#000000" fill-rule="nonzero" fill-opacity="1" /><polyline clip-path="url(#clip450)" style="stroke:#ff7f50; stroke-linecap:round; stroke-linejoin:round; stroke-width:8; stroke-opacity:1; fill:none" points="2838.69,366.474 2918.47,366.474 "/>
<path clip-path="url(#clip450)" d="M2953.48 368.106 L2953.48 383.754 L2949.22 383.754 L2949.22 368.245 Q2949.22 364.564 2947.79 362.736 Q2946.35 360.907 2943.48 360.907 Q2940.03 360.907 2938.04 363.106 Q2936.05 365.305 2936.05 369.101 L2936.05 383.754 L2931.77 383.754 L2931.77 357.828 L2936.05 357.828 L2936.05 361.856 Q2937.58 359.518 2939.64 358.361 Q2941.72 357.203 2944.43 357.203 Q2948.9 357.203 2951.19 359.981 Q2953.48 362.736 2953.48 368.106 Z" fill="#000000" fill-rule="nonzero" fill-opacity="1" /><path clip-path="url(#clip450)" d="M2981.67 391.624 L2981.67 394.934 L2957.05 394.934 L2957.05 391.624 L2981.67 391.624 Z" fill="#000000" fill-rule="nonzero" fill-opacity="1" /><path clip-path="url(#clip450)" d="M3002.74 361.763 L3002.74 347.736 L3007 347.736 L3007 383.754 L3002.74 383.754 L3002.74 379.865 Q3001.4 382.18 2999.34 383.314 Q2997.3 384.425 2994.43 384.425 Q2989.73 384.425 2986.77 380.675 Q2983.83 376.925 2983.83 370.814 Q2983.83 364.703 2986.77 360.953 Q2989.73 357.203 2994.43 357.203 Q2997.3 357.203 2999.34 358.337 Q3001.4 359.449 3002.74 361.763 M2988.23 370.814 Q2988.23 375.513 2990.15 378.198 Q2992.09 380.86 2995.47 380.86 Q2998.85 380.86 3000.79 378.198 Q3002.74 375.513 3002.74 370.814 Q3002.74 366.115 3000.79 363.453 Q2998.85 360.768 2995.47 360.768 Q2992.09 360.768 2990.15 363.453 Q2988.23 366.115 2988.23 370.814 Z" fill="#000000" fill-rule="nonzero" fill-opacity="1" /><path clip-path="url(#clip450)" d="M3037.32 368.106 L3037.32 383.754 L3033.06 383.754 L3033.06 368.245 Q3033.06 364.564 3031.63 362.736 Q3030.19 360.907 3027.32 360.907 Q3023.87 360.907 3021.88 363.106 Q3019.89 365.305 3019.89 369.101 L3019.89 383.754 L3015.61 383.754 L3015.61 357.828 L3019.89 357.828 L3019.89 361.856 Q3021.42 359.518 3023.48 358.361 Q3025.56 357.203 3028.27 357.203 Q3032.74 357.203 3035.03 359.981 Q3037.32 362.736 3037.32 368.106 Z" fill="#000000" fill-rule="nonzero" fill-opacity="1" /><path clip-path="url(#clip450)" d="M3492.99 1786.97 L4689.76 1786.97 L4689.76 210.236 L3492.99 210.236  Z" fill="#ffffff" fill-rule="evenodd" fill-opacity="1"/>
<defs>
  <clipPath id="clip454">
    <rect x="3492" y="210" width="1198" height="1578"/>
  </clipPath>
</defs>
<polyline clip-path="url(#clip454)" style="stroke:#000000; stroke-linecap:round; stroke-linejoin:round; stroke-width:2; stroke-opacity:0.1; fill:none" points="3526.86,1786.97 3526.86,210.236 "/>
<polyline clip-path="url(#clip454)" style="stroke:#000000; stroke-linecap:round; stroke-linejoin:round; stroke-width:2; stroke-opacity:0.1; fill:none" points="3903.21,1786.97 3903.21,210.236 "/>
<polyline clip-path="url(#clip454)" style="stroke:#000000; stroke-linecap:round; stroke-linejoin:round; stroke-width:2; stroke-opacity:0.1; fill:none" points="4279.55,1786.97 4279.55,210.236 "/>
<polyline clip-path="url(#clip454)" style="stroke:#000000; stroke-linecap:round; stroke-linejoin:round; stroke-width:2; stroke-opacity:0.1; fill:none" points="4655.89,1786.97 4655.89,210.236 "/>
<polyline clip-path="url(#clip454)" style="stroke:#000000; stroke-linecap:round; stroke-linejoin:round; stroke-width:2; stroke-opacity:0.1; fill:none" points="3492.99,1742.34 4689.76,1742.34 "/>
<polyline clip-path="url(#clip454)" style="stroke:#000000; stroke-linecap:round; stroke-linejoin:round; stroke-width:2; stroke-opacity:0.1; fill:none" points="3492.99,892.866 4689.76,892.866 "/>
<polyline clip-path="url(#clip450)" style="stroke:#000000; stroke-linecap:round; stroke-linejoin:round; stroke-width:4; stroke-opacity:1; fill:none" points="3492.99,1786.97 4689.76,1786.97 "/>
<polyline clip-path="url(#clip450)" style="stroke:#000000; stroke-linecap:round; stroke-linejoin:round; stroke-width:4; stroke-opacity:1; fill:none" points="3526.86,1786.97 3526.86,1768.07 "/>
<polyline clip-path="url(#clip450)" style="stroke:#000000; stroke-linecap:round; stroke-linejoin:round; stroke-width:4; stroke-opacity:1; fill:none" points="3903.21,1786.97 3903.21,1768.07 "/>
<polyline clip-path="url(#clip450)" style="stroke:#000000; stroke-linecap:round; stroke-linejoin:round; stroke-width:4; stroke-opacity:1; fill:none" points="4279.55,1786.97 4279.55,1768.07 "/>
<polyline clip-path="url(#clip450)" style="stroke:#000000; stroke-linecap:round; stroke-linejoin:round; stroke-width:4; stroke-opacity:1; fill:none" points="4655.89,1786.97 4655.89,1768.07 "/>
<path clip-path="url(#clip450)" d="M3504.25 1837.09 Q3500.64 1837.09 3498.81 1840.65 Q3497 1844.19 3497 1851.32 Q3497 1858.43 3498.81 1861.99 Q3500.64 1865.54 3504.25 1865.54 Q3507.88 1865.54 3509.69 1861.99 Q3511.52 1858.43 3511.52 1851.32 Q3511.52 1844.19 3509.69 1840.65 Q3507.88 1837.09 3504.25 1837.09 M3504.25 1833.38 Q3510.06 1833.38 3513.11 1837.99 Q3516.19 1842.57 3516.19 1851.32 Q3516.19 1860.05 3513.11 1864.66 Q3510.06 1869.24 3504.25 1869.24 Q3498.44 1869.24 3495.36 1864.66 Q3492.3 1860.05 3492.3 1851.32 Q3492.3 1842.57 3495.36 1837.99 Q3498.44 1833.38 3504.25 1833.38 Z" fill="#000000" fill-rule="nonzero" fill-opacity="1" /><path clip-path="url(#clip450)" d="M3524.41 1862.69 L3529.29 1862.69 L3529.29 1868.57 L3524.41 1868.57 L3524.41 1862.69 Z" fill="#000000" fill-rule="nonzero" fill-opacity="1" /><path clip-path="url(#clip450)" d="M3549.48 1837.09 Q3545.87 1837.09 3544.04 1840.65 Q3542.23 1844.19 3542.23 1851.32 Q3542.23 1858.43 3544.04 1861.99 Q3545.87 1865.54 3549.48 1865.54 Q3553.11 1865.54 3554.92 1861.99 Q3556.75 1858.43 3556.75 1851.32 Q3556.75 1844.19 3554.92 1840.65 Q3553.11 1837.09 3549.48 1837.09 M3549.48 1833.38 Q3555.29 1833.38 3558.35 1837.99 Q3561.42 1842.57 3561.42 1851.32 Q3561.42 1860.05 3558.35 1864.66 Q3555.29 1869.24 3549.48 1869.24 Q3543.67 1869.24 3540.59 1864.66 Q3537.53 1860.05 3537.53 1851.32 Q3537.53 1842.57 3540.59 1837.99 Q3543.67 1833.38 3549.48 1833.38 Z" fill="#000000" fill-rule="nonzero" fill-opacity="1" /><path clip-path="url(#clip450)" d="M3881.09 1837.09 Q3877.48 1837.09 3875.65 1840.65 Q3873.84 1844.19 3873.84 1851.32 Q3873.84 1858.43 3875.65 1861.99 Q3877.48 1865.54 3881.09 1865.54 Q3884.72 1865.54 3886.53 1861.99 Q3888.36 1858.43 3888.36 1851.32 Q3888.36 1844.19 3886.53 1840.65 Q3884.72 1837.09 3881.09 1837.09 M3881.09 1833.38 Q3886.9 1833.38 3889.95 1837.99 Q3893.03 1842.57 3893.03 1851.32 Q3893.03 1860.05 3889.95 1864.66 Q3886.9 1869.24 3881.09 1869.24 Q3875.28 1869.24 3872.2 1864.66 Q3869.14 1860.05 3869.14 1851.32 Q3869.14 1842.57 3872.2 1837.99 Q3875.28 1833.38 3881.09 1833.38 Z" fill="#000000" fill-rule="nonzero" fill-opacity="1" /><path clip-path="url(#clip450)" d="M3901.25 1862.69 L3906.14 1862.69 L3906.14 1868.57 L3901.25 1868.57 L3901.25 1862.69 Z" fill="#000000" fill-rule="nonzero" fill-opacity="1" /><path clip-path="url(#clip450)" d="M3916.37 1834.01 L3934.72 1834.01 L3934.72 1837.94 L3920.65 1837.94 L3920.65 1846.42 Q3921.67 1846.07 3922.69 1845.91 Q3923.7 1845.72 3924.72 1845.72 Q3930.51 1845.72 3933.89 1848.89 Q3937.27 1852.06 3937.27 1857.48 Q3937.27 1863.06 3933.8 1866.16 Q3930.32 1869.24 3924.01 1869.24 Q3921.83 1869.24 3919.56 1868.87 Q3917.32 1868.5 3914.91 1867.76 L3914.91 1863.06 Q3916.99 1864.19 3919.21 1864.75 Q3921.44 1865.3 3923.91 1865.3 Q3927.92 1865.3 3930.26 1863.2 Q3932.59 1861.09 3932.59 1857.48 Q3932.59 1853.87 3930.26 1851.76 Q3927.92 1849.66 3923.91 1849.66 Q3922.04 1849.66 3920.16 1850.07 Q3918.31 1850.49 3916.37 1851.37 L3916.37 1834.01 Z" fill="#000000" fill-rule="nonzero" fill-opacity="1" /><path clip-path="url(#clip450)" d="M4246.7 1864.63 L4254.34 1864.63 L4254.34 1838.27 L4246.03 1839.93 L4246.03 1835.67 L4254.3 1834.01 L4258.97 1834.01 L4258.97 1864.63 L4266.61 1864.63 L4266.61 1868.57 L4246.7 1868.57 L4246.7 1864.63 Z" fill="#000000" fill-rule="nonzero" fill-opacity="1" /><path clip-path="url(#clip450)" d="M4276.05 1862.69 L4280.94 1862.69 L4280.94 1868.57 L4276.05 1868.57 L4276.05 1862.69 Z" fill="#000000" fill-rule="nonzero" fill-opacity="1" /><path clip-path="url(#clip450)" d="M4301.12 1837.09 Q4297.51 1837.09 4295.68 1840.65 Q4293.88 1844.19 4293.88 1851.32 Q4293.88 1858.43 4295.68 1861.99 Q4297.51 1865.54 4301.12 1865.54 Q4304.76 1865.54 4306.56 1861.99 Q4308.39 1858.43 4308.39 1851.32 Q4308.39 1844.19 4306.56 1840.65 Q4304.76 1837.09 4301.12 1837.09 M4301.12 1833.38 Q4306.93 1833.38 4309.99 1837.99 Q4313.07 1842.57 4313.07 1851.32 Q4313.07 1860.05 4309.99 1864.66 Q4306.93 1869.24 4301.12 1869.24 Q4295.31 1869.24 4292.23 1864.66 Q4289.18 1860.05 4289.18 1851.32 Q4289.18 1842.57 4292.23 1837.99 Q4295.31 1833.38 4301.12 1833.38 Z" fill="#000000" fill-rule="nonzero" fill-opacity="1" /><path clip-path="url(#clip450)" d="M4623.54 1864.63 L4631.18 1864.63 L4631.18 1838.27 L4622.87 1839.93 L4622.87 1835.67 L4631.14 1834.01 L4635.81 1834.01 L4635.81 1864.63 L4643.45 1864.63 L4643.45 1868.57 L4623.54 1868.57 L4623.54 1864.63 Z" fill="#000000" fill-rule="nonzero" fill-opacity="1" /><path clip-path="url(#clip450)" d="M4652.9 1862.69 L4657.78 1862.69 L4657.78 1868.57 L4652.9 1868.57 L4652.9 1862.69 Z" fill="#000000" fill-rule="nonzero" fill-opacity="1" /><path clip-path="url(#clip450)" d="M4668.01 1834.01 L4686.37 1834.01 L4686.37 1837.94 L4672.29 1837.94 L4672.29 1846.42 Q4673.31 1846.07 4674.33 1845.91 Q4675.35 1845.72 4676.37 1845.72 Q4682.15 1845.72 4685.53 1848.89 Q4688.91 1852.06 4688.91 1857.48 Q4688.91 1863.06 4685.44 1866.16 Q4681.97 1869.24 4675.65 1869.24 Q4673.47 1869.24 4671.21 1868.87 Q4668.96 1868.5 4666.55 1867.76 L4666.55 1863.06 Q4668.64 1864.19 4670.86 1864.75 Q4673.08 1865.3 4675.56 1865.3 Q4679.56 1865.3 4681.9 1863.2 Q4684.24 1861.09 4684.24 1857.48 Q4684.24 1853.87 4681.9 1851.76 Q4679.56 1849.66 4675.56 1849.66 Q4673.68 1849.66 4671.81 1850.07 Q4669.96 1850.49 4668.01 1851.37 L4668.01 1834.01 Z" fill="#000000" fill-rule="nonzero" fill-opacity="1" /><path clip-path="url(#clip450)" d="M4081.86 1965.64 L4081.86 1981.39 L4075.97 1981.39 L4075.97 1932.41 Q4075.97 1917.89 4089.53 1917.89 Q4103.35 1917.89 4103.35 1930.15 Q4103.35 1938.87 4097.87 1942.05 Q4106.78 1944.92 4106.78 1953.41 Q4106.78 1968.5 4091.44 1968.5 Q4084.69 1968.5 4081.86 1965.64 M4081.86 1958 Q4085.39 1963.5 4091.66 1963.5 Q4100.83 1963.5 4100.83 1953.51 Q4100.83 1944.53 4086.06 1945.23 L4086.06 1939.82 Q4097.62 1939.82 4097.62 1929.64 Q4097.62 1922.67 4090.17 1922.67 Q4081.86 1922.67 4081.86 1932.6 L4081.86 1958 Z" fill="#000000" fill-rule="nonzero" fill-opacity="1" /><polyline clip-path="url(#clip450)" style="stroke:#000000; stroke-linecap:round; stroke-linejoin:round; stroke-width:4; stroke-opacity:1; fill:none" points="3492.99,1786.97 3492.99,210.236 "/>
<polyline clip-path="url(#clip450)" style="stroke:#000000; stroke-linecap:round; stroke-linejoin:round; stroke-width:4; stroke-opacity:1; fill:none" points="3492.99,1742.34 3511.89,1742.34 "/>
<polyline clip-path="url(#clip450)" style="stroke:#000000; stroke-linecap:round; stroke-linejoin:round; stroke-width:4; stroke-opacity:1; fill:none" points="3492.99,892.866 3511.89,892.866 "/>
<path clip-path="url(#clip450)" d="M3350.29 1762.14 L3357.93 1762.14 L3357.93 1735.77 L3349.62 1737.44 L3349.62 1733.18 L3357.88 1731.51 L3362.56 1731.51 L3362.56 1762.14 L3370.19 1762.14 L3370.19 1766.07 L3350.29 1766.07 L3350.29 1762.14 Z" fill="#000000" fill-rule="nonzero" fill-opacity="1" /><path clip-path="url(#clip450)" d="M3389.64 1734.59 Q3386.03 1734.59 3384.2 1738.15 Q3382.39 1741.7 3382.39 1748.83 Q3382.39 1755.93 3384.2 1759.5 Q3386.03 1763.04 3389.64 1763.04 Q3393.27 1763.04 3395.08 1759.5 Q3396.91 1755.93 3396.91 1748.83 Q3396.91 1741.7 3395.08 1738.15 Q3393.27 1734.59 3389.64 1734.59 M3389.64 1730.89 Q3395.45 1730.89 3398.5 1735.49 Q3401.58 1740.08 3401.58 1748.83 Q3401.58 1757.55 3398.5 1762.16 Q3395.45 1766.74 3389.64 1766.74 Q3383.83 1766.74 3380.75 1762.16 Q3377.69 1757.55 3377.69 1748.83 Q3377.69 1740.08 3380.75 1735.49 Q3383.83 1730.89 3389.64 1730.89 Z" fill="#000000" fill-rule="nonzero" fill-opacity="1" /><path clip-path="url(#clip450)" d="M3411.29 1713.08 Q3408.35 1713.08 3406.87 1715.98 Q3405.4 1718.86 3405.4 1724.65 Q3405.4 1730.42 3406.87 1733.32 Q3408.35 1736.2 3411.29 1736.2 Q3414.24 1736.2 3415.71 1733.32 Q3417.19 1730.42 3417.19 1724.65 Q3417.19 1718.86 3415.71 1715.98 Q3414.24 1713.08 3411.29 1713.08 M3411.29 1710.07 Q3416.01 1710.07 3418.49 1713.82 Q3420.99 1717.54 3420.99 1724.65 Q3420.99 1731.74 3418.49 1735.48 Q3416.01 1739.21 3411.29 1739.21 Q3406.57 1739.21 3404.07 1735.48 Q3401.58 1731.74 3401.58 1724.65 Q3401.58 1717.54 3404.07 1713.82 Q3406.57 1710.07 3411.29 1710.07 Z" fill="#000000" fill-rule="nonzero" fill-opacity="1" /><path clip-path="url(#clip450)" d="M3351.21 912.659 L3358.85 912.659 L3358.85 886.293 L3350.54 887.96 L3350.54 883.701 L3358.8 882.034 L3363.48 882.034 L3363.48 912.659 L3371.12 912.659 L3371.12 916.594 L3351.21 916.594 L3351.21 912.659 Z" fill="#000000" fill-rule="nonzero" fill-opacity="1" /><path clip-path="url(#clip450)" d="M3390.56 885.113 Q3386.95 885.113 3385.12 888.677 Q3383.32 892.219 3383.32 899.349 Q3383.32 906.455 3385.12 910.02 Q3386.95 913.561 3390.56 913.561 Q3394.19 913.561 3396 910.02 Q3397.83 906.455 3397.83 899.349 Q3397.83 892.219 3396 888.677 Q3394.19 885.113 3390.56 885.113 M3390.56 881.409 Q3396.37 881.409 3399.43 886.015 Q3402.5 890.599 3402.5 899.349 Q3402.5 908.075 3399.43 912.682 Q3396.37 917.265 3390.56 917.265 Q3384.75 917.265 3381.67 912.682 Q3378.62 908.075 3378.62 899.349 Q3378.62 890.599 3381.67 886.015 Q3384.75 881.409 3390.56 881.409 Z" fill="#000000" fill-rule="nonzero" fill-opacity="1" /><path clip-path="url(#clip450)" d="M3415.2 874.043 Q3417.93 874.626 3419.45 876.469 Q3420.99 878.313 3420.99 881.021 Q3420.99 885.177 3418.13 887.453 Q3415.28 889.729 3410.01 889.729 Q3408.24 889.729 3406.36 889.372 Q3404.5 889.033 3402.5 888.337 L3402.5 884.67 Q3404.08 885.591 3405.97 886.061 Q3407.85 886.532 3409.9 886.532 Q3413.47 886.532 3415.33 885.121 Q3417.21 883.71 3417.21 881.021 Q3417.21 878.538 3415.46 877.146 Q3413.73 875.736 3410.63 875.736 L3407.36 875.736 L3407.36 872.614 L3410.78 872.614 Q3413.58 872.614 3415.07 871.504 Q3416.55 870.376 3416.55 868.269 Q3416.55 866.106 3415.01 864.959 Q3413.49 863.793 3410.63 863.793 Q3409.07 863.793 3407.28 864.132 Q3405.5 864.47 3403.35 865.185 L3403.35 861.799 Q3405.51 861.197 3407.39 860.897 Q3409.29 860.596 3410.97 860.596 Q3415.29 860.596 3417.81 862.57 Q3420.33 864.526 3420.33 867.874 Q3420.33 870.206 3419 871.824 Q3417.66 873.423 3415.2 874.043 Z" fill="#000000" fill-rule="nonzero" fill-opacity="1" /><path clip-path="url(#clip450)" d="M3234.68 1265.5 L3234.68 1274.76 L3245.31 1277.44 L3245.31 1268.11 L3234.68 1265.5 M3216.57 1270.27 L3229.78 1273.58 L3229.78 1264.29 L3216.57 1260.95 L3216.57 1255.86 L3229.78 1259.13 L3229.78 1249.2 L3234.68 1249.2 L3234.68 1260.38 L3245.31 1262.99 L3245.31 1252.86 L3250.18 1252.86 L3250.18 1264.23 L3263.36 1267.54 L3263.36 1272.63 L3250.18 1269.35 L3250.18 1278.68 L3263.36 1281.96 L3263.36 1287.08 L3250.18 1283.77 L3250.18 1293.8 L3245.31 1293.8 L3245.31 1282.59 L3234.68 1279.92 L3234.68 1290.17 L3229.78 1290.17 L3229.78 1278.68 L3216.57 1275.43 L3216.57 1270.27 Z" fill="#000000" fill-rule="nonzero" fill-opacity="1" /><path clip-path="url(#clip450)" d="M3215.84 1237.81 L3215.84 1228.23 L3248.18 1216.1 L3215.84 1203.91 L3215.84 1194.33 L3263.36 1194.33 L3263.36 1200.6 L3221.63 1200.6 L3254.23 1212.86 L3254.23 1219.32 L3221.63 1231.57 L3263.36 1231.57 L3263.36 1237.81 L3215.84 1237.81 Z" fill="#000000" fill-rule="nonzero" fill-opacity="1" /><path clip-path="url(#clip450)" d="M3245.44 1165.62 Q3245.44 1172.72 3247.06 1175.46 Q3248.69 1178.19 3252.6 1178.19 Q3255.72 1178.19 3257.57 1176.16 Q3259.38 1174.09 3259.38 1170.56 Q3259.38 1165.69 3255.94 1162.76 Q3252.47 1159.8 3246.75 1159.8 L3245.44 1159.8 L3245.44 1165.62 M3243.02 1153.94 L3263.36 1153.94 L3263.36 1159.8 L3257.95 1159.8 Q3261.2 1161.8 3262.76 1164.79 Q3264.28 1167.79 3264.28 1172.12 Q3264.28 1177.59 3261.23 1180.84 Q3258.14 1184.05 3252.98 1184.05 Q3246.97 1184.05 3243.91 1180.04 Q3240.86 1176 3240.86 1168.01 L3240.86 1159.8 L3240.28 1159.8 Q3236.24 1159.8 3234.05 1162.47 Q3231.82 1165.11 3231.82 1169.92 Q3231.82 1172.97 3232.55 1175.87 Q3233.28 1178.77 3234.75 1181.44 L3229.34 1181.44 Q3228.09 1178.23 3227.49 1175.2 Q3226.85 1172.18 3226.85 1169.31 Q3226.85 1161.58 3230.86 1157.76 Q3234.87 1153.94 3243.02 1153.94 Z" fill="#000000" fill-rule="nonzero" fill-opacity="1" /><path clip-path="url(#clip450)" d="M3227.71 1141.88 L3227.71 1136.02 L3264 1136.02 Q3270.81 1136.02 3273.86 1138.63 Q3276.92 1141.21 3276.92 1146.97 L3276.92 1149.2 L3271.95 1149.2 L3271.95 1147.64 Q3271.95 1144.3 3270.39 1143.09 Q3268.87 1141.88 3264 1141.88 L3227.71 1141.88 M3213.83 1141.88 L3213.83 1136.02 L3221.25 1136.02 L3221.25 1141.88 L3213.83 1141.88 Z" fill="#000000" fill-rule="nonzero" fill-opacity="1" /><path clip-path="url(#clip450)" d="M3231.82 1109.95 Q3231.82 1114.66 3235.51 1117.4 Q3239.17 1120.14 3245.57 1120.14 Q3251.97 1120.14 3255.66 1117.43 Q3259.32 1114.7 3259.32 1109.95 Q3259.32 1105.28 3255.63 1102.54 Q3251.93 1099.8 3245.57 1099.8 Q3239.23 1099.8 3235.54 1102.54 Q3231.82 1105.28 3231.82 1109.95 M3226.85 1109.95 Q3226.85 1102.32 3231.82 1097.95 Q3236.78 1093.59 3245.57 1093.59 Q3254.32 1093.59 3259.32 1097.95 Q3264.28 1102.32 3264.28 1109.95 Q3264.28 1117.62 3259.32 1121.99 Q3254.32 1126.31 3245.57 1126.31 Q3236.78 1126.31 3231.82 1121.99 Q3226.85 1117.62 3226.85 1109.95 Z" fill="#000000" fill-rule="nonzero" fill-opacity="1" /><path clip-path="url(#clip450)" d="M3233.19 1063.23 Q3232.61 1064.22 3232.36 1065.39 Q3232.07 1066.54 3232.07 1067.94 Q3232.07 1072.91 3235.32 1075.58 Q3238.53 1078.22 3244.58 1078.22 L3263.36 1078.22 L3263.36 1084.11 L3227.71 1084.11 L3227.71 1078.22 L3233.25 1078.22 Q3230 1076.37 3228.44 1073.41 Q3226.85 1070.45 3226.85 1066.22 Q3226.85 1065.62 3226.95 1064.88 Q3227.01 1064.15 3227.17 1063.26 L3233.19 1063.23 Z" fill="#000000" fill-rule="nonzero" fill-opacity="1" /><path clip-path="url(#clip450)" d="M3245.44 1040.89 Q3245.44 1047.98 3247.06 1050.72 Q3248.69 1053.46 3252.6 1053.46 Q3255.72 1053.46 3257.57 1051.42 Q3259.38 1049.35 3259.38 1045.82 Q3259.38 1040.95 3255.94 1038.02 Q3252.47 1035.06 3246.75 1035.06 L3245.44 1035.06 L3245.44 1040.89 M3243.02 1029.21 L3263.36 1029.21 L3263.36 1035.06 L3257.95 1035.06 Q3261.2 1037.07 3262.76 1040.06 Q3264.28 1043.05 3264.28 1047.38 Q3264.28 1052.85 3261.23 1056.1 Q3258.14 1059.31 3252.98 1059.31 Q3246.97 1059.31 3243.91 1055.3 Q3240.86 1051.26 3240.86 1043.27 L3240.86 1035.06 L3240.28 1035.06 Q3236.24 1035.06 3234.05 1037.74 Q3231.82 1040.38 3231.82 1045.18 Q3231.82 1048.24 3232.55 1051.13 Q3233.28 1054.03 3234.75 1056.7 L3229.34 1056.7 Q3228.09 1053.49 3227.49 1050.47 Q3226.85 1047.44 3226.85 1044.58 Q3226.85 1036.84 3230.86 1033.02 Q3234.87 1029.21 3243.02 1029.21 Z" fill="#000000" fill-rule="nonzero" fill-opacity="1" /><path clip-path="url(#clip450)" d="M3241.84 987.51 L3263.36 987.51 L3263.36 993.366 L3242.03 993.366 Q3236.97 993.366 3234.46 995.34 Q3231.95 997.313 3231.95 1001.26 Q3231.95 1006 3234.97 1008.74 Q3237.99 1011.48 3243.21 1011.48 L3263.36 1011.48 L3263.36 1017.36 L3227.71 1017.36 L3227.71 1011.48 L3233.25 1011.48 Q3230.04 1009.38 3228.44 1006.54 Q3226.85 1003.68 3226.85 999.955 Q3226.85 993.812 3230.67 990.661 Q3234.46 987.51 3241.84 987.51 Z" fill="#000000" fill-rule="nonzero" fill-opacity="1" /><path clip-path="url(#clip450)" d="M3245.44 959.628 Q3245.44 966.726 3247.06 969.463 Q3248.69 972.2 3252.6 972.2 Q3255.72 972.2 3257.57 970.163 Q3259.38 968.094 3259.38 964.561 Q3259.38 959.692 3255.94 956.763 Q3252.47 953.803 3246.75 953.803 L3245.44 953.803 L3245.44 959.628 M3243.02 947.947 L3263.36 947.947 L3263.36 953.803 L3257.95 953.803 Q3261.2 955.809 3262.76 958.8 Q3264.28 961.792 3264.28 966.121 Q3264.28 971.595 3261.23 974.842 Q3258.14 978.057 3252.98 978.057 Q3246.97 978.057 3243.91 974.046 Q3240.86 970.004 3240.86 962.015 L3240.86 953.803 L3240.28 953.803 Q3236.24 953.803 3234.05 956.477 Q3231.82 959.119 3231.82 963.925 Q3231.82 966.98 3232.55 969.877 Q3233.28 972.773 3234.75 975.447 L3229.34 975.447 Q3228.09 972.232 3227.49 969.208 Q3226.85 966.185 3226.85 963.32 Q3226.85 955.586 3230.86 951.766 Q3234.87 947.947 3243.02 947.947 Z" fill="#000000" fill-rule="nonzero" fill-opacity="1" /><path clip-path="url(#clip450)" d="M3228.76 892.438 L3234.3 892.438 Q3233.03 894.921 3232.39 897.594 Q3231.75 900.268 3231.75 903.132 Q3231.75 907.493 3233.09 909.689 Q3234.43 911.853 3237.1 911.853 Q3239.14 911.853 3240.32 910.294 Q3241.46 908.734 3242.51 904.023 L3242.96 902.018 Q3244.29 895.78 3246.75 893.17 Q3249.16 890.528 3253.52 890.528 Q3258.49 890.528 3261.39 894.475 Q3264.28 898.39 3264.28 905.265 Q3264.28 908.129 3263.71 911.249 Q3263.17 914.336 3262.05 917.773 L3256.01 917.773 Q3257.69 914.527 3258.55 911.376 Q3259.38 908.225 3259.38 905.137 Q3259.38 901 3257.98 898.772 Q3256.55 896.544 3253.97 896.544 Q3251.58 896.544 3250.31 898.167 Q3249.04 899.758 3247.86 905.201 L3247.38 907.238 Q3246.24 912.681 3243.88 915.1 Q3241.49 917.519 3237.36 917.519 Q3232.33 917.519 3229.59 913.954 Q3226.85 910.389 3226.85 903.833 Q3226.85 900.586 3227.33 897.721 Q3227.81 894.857 3228.76 892.438 Z" fill="#000000" fill-rule="nonzero" fill-opacity="1" /><path clip-path="url(#clip450)" d="M3217.59 875.41 L3227.71 875.41 L3227.71 863.347 L3232.26 863.347 L3232.26 875.41 L3251.62 875.41 Q3255.98 875.41 3257.22 874.232 Q3258.46 873.022 3258.46 869.362 L3258.46 863.347 L3263.36 863.347 L3263.36 869.362 Q3263.36 876.142 3260.85 878.72 Q3258.3 881.298 3251.62 881.298 L3232.26 881.298 L3232.26 885.595 L3227.71 885.595 L3227.71 881.298 L3217.59 881.298 L3217.59 875.41 Z" fill="#000000" fill-rule="nonzero" fill-opacity="1" /><path clip-path="url(#clip450)" d="M3233.19 834.987 Q3232.61 835.974 3232.36 837.152 Q3232.07 838.298 3232.07 839.698 Q3232.07 844.663 3235.32 847.337 Q3238.53 849.979 3244.58 849.979 L3263.36 849.979 L3263.36 855.867 L3227.71 855.867 L3227.71 849.979 L3233.25 849.979 Q3230 848.133 3228.44 845.173 Q3226.85 842.212 3226.85 837.979 Q3226.85 837.375 3226.95 836.642 Q3227.01 835.91 3227.17 835.019 L3233.19 834.987 Z" fill="#000000" fill-rule="nonzero" fill-opacity="1" /><path clip-path="url(#clip450)" d="M3227.71 828.844 L3227.71 822.988 L3263.36 822.988 L3263.36 828.844 L3227.71 828.844 M3213.83 828.844 L3213.83 822.988 L3221.25 822.988 L3221.25 828.844 L3213.83 828.844 Z" fill="#000000" fill-rule="nonzero" fill-opacity="1" /><path clip-path="url(#clip450)" d="M3241.84 781.102 L3263.36 781.102 L3263.36 786.958 L3242.03 786.958 Q3236.97 786.958 3234.46 788.932 Q3231.95 790.905 3231.95 794.852 Q3231.95 799.594 3234.97 802.331 Q3237.99 805.069 3243.21 805.069 L3263.36 805.069 L3263.36 810.957 L3227.71 810.957 L3227.71 805.069 L3233.25 805.069 Q3230.04 802.968 3228.44 800.135 Q3226.85 797.271 3226.85 793.547 Q3226.85 787.404 3230.67 784.253 Q3234.46 781.102 3241.84 781.102 Z" fill="#000000" fill-rule="nonzero" fill-opacity="1" /><path clip-path="url(#clip450)" d="M3245.12 745.963 Q3238.76 745.963 3235.26 748.605 Q3231.75 751.215 3231.75 755.957 Q3231.75 760.668 3235.26 763.31 Q3238.76 765.919 3245.12 765.919 Q3251.46 765.919 3254.96 763.31 Q3258.46 760.668 3258.46 755.957 Q3258.46 751.215 3254.96 748.605 Q3251.46 745.963 3245.12 745.963 M3258.94 740.107 Q3268.04 740.107 3272.46 744.149 Q3276.92 748.191 3276.92 756.53 Q3276.92 759.617 3276.44 762.355 Q3276 765.092 3275.04 767.67 L3269.34 767.67 Q3270.74 765.092 3271.41 762.577 Q3272.08 760.063 3272.08 757.453 Q3272.08 751.692 3269.06 748.828 Q3266.07 745.963 3259.99 745.963 L3257.09 745.963 Q3260.24 747.777 3261.8 750.61 Q3263.36 753.443 3263.36 757.389 Q3263.36 763.946 3258.36 767.957 Q3253.37 771.967 3245.12 771.967 Q3236.85 771.967 3231.85 767.957 Q3226.85 763.946 3226.85 757.389 Q3226.85 753.443 3228.41 750.61 Q3229.97 747.777 3233.12 745.963 L3227.71 745.963 L3227.71 740.107 L3258.94 740.107 Z" fill="#000000" fill-rule="nonzero" fill-opacity="1" /><path clip-path="url(#clip450)" d="M3228.76 705.318 L3234.3 705.318 Q3233.03 707.801 3232.39 710.474 Q3231.75 713.148 3231.75 716.012 Q3231.75 720.373 3233.09 722.569 Q3234.43 724.733 3237.1 724.733 Q3239.14 724.733 3240.32 723.174 Q3241.46 721.614 3242.51 716.904 L3242.96 714.898 Q3244.29 708.66 3246.75 706.05 Q3249.16 703.408 3253.52 703.408 Q3258.49 703.408 3261.39 707.355 Q3264.28 711.27 3264.28 718.145 Q3264.28 721.009 3263.71 724.129 Q3263.17 727.216 3262.05 730.653 L3256.01 730.653 Q3257.69 727.407 3258.55 724.256 Q3259.38 721.105 3259.38 718.018 Q3259.38 713.88 3257.98 711.652 Q3256.55 709.424 3253.97 709.424 Q3251.58 709.424 3250.31 711.047 Q3249.04 712.639 3247.86 718.081 L3247.38 720.118 Q3246.24 725.561 3243.88 727.98 Q3241.49 730.399 3237.36 730.399 Q3232.33 730.399 3229.59 726.834 Q3226.85 723.269 3226.85 716.713 Q3226.85 713.466 3227.33 710.601 Q3227.81 707.737 3228.76 705.318 Z" fill="#000000" fill-rule="nonzero" fill-opacity="1" /><polyline clip-path="url(#clip454)" style="stroke:#ff8c00; stroke-linecap:round; stroke-linejoin:round; stroke-width:8; stroke-opacity:1; fill:none" points="3526.86,1742.34 3541.92,989.974 3556.97,874.827 3572.02,769.003 3587.08,769.003 3602.13,723.841 3617.19,696.058 3632.24,647.486 3647.29,606.323 3662.35,596.564 3677.4,590.001 3692.45,589.405 3707.51,575.333 3722.56,533.049 3737.62,517.331 3752.67,505.497 3767.72,490.573 3782.78,486.859 3797.83,484.62 3812.88,471.734 3827.94,469.555 3842.99,464.378 3858.05,457.316 3873.1,434.734 3888.15,426.534 3903.21,423.448 3918.26,421.577 3933.31,417.169 3948.37,412.076 3963.42,407.902 3978.48,400.28 3993.53,394.543 4008.58,386.901 4023.64,382.344 4038.69,379.571 4053.74,376.135 4068.8,370.767 4083.85,365.776 4098.91,361.466 4113.96,357.115 4129.01,353.29 4144.07,351.107 4159.12,347.517 4174.17,343.592 4189.23,338.158 4204.28,332.106 4219.33,327.512 4234.39,324.721 4249.44,322.715 4264.5,321.089 4279.55,319.55 4294.6,316.264 4309.66,312.994 4324.71,309.915 4339.76,306.884 4354.82,304.509 4369.87,302.843 4384.93,300.804 4399.98,298.344 4415.03,295.011 4430.09,292.138 4445.14,289.406 4460.19,286.681 4475.25,284.077 4490.3,281.906 4505.36,279.784 4520.41,277.56 4535.46,275.007 4550.52,272.315 4565.57,269.649 4580.62,267.204 4595.68,264.582 4610.73,261.691 4625.79,259.23 4640.84,256.943 4655.89,254.861 "/>
<path clip-path="url(#clip450)" d="M269.802 100 L4689.76 100 L4689.76 0 L269.802 0  Z" fill="#ffffff" fill-rule="evenodd" fill-opacity="1"/>
<defs>
  <clipPath id="clip455">
    <rect x="269" y="0" width="4421" height="101"/>
  </clipPath>
</defs>
<path clip-path="url(#clip450)" d="M1272.29 13.824 L1281.64 13.824 L1281.64 82.944 L1272.29 82.944 L1272.29 13.824 Z" fill="#000000" fill-rule="nonzero" fill-opacity="1" /><path clip-path="url(#clip450)" d="M1340.25 41.0461 Q1343.45 35.3054 1347.89 32.5739 Q1352.34 29.8424 1358.35 29.8424 Q1366.46 29.8424 1370.85 35.5368 Q1375.25 41.185 1375.25 51.6479 L1375.25 82.944 L1366.69 82.944 L1366.69 51.9256 Q1366.69 44.472 1364.05 40.8609 Q1361.41 37.2498 1355.99 37.2498 Q1349.37 37.2498 1345.53 41.6479 Q1341.69 46.046 1341.69 53.6386 L1341.69 82.944 L1333.12 82.944 L1333.12 51.9256 Q1333.12 44.4257 1330.48 40.8609 Q1327.84 37.2498 1322.34 37.2498 Q1315.81 37.2498 1311.97 41.6942 Q1308.12 46.0923 1308.12 53.6386 L1308.12 82.944 L1299.56 82.944 L1299.56 31.0924 L1308.12 31.0924 L1308.12 39.1479 Q1311.04 34.3794 1315.11 32.1109 Q1319.19 29.8424 1324.79 29.8424 Q1330.44 29.8424 1334.37 32.7128 Q1338.35 35.5831 1340.25 41.0461 Z" fill="#000000" fill-rule="nonzero" fill-opacity="1" /><path clip-path="url(#clip450)" d="M1415.81 56.8793 Q1405.48 56.8793 1401.5 59.2404 Q1397.52 61.6015 1397.52 67.2959 Q1397.52 71.8329 1400.48 74.5181 Q1403.49 77.157 1408.63 77.157 Q1415.71 77.157 1419.97 72.157 Q1424.28 67.1108 1424.28 58.7775 L1424.28 56.8793 L1415.81 56.8793 M1432.8 53.3608 L1432.8 82.944 L1424.28 82.944 L1424.28 75.0737 Q1421.36 79.7959 1417.01 82.0644 Q1412.66 84.2866 1406.36 84.2866 Q1398.4 84.2866 1393.68 79.8422 Q1389 75.3514 1389 67.8515 Q1389 59.1015 1394.84 54.6571 Q1400.71 50.2127 1412.34 50.2127 L1424.28 50.2127 L1424.28 49.3794 Q1424.28 43.4998 1420.39 40.3053 Q1416.55 37.0646 1409.56 37.0646 Q1405.11 37.0646 1400.9 38.1294 Q1396.69 39.1942 1392.8 41.3239 L1392.8 33.4535 Q1397.47 31.648 1401.87 30.7684 Q1406.27 29.8424 1410.44 29.8424 Q1421.69 29.8424 1427.24 35.6757 Q1432.8 41.509 1432.8 53.3608 Z" fill="#000000" fill-rule="nonzero" fill-opacity="1" /><path clip-path="url(#clip450)" d="M1484.46 56.4164 Q1484.46 47.1572 1480.62 42.0646 Q1476.83 36.972 1469.93 36.972 Q1463.08 36.972 1459.23 42.0646 Q1455.44 47.1572 1455.44 56.4164 Q1455.44 65.6293 1459.23 70.7218 Q1463.08 75.8144 1469.93 75.8144 Q1476.83 75.8144 1480.62 70.7218 Q1484.46 65.6293 1484.46 56.4164 M1492.98 76.5088 Q1492.98 89.7495 1487.1 96.1847 Q1481.22 102.666 1469.09 102.666 Q1464.6 102.666 1460.62 101.972 Q1456.64 101.324 1452.89 99.9346 L1452.89 91.6477 Q1456.64 93.6847 1460.3 94.6569 Q1463.96 95.6291 1467.75 95.6291 Q1476.13 95.6291 1480.3 91.231 Q1484.46 86.8792 1484.46 78.0366 L1484.46 73.8237 Q1481.83 78.407 1477.71 80.6755 Q1473.58 82.944 1467.84 82.944 Q1458.31 82.944 1452.47 75.6755 Q1446.64 68.407 1446.64 56.4164 Q1446.64 44.3794 1452.47 37.1109 Q1458.31 29.8424 1467.84 29.8424 Q1473.58 29.8424 1477.71 32.1109 Q1481.83 34.3794 1484.46 38.9628 L1484.46 31.0924 L1492.98 31.0924 L1492.98 76.5088 Z" fill="#000000" fill-rule="nonzero" fill-opacity="1" /><path clip-path="url(#clip450)" d="M1510.53 31.0924 L1519.05 31.0924 L1519.05 82.944 L1510.53 82.944 L1510.53 31.0924 M1510.53 10.9073 L1519.05 10.9073 L1519.05 21.6943 L1510.53 21.6943 L1510.53 10.9073 Z" fill="#000000" fill-rule="nonzero" fill-opacity="1" /><path clip-path="url(#clip450)" d="M1579.97 51.6479 L1579.97 82.944 L1571.45 82.944 L1571.45 51.9256 Q1571.45 44.5646 1568.58 40.9072 Q1565.71 37.2498 1559.97 37.2498 Q1553.08 37.2498 1549.09 41.6479 Q1545.11 46.046 1545.11 53.6386 L1545.11 82.944 L1536.55 82.944 L1536.55 31.0924 L1545.11 31.0924 L1545.11 39.1479 Q1548.17 34.472 1552.29 32.1572 Q1556.45 29.8424 1561.87 29.8424 Q1570.81 29.8424 1575.39 35.398 Q1579.97 40.9072 1579.97 51.6479 Z" fill="#000000" fill-rule="nonzero" fill-opacity="1" /><path clip-path="url(#clip450)" d="M1620.53 56.8793 Q1610.2 56.8793 1606.22 59.2404 Q1602.24 61.6015 1602.24 67.2959 Q1602.24 71.8329 1605.2 74.5181 Q1608.21 77.157 1613.35 77.157 Q1620.44 77.157 1624.7 72.157 Q1629 67.1108 1629 58.7775 L1629 56.8793 L1620.53 56.8793 M1637.52 53.3608 L1637.52 82.944 L1629 82.944 L1629 75.0737 Q1626.08 79.7959 1621.73 82.0644 Q1617.38 84.2866 1611.08 84.2866 Q1603.12 84.2866 1598.4 79.8422 Q1593.72 75.3514 1593.72 67.8515 Q1593.72 59.1015 1599.56 54.6571 Q1605.44 50.2127 1617.06 50.2127 L1629 50.2127 L1629 49.3794 Q1629 43.4998 1625.11 40.3053 Q1621.27 37.0646 1614.28 37.0646 Q1609.83 37.0646 1605.62 38.1294 Q1601.41 39.1942 1597.52 41.3239 L1597.52 33.4535 Q1602.2 31.648 1606.59 30.7684 Q1610.99 29.8424 1615.16 29.8424 Q1626.41 29.8424 1631.96 35.6757 Q1637.52 41.509 1637.52 53.3608 Z" fill="#000000" fill-rule="nonzero" fill-opacity="1" /><path clip-path="url(#clip450)" d="M1685.11 39.0553 Q1683.68 38.222 1681.96 37.8516 Q1680.3 37.435 1678.26 37.435 Q1671.04 37.435 1667.15 42.1572 Q1663.31 46.8331 1663.31 55.6293 L1663.31 82.944 L1654.74 82.944 L1654.74 31.0924 L1663.31 31.0924 L1663.31 39.1479 Q1665.99 34.4257 1670.3 32.1572 Q1674.6 29.8424 1680.76 29.8424 Q1681.64 29.8424 1682.7 29.9813 Q1683.77 30.0739 1685.07 30.3054 L1685.11 39.0553 Z" fill="#000000" fill-rule="nonzero" fill-opacity="1" /><path clip-path="url(#clip450)" d="M1715.62 87.7588 Q1712.01 97.018 1708.58 99.8421 Q1705.16 102.666 1699.42 102.666 L1692.61 102.666 L1692.61 95.5365 L1697.61 95.5365 Q1701.13 95.5365 1703.07 93.8699 Q1705.02 92.2032 1707.38 85.9995 L1708.91 82.1107 L1687.94 31.0924 L1696.96 31.0924 L1713.17 71.6478 L1729.37 31.0924 L1738.4 31.0924 L1715.62 87.7588 Z" fill="#000000" fill-rule="nonzero" fill-opacity="1" /><path clip-path="url(#clip450)" d="M1771.08 13.824 L1829.56 13.824 L1829.56 21.6943 L1805.02 21.6943 L1805.02 82.944 L1795.62 82.944 L1795.62 21.6943 L1771.08 21.6943 L1771.08 13.824 Z" fill="#000000" fill-rule="nonzero" fill-opacity="1" /><path clip-path="url(#clip450)" d="M1835.3 31.0924 L1843.81 31.0924 L1843.81 82.944 L1835.3 82.944 L1835.3 31.0924 M1835.3 10.9073 L1843.81 10.9073 L1843.81 21.6943 L1835.3 21.6943 L1835.3 10.9073 Z" fill="#000000" fill-rule="nonzero" fill-opacity="1" /><path clip-path="url(#clip450)" d="M1902.01 41.0461 Q1905.2 35.3054 1909.65 32.5739 Q1914.09 29.8424 1920.11 29.8424 Q1928.21 29.8424 1932.61 35.5368 Q1937.01 41.185 1937.01 51.6479 L1937.01 82.944 L1928.44 82.944 L1928.44 51.9256 Q1928.44 44.472 1925.8 40.8609 Q1923.17 37.2498 1917.75 37.2498 Q1911.13 37.2498 1907.29 41.6479 Q1903.44 46.046 1903.44 53.6386 L1903.44 82.944 L1894.88 82.944 L1894.88 51.9256 Q1894.88 44.4257 1892.24 40.8609 Q1889.6 37.2498 1884.09 37.2498 Q1877.56 37.2498 1873.72 41.6942 Q1869.88 46.0923 1869.88 53.6386 L1869.88 82.944 L1861.31 82.944 L1861.31 31.0924 L1869.88 31.0924 L1869.88 39.1479 Q1872.8 34.3794 1876.87 32.1109 Q1880.94 29.8424 1886.55 29.8424 Q1892.19 29.8424 1896.13 32.7128 Q1900.11 35.5831 1902.01 41.0461 Z" fill="#000000" fill-rule="nonzero" fill-opacity="1" /><path clip-path="url(#clip450)" d="M1998.35 54.8886 L1998.35 59.0552 L1959.18 59.0552 Q1959.74 67.8515 1964.46 72.4811 Q1969.23 77.0644 1977.7 77.0644 Q1982.61 77.0644 1987.19 75.8607 Q1991.82 74.657 1996.36 72.2496 L1996.36 80.3051 Q1991.78 82.2496 1986.96 83.2681 Q1982.15 84.2866 1977.19 84.2866 Q1964.79 84.2866 1957.52 77.0644 Q1950.3 69.8422 1950.3 57.5275 Q1950.3 44.7961 1957.15 37.3424 Q1964.05 29.8424 1975.71 29.8424 Q1986.17 29.8424 1992.24 36.6017 Q1998.35 43.3146 1998.35 54.8886 M1989.83 52.3886 Q1989.74 45.3979 1985.9 41.2313 Q1982.1 37.0646 1975.8 37.0646 Q1968.67 37.0646 1964.37 41.0924 Q1960.11 45.1201 1959.46 52.4349 L1989.83 52.3886 Z" fill="#000000" fill-rule="nonzero" fill-opacity="1" /><path clip-path="url(#clip450)" d="M2064.83 44.6572 Q2058.54 44.6572 2054.83 48.9627 Q2051.17 53.2682 2051.17 60.7682 Q2051.17 68.2219 2054.83 72.5737 Q2058.54 76.8792 2064.83 76.8792 Q2071.13 76.8792 2074.79 72.5737 Q2078.49 68.2219 2078.49 60.7682 Q2078.49 53.2682 2074.79 48.9627 Q2071.13 44.6572 2064.83 44.6572 M2083.4 15.3518 L2083.4 23.8702 Q2079.88 22.2036 2076.27 21.324 Q2072.7 20.4443 2069.18 20.4443 Q2059.92 20.4443 2055.02 26.6943 Q2050.16 32.9443 2049.46 45.5831 Q2052.19 41.5553 2056.31 39.4257 Q2060.43 37.2498 2065.39 37.2498 Q2075.8 37.2498 2081.82 43.5924 Q2087.89 49.8886 2087.89 60.7682 Q2087.89 71.4163 2081.59 77.8514 Q2075.29 84.2866 2064.83 84.2866 Q2052.84 84.2866 2046.5 75.12 Q2040.16 65.9071 2040.16 48.4534 Q2040.16 32.0646 2047.93 22.3425 Q2055.71 12.574 2068.81 12.574 Q2072.33 12.574 2075.9 13.2684 Q2079.51 13.9629 2083.4 15.3518 Z" fill="#000000" fill-rule="nonzero" fill-opacity="1" /><path clip-path="url(#clip450)" d="M2176.03 31.0924 L2157.28 56.3238 L2177.01 82.944 L2166.96 82.944 L2151.87 62.5737 L2136.78 82.944 L2126.73 82.944 L2146.87 55.8145 L2128.44 31.0924 L2138.49 31.0924 L2152.24 49.5645 L2165.99 31.0924 L2176.03 31.0924 Z" fill="#000000" fill-rule="nonzero" fill-opacity="1" /><path clip-path="url(#clip450)" d="M2222.01 75.0737 L2237.28 75.0737 L2237.28 22.3425 L2220.66 25.6758 L2220.66 17.1573 L2237.19 13.824 L2246.54 13.824 L2246.54 75.0737 L2261.82 75.0737 L2261.82 82.944 L2222.01 82.944 L2222.01 75.0737 Z" fill="#000000" fill-rule="nonzero" fill-opacity="1" /><path clip-path="url(#clip450)" d="M2310.02 13.824 L2349.74 13.824 L2349.74 21.6943 L2319.37 21.6943 L2319.37 42.0646 L2346.77 42.0646 L2346.77 49.9349 L2319.37 49.9349 L2319.37 82.944 L2310.02 82.944 L2310.02 13.824 Z" fill="#000000" fill-rule="nonzero" fill-opacity="1" /><path clip-path="url(#clip450)" d="M2403.35 54.8886 L2403.35 59.0552 L2364.18 59.0552 Q2364.74 67.8515 2369.46 72.4811 Q2374.23 77.0644 2382.7 77.0644 Q2387.61 77.0644 2392.19 75.8607 Q2396.82 74.657 2401.36 72.2496 L2401.36 80.3051 Q2396.77 82.2496 2391.96 83.2681 Q2387.14 84.2866 2382.19 84.2866 Q2369.78 84.2866 2362.52 77.0644 Q2355.29 69.8422 2355.29 57.5275 Q2355.29 44.7961 2362.14 37.3424 Q2369.04 29.8424 2380.71 29.8424 Q2391.17 29.8424 2397.24 36.6017 Q2403.35 43.3146 2403.35 54.8886 M2394.83 52.3886 Q2394.74 45.3979 2390.89 41.2313 Q2387.1 37.0646 2380.8 37.0646 Q2373.67 37.0646 2369.37 41.0924 Q2365.11 45.1201 2364.46 52.4349 L2394.83 52.3886 Z" fill="#000000" fill-rule="nonzero" fill-opacity="1" /><path clip-path="url(#clip450)" d="M2447.38 39.0553 Q2445.94 38.222 2444.23 37.8516 Q2442.56 37.435 2440.52 37.435 Q2433.3 37.435 2429.41 42.1572 Q2425.57 46.8331 2425.57 55.6293 L2425.57 82.944 L2417.01 82.944 L2417.01 31.0924 L2425.57 31.0924 L2425.57 39.1479 Q2428.26 34.4257 2432.56 32.1572 Q2436.87 29.8424 2443.02 29.8424 Q2443.9 29.8424 2444.97 29.9813 Q2446.03 30.0739 2447.33 30.3054 L2447.38 39.0553 Z" fill="#000000" fill-rule="nonzero" fill-opacity="1" /><path clip-path="url(#clip450)" d="M2495.01 41.0461 Q2498.21 35.3054 2502.65 32.5739 Q2507.1 29.8424 2513.12 29.8424 Q2521.22 29.8424 2525.62 35.5368 Q2530.01 41.185 2530.01 51.6479 L2530.01 82.944 L2521.45 82.944 L2521.45 51.9256 Q2521.45 44.472 2518.81 40.8609 Q2516.17 37.2498 2510.76 37.2498 Q2504.13 37.2498 2500.29 41.6479 Q2496.45 46.046 2496.45 53.6386 L2496.45 82.944 L2487.88 82.944 L2487.88 51.9256 Q2487.88 44.4257 2485.25 40.8609 Q2482.61 37.2498 2477.1 37.2498 Q2470.57 37.2498 2466.73 41.6942 Q2462.89 46.0923 2462.89 53.6386 L2462.89 82.944 L2454.32 82.944 L2454.32 31.0924 L2462.89 31.0924 L2462.89 39.1479 Q2465.8 34.3794 2469.88 32.1109 Q2473.95 29.8424 2479.55 29.8424 Q2485.2 29.8424 2489.13 32.7128 Q2493.12 35.5831 2495.01 41.0461 Z" fill="#000000" fill-rule="nonzero" fill-opacity="1" /><path clip-path="url(#clip450)" d="M2547 31.0924 L2555.52 31.0924 L2555.52 82.944 L2547 82.944 L2547 31.0924 M2547 10.9073 L2555.52 10.9073 L2555.52 21.6943 L2547 21.6943 L2547 10.9073 Z" fill="#000000" fill-rule="nonzero" fill-opacity="1" /><path clip-path="url(#clip450)" d="M2569.04 53.1756 L2594 53.1756 L2594 60.7682 L2569.04 60.7682 L2569.04 53.1756 Z" fill="#000000" fill-rule="nonzero" fill-opacity="1" /><path clip-path="url(#clip450)" d="M2607.93 13.824 L2617.28 13.824 L2617.28 42.1572 L2651.26 42.1572 L2651.26 13.824 L2660.62 13.824 L2660.62 82.944 L2651.26 82.944 L2651.26 50.0275 L2617.28 50.0275 L2617.28 82.944 L2607.93 82.944 L2607.93 13.824 Z" fill="#000000" fill-rule="nonzero" fill-opacity="1" /><path clip-path="url(#clip450)" d="M2677.98 62.4811 L2677.98 31.0924 L2686.49 31.0924 L2686.49 62.1571 Q2686.49 69.5181 2689.37 73.2218 Q2692.24 76.8792 2697.98 76.8792 Q2704.87 76.8792 2708.86 72.4811 Q2712.88 68.083 2712.88 60.4904 L2712.88 31.0924 L2721.4 31.0924 L2721.4 82.944 L2712.88 82.944 L2712.88 74.9811 Q2709.78 79.7033 2705.66 82.0181 Q2701.59 84.2866 2696.17 84.2866 Q2687.24 84.2866 2682.61 78.7311 Q2677.98 73.1755 2677.98 62.4811 M2699.41 29.8424 L2699.41 29.8424 Z" fill="#000000" fill-rule="nonzero" fill-opacity="1" /><path clip-path="url(#clip450)" d="M2776.17 57.0645 Q2776.17 47.6664 2772.28 42.3424 Q2768.44 36.972 2761.68 36.972 Q2754.92 36.972 2751.03 42.3424 Q2747.19 47.6664 2747.19 57.0645 Q2747.19 66.4626 2751.03 71.8329 Q2754.92 77.157 2761.68 77.157 Q2768.44 77.157 2772.28 71.8329 Q2776.17 66.4626 2776.17 57.0645 M2747.19 38.9628 Q2749.87 34.3331 2753.95 32.1109 Q2758.07 29.8424 2763.76 29.8424 Q2773.21 29.8424 2779.09 37.3424 Q2785.01 44.8424 2785.01 57.0645 Q2785.01 69.2867 2779.09 76.7866 Q2773.21 84.2866 2763.76 84.2866 Q2758.07 84.2866 2753.95 82.0644 Q2749.87 79.7959 2747.19 75.1663 L2747.19 82.944 L2738.62 82.944 L2738.62 10.9073 L2747.19 10.9073 L2747.19 38.9628 Z" fill="#000000" fill-rule="nonzero" fill-opacity="1" /><path clip-path="url(#clip450)" d="M2836.36 57.0645 Q2836.36 47.6664 2832.47 42.3424 Q2828.62 36.972 2821.86 36.972 Q2815.11 36.972 2811.22 42.3424 Q2807.37 47.6664 2807.37 57.0645 Q2807.37 66.4626 2811.22 71.8329 Q2815.11 77.157 2821.86 77.157 Q2828.62 77.157 2832.47 71.8329 Q2836.36 66.4626 2836.36 57.0645 M2807.37 38.9628 Q2810.06 34.3331 2814.13 32.1109 Q2818.25 29.8424 2823.95 29.8424 Q2833.39 29.8424 2839.27 37.3424 Q2845.2 44.8424 2845.2 57.0645 Q2845.2 69.2867 2839.27 76.7866 Q2833.39 84.2866 2823.95 84.2866 Q2818.25 84.2866 2814.13 82.0644 Q2810.06 79.7959 2807.37 75.1663 L2807.37 82.944 L2798.81 82.944 L2798.81 10.9073 L2807.37 10.9073 L2807.37 38.9628 Z" fill="#000000" fill-rule="nonzero" fill-opacity="1" /><path clip-path="url(#clip450)" d="M2882.88 56.8793 Q2872.56 56.8793 2868.58 59.2404 Q2864.6 61.6015 2864.6 67.2959 Q2864.6 71.8329 2867.56 74.5181 Q2870.57 77.157 2875.71 77.157 Q2882.79 77.157 2887.05 72.157 Q2891.35 67.1108 2891.35 58.7775 L2891.35 56.8793 L2882.88 56.8793 M2899.87 53.3608 L2899.87 82.944 L2891.35 82.944 L2891.35 75.0737 Q2888.44 79.7959 2884.09 82.0644 Q2879.73 84.2866 2873.44 84.2866 Q2865.48 84.2866 2860.75 79.8422 Q2856.08 75.3514 2856.08 67.8515 Q2856.08 59.1015 2861.91 54.6571 Q2867.79 50.2127 2879.41 50.2127 L2891.35 50.2127 L2891.35 49.3794 Q2891.35 43.4998 2887.47 40.3053 Q2883.62 37.0646 2876.63 37.0646 Q2872.19 37.0646 2867.98 38.1294 Q2863.76 39.1942 2859.87 41.3239 L2859.87 33.4535 Q2864.55 31.648 2868.95 30.7684 Q2873.35 29.8424 2877.51 29.8424 Q2888.76 29.8424 2894.32 35.6757 Q2899.87 41.509 2899.87 53.3608 Z" fill="#000000" fill-rule="nonzero" fill-opacity="1" /><path clip-path="url(#clip450)" d="M2947.47 39.0553 Q2946.03 38.222 2944.32 37.8516 Q2942.65 37.435 2940.61 37.435 Q2933.39 37.435 2929.5 42.1572 Q2925.66 46.8331 2925.66 55.6293 L2925.66 82.944 L2917.1 82.944 L2917.1 31.0924 L2925.66 31.0924 L2925.66 39.1479 Q2928.35 34.4257 2932.65 32.1572 Q2936.96 29.8424 2943.11 29.8424 Q2943.99 29.8424 2945.06 29.9813 Q2946.12 30.0739 2947.42 30.3054 L2947.47 39.0553 Z" fill="#000000" fill-rule="nonzero" fill-opacity="1" /><path clip-path="url(#clip450)" d="M2988.85 38.9628 L2988.85 10.9073 L2997.37 10.9073 L2997.37 82.944 L2988.85 82.944 L2988.85 75.1663 Q2986.17 79.7959 2982.05 82.0644 Q2977.97 84.2866 2972.23 84.2866 Q2962.84 84.2866 2956.91 76.7866 Q2951.03 69.2867 2951.03 57.0645 Q2951.03 44.8424 2956.91 37.3424 Q2962.84 29.8424 2972.23 29.8424 Q2977.97 29.8424 2982.05 32.1109 Q2986.17 34.3331 2988.85 38.9628 M2959.83 57.0645 Q2959.83 66.4626 2963.67 71.8329 Q2967.56 77.157 2974.32 77.157 Q2981.08 77.157 2984.97 71.8329 Q2988.85 66.4626 2988.85 57.0645 Q2988.85 47.6664 2984.97 42.3424 Q2981.08 36.972 2974.32 36.972 Q2967.56 36.972 2963.67 42.3424 Q2959.83 47.6664 2959.83 57.0645 Z" fill="#000000" fill-rule="nonzero" fill-opacity="1" /><path clip-path="url(#clip450)" d="M3017.1 71.1848 L3026.86 71.1848 L3026.86 79.1477 L3019.27 93.9625 L3013.3 93.9625 L3017.1 79.1477 L3017.1 71.1848 Z" fill="#000000" fill-rule="nonzero" fill-opacity="1" /><path clip-path="url(#clip450)" d="M3083.62 16.3703 L3083.62 31.0924 L3101.17 31.0924 L3101.17 37.7128 L3083.62 37.7128 L3083.62 65.8608 Q3083.62 72.2033 3085.34 74.0089 Q3087.09 75.8144 3092.42 75.8144 L3101.17 75.8144 L3101.17 82.944 L3092.42 82.944 Q3082.56 82.944 3078.81 79.2866 Q3075.06 75.5829 3075.06 65.8608 L3075.06 37.7128 L3068.81 37.7128 L3068.81 31.0924 L3075.06 31.0924 L3075.06 16.3703 L3083.62 16.3703 Z" fill="#000000" fill-rule="nonzero" fill-opacity="1" /><path clip-path="url(#clip450)" d="M3113.48 39.8887 L3172.83 39.8887 L3172.83 47.6664 L3113.48 47.6664 L3113.48 39.8887 M3113.48 58.7775 L3172.83 58.7775 L3172.83 66.6478 L3113.48 66.6478 L3113.48 58.7775 Z" fill="#000000" fill-rule="nonzero" fill-opacity="1" /><path clip-path="url(#clip450)" d="M3194.64 75.0737 L3209.92 75.0737 L3209.92 22.3425 L3193.3 25.6758 L3193.3 17.1573 L3209.83 13.824 L3219.18 13.824 L3219.18 75.0737 L3234.45 75.0737 L3234.45 82.944 L3194.64 82.944 L3194.64 75.0737 Z" fill="#000000" fill-rule="nonzero" fill-opacity="1" /><path clip-path="url(#clip450)" d="M3253.34 71.1848 L3263.11 71.1848 L3263.11 82.944 L3253.34 82.944 L3253.34 71.1848 Z" fill="#000000" fill-rule="nonzero" fill-opacity="1" /><path clip-path="url(#clip450)" d="M3303.48 19.9814 Q3296.26 19.9814 3292.6 27.111 Q3288.99 34.1943 3288.99 48.4534 Q3288.99 62.6663 3292.6 69.7959 Q3296.26 76.8792 3303.48 76.8792 Q3310.75 76.8792 3314.36 69.7959 Q3318.02 62.6663 3318.02 48.4534 Q3318.02 34.1943 3314.36 27.111 Q3310.75 19.9814 3303.48 19.9814 M3303.48 12.574 Q3315.1 12.574 3321.21 21.7869 Q3327.37 30.9535 3327.37 48.4534 Q3327.37 65.9071 3321.21 75.12 Q3315.1 84.2866 3303.48 84.2866 Q3291.86 84.2866 3285.7 75.12 Q3279.59 65.9071 3279.59 48.4534 Q3279.59 30.9535 3285.7 21.7869 Q3291.86 12.574 3303.48 12.574 Z" fill="#000000" fill-rule="nonzero" fill-opacity="1" /><path clip-path="url(#clip450)" d="M3344.78 71.1848 L3354.55 71.1848 L3354.55 79.1477 L3346.95 93.9625 L3340.98 93.9625 L3344.78 79.1477 L3344.78 71.1848 Z" fill="#000000" fill-rule="nonzero" fill-opacity="1" /><path clip-path="url(#clip450)" d="M3402.19 13.824 L3411.58 13.824 L3411.58 55.8145 Q3411.58 66.9256 3415.61 71.8329 Q3419.64 76.694 3428.67 76.694 Q3437.65 76.694 3441.68 71.8329 Q3445.7 66.9256 3445.7 55.8145 L3445.7 13.824 L3455.1 13.824 L3455.1 56.9719 Q3455.1 70.4904 3448.39 77.3885 Q3441.72 84.2866 3428.67 84.2866 Q3415.57 84.2866 3408.85 77.3885 Q3402.19 70.4904 3402.19 56.9719 L3402.19 13.824 Z" fill="#000000" fill-rule="nonzero" fill-opacity="1" /><path clip-path="url(#clip450)" d="M3473.39 39.8887 L3532.74 39.8887 L3532.74 47.6664 L3473.39 47.6664 L3473.39 39.8887 M3473.39 58.7775 L3532.74 58.7775 L3532.74 66.6478 L3473.39 66.6478 L3473.39 58.7775 Z" fill="#000000" fill-rule="nonzero" fill-opacity="1" /><path clip-path="url(#clip450)" d="M3572.93 50.1201 Q3566.26 50.1201 3562.42 53.6849 Q3558.62 57.2497 3558.62 63.4997 Q3558.62 69.7496 3562.42 73.3144 Q3566.26 76.8792 3572.93 76.8792 Q3579.59 76.8792 3583.43 73.3144 Q3587.28 69.7033 3587.28 63.4997 Q3587.28 57.2497 3583.43 53.6849 Q3579.64 50.1201 3572.93 50.1201 M3563.57 46.1386 Q3557.56 44.6572 3554.18 40.5368 Q3550.84 36.4165 3550.84 30.4906 Q3550.84 22.2036 3556.72 17.3888 Q3562.65 12.574 3572.93 12.574 Q3583.25 12.574 3589.13 17.3888 Q3595.01 22.2036 3595.01 30.4906 Q3595.01 36.4165 3591.63 40.5368 Q3588.3 44.6572 3582.32 46.1386 Q3589.08 47.7127 3592.83 52.296 Q3596.63 56.8793 3596.63 63.4997 Q3596.63 73.5459 3590.47 78.9162 Q3584.36 84.2866 3572.93 84.2866 Q3561.49 84.2866 3555.33 78.9162 Q3549.22 73.5459 3549.22 63.4997 Q3549.22 56.8793 3553.02 52.296 Q3556.81 47.7127 3563.57 46.1386 M3560.15 31.3702 Q3560.15 36.7405 3563.48 39.7498 Q3566.86 42.759 3572.93 42.759 Q3578.94 42.759 3582.32 39.7498 Q3585.75 36.7405 3585.75 31.3702 Q3585.75 25.9999 3582.32 22.9906 Q3578.94 19.9814 3572.93 19.9814 Q3566.86 19.9814 3563.48 22.9906 Q3560.15 25.9999 3560.15 31.3702 Z" fill="#000000" fill-rule="nonzero" fill-opacity="1" /><path clip-path="url(#clip450)" d="M3613.25 71.1848 L3623.02 71.1848 L3623.02 82.944 L3613.25 82.944 L3613.25 71.1848 Z" fill="#000000" fill-rule="nonzero" fill-opacity="1" /><path clip-path="url(#clip450)" d="M3663.39 19.9814 Q3656.17 19.9814 3652.51 27.111 Q3648.9 34.1943 3648.9 48.4534 Q3648.9 62.6663 3652.51 69.7959 Q3656.17 76.8792 3663.39 76.8792 Q3670.66 76.8792 3674.27 69.7959 Q3677.92 62.6663 3677.92 48.4534 Q3677.92 34.1943 3674.27 27.111 Q3670.66 19.9814 3663.39 19.9814 M3663.39 12.574 Q3675.01 12.574 3681.12 21.7869 Q3687.28 30.9535 3687.28 48.4534 Q3687.28 65.9071 3681.12 75.12 Q3675.01 84.2866 3663.39 84.2866 Q3651.77 84.2866 3645.61 75.12 Q3639.5 65.9071 3639.5 48.4534 Q3639.5 30.9535 3645.61 21.7869 Q3651.77 12.574 3663.39 12.574 Z" fill="#000000" fill-rule="nonzero" fill-opacity="1" /></svg>
